<?xml version="1.0" encoding="UTF-8"?>
<svg id="Layer_2" data-name="Layer 2" xmlns="http://www.w3.org/2000/svg" viewBox="0 0 75 48">
  <defs>
    <style>
      .cls-1 {
        fill: #64676b;
      }

      .cls-2 {
        fill: #ed1c27;
      }
    </style>
  </defs>
  <g id="Layer_1-2" data-name="Layer 1-2">
    <g>
      <path class="cls-2" d="M41.81,27.55l-3.98.02h0c-3.45.26-6.77,1.05-9.95,2.51v-1.36c1.32-.36,2.75-.63,4.18-.85.2-.03.17-.31-.03-.31h-1.85c-.78.05-1.54.12-2.3.22V6.62l-3.87,1.37c-1.3.46-2.18,1.7-2.17,3.08v16.53c-.52.04-1.07.1-1.64.17v-15.3l-2.73.82c-1.03.31-1.74,1.26-1.74,2.34,0,3.05,0,9.26-.01,13-.52.13-1.04.27-1.57.43v-12.28l-1.78.41c-.57.13-.98.64-.98,1.23v11.56c-2.77,1.03-5.63,2.43-8.39,4.28l2.19.47c.74.16,1.51,0,2.13-.44,2.94-2.08,5.55-3.56,8.4-4.62,0,1.06-.01,1.79-.02,1.99-2.96,1.62-5.69,3.7-8.13,6.19h0s2.83.83,2.83.83c1.15.33,2.4,0,3.22-.86,2.87-3.01,5.54-5.14,8.23-6.65v2.71c-2.86,2.35-5.56,5.43-8.08,9.4-.04.07-.01.16.07.19l3.55,1.28c1.7.61,3.59-.1,4.46-1.68,6.79-12.32,14.83-14.26,20-15.27.15-.03.13-.26-.03-.26h0ZM20.19,29.62v-1.24c.53-.11,1.08-.22,1.65-.32v1c-.56.17-1.11.36-1.65.56Z"/>
      <g>
        <g>
          <path class="cls-1" d="M34.8,11.22c1,0,1.38-.5,1.38-1.15v-.22c0-.52-.23-.84-.67-.95v-.04c.32-.13.49-.42.49-.77v-.17c0-.72-.43-1.11-1.3-1.11h-2.52v4.43h2.62v-.02ZM33.17,7.63h1.48c.28,0,.41.13.41.4v.14c0,.27-.13.4-.41.4h-1.48v-.93h0ZM35.2,9.97c0,.28-.13.41-.44.41h-1.59v-1.03h1.59c.31,0,.44.14.44.41,0,0,0,.21,0,.21Z"/>
          <path class="cls-1" d="M37.84,11.28h.32c.19,0,.35-.03.48-.1.13-.06.23-.16.29-.28v-.03h.11l.06.2c.02.06.04.1.07.12.02.01.07.03.17.03h.6v-3.29h-.84c-.09,0-.16.07-.16.16v1.88c0,.18-.04.31-.11.39-.08.08-.21.12-.4.12h-.17c-.19,0-.33-.04-.41-.12-.08-.08-.12-.21-.12-.39v-2.04h-.85c-.08,0-.15.07-.15.15v1.93c0,.42.09.74.27.96.18.21.45.32.82.32h.02Z"/>
          <path class="cls-1" d="M42.46,6.85v4.38h1v-4.5h-.88c-.06,0-.12.05-.12.12Z"/>
          <path class="cls-1" d="M46.49,8.2h-.1v-.03c-.07-.1-.15-.17-.27-.23-.12-.05-.26-.08-.43-.08h-.4c-.38,0-.68.11-.88.32-.2.21-.31.53-.31.95v.86c0,.42.1.74.3.95.2.22.5.33.89.33h.41c.38,0,.65-.13.78-.38v-.03h.1l.06.2c.02.06.05.1.07.12.03.02.09.03.16.03h.6v-4.48h-.86c-.08,0-.14.06-.14.14v1.34h.02ZM46.49,9.94c0,.19-.04.33-.13.4-.08.08-.22.12-.4.12h-.33c-.18,0-.31-.04-.4-.12s-.13-.21-.13-.4v-.73c0-.19.04-.33.13-.4.09-.08.22-.12.4-.12h.33c.18,0,.31.04.4.12s.13.21.13.4v.73Z"/>
          <path class="cls-1" d="M69.36,8.2h-.1v-.03c-.07-.1-.15-.17-.27-.23-.12-.05-.26-.08-.43-.08h-.4c-.38,0-.68.11-.88.32-.2.21-.31.53-.31.95v.86c0,.42.1.74.3.95.2.22.5.33.89.33h.41c.38,0,.65-.13.78-.38v-.03h.1l.06.2c.02.06.05.1.07.12.03.02.09.03.16.03h.6v-4.48h-.86c-.08,0-.14.06-.14.14v1.34h.02ZM69.36,9.94c0,.19-.04.33-.13.4-.08.08-.22.12-.4.12h-.33c-.18,0-.31-.04-.4-.12-.09-.08-.13-.21-.13-.4v-.73c0-.19.04-.33.13-.4.09-.08.22-.12.4-.12h.33c.18,0,.31.04.4.12.09.08.13.21.13.4v.73Z"/>
          <path class="cls-1" d="M51.55,8.67h.17c.2,0,.33.04.4.12s.11.21.11.39v2.04h1v-2.08c0-.42-.09-.74-.27-.95s-.45-.32-.82-.32h-.32c-.38,0-.64.13-.77.37v.03h-.11l-.06-.2c-.02-.06-.04-.1-.08-.12-.02,0-.06-.03-.16-.03h-.5c-.06,0-.11.05-.11.11v3.19h1v-2.04c0-.18.04-.31.12-.39.08-.08.21-.12.41-.12h0Z"/>
          <path class="cls-1" d="M64.74,8.67h.17c.2,0,.33.04.4.12s.11.21.11.39v2.04h1v-2.08c0-.42-.09-.74-.27-.95s-.45-.32-.82-.32h-.32c-.38,0-.64.13-.77.37v.03h-.11l-.06-.2c-.02-.06-.04-.1-.08-.12-.02,0-.06-.03-.16-.03h-.5c-.06,0-.11.05-.11.11v3.19h1v-2.04c0-.18.04-.31.12-.39.08-.08.21-.12.41-.12h0Z"/>
          <path class="cls-1" d="M56.86,12.13c.24-.2.36-.54.36-.99v-3.21h-.61c-.1,0-.14.02-.16.03-.03.02-.06.06-.08.12l-.06.2h-.1v-.03c-.08-.12-.17-.22-.3-.28s-.29-.1-.48-.1h-.41c-.39,0-.69.11-.89.32-.2.22-.3.54-.3.95v.6c0,.42.1.74.3.95.2.22.5.33.89.33h.4c.14,0,.28-.02.39-.07s.21-.12.28-.2l.02-.02h.1v.36c0,.18-.05.31-.14.41-.1.09-.24.14-.44.14h-1.26c-.09,0-.15.02-.18.05-.04.04-.06.1-.08.19l-.08.57h1.76c.47,0,.82-.1,1.06-.31h.01ZM56.1,10.09c-.08.08-.22.12-.41.12h-.32c-.19,0-.32-.04-.41-.12-.08-.08-.13-.22-.13-.4v-.48c0-.18.04-.32.13-.4.08-.08.22-.12.41-.12h.32c.19,0,.32.04.41.12.08.08.13.22.13.4v.48c0,.18-.04.32-.12.4h-.01Z"/>
          <path class="cls-1" d="M60.34,11.28h.42c.19,0,.35-.03.48-.1.13-.06.23-.16.29-.28v-.03h.11l.06.2c.02.06.04.1.07.12.02.01.07.03.17.03h.6v-2.11c0-.17-.02-.33-.06-.47-.04-.14-.1-.26-.2-.37-.1-.1-.23-.19-.41-.25-.18-.06-.41-.09-.69-.09h-1.63l.08.57c0,.09.04.15.08.19.04.03.1.05.18.05h1.37c.09,0,.16.02.21.07s.08.12.08.22v.21h-1.21c-.64,0-.95.3-.95.91v.25c0,.31.08.53.24.67s.4.22.71.22h0ZM60.39,10.14c0-.09.02-.16.07-.19.04-.04.11-.06.19-.06h.91v.18c0,.29-.19.45-.54.45h-.37c-.17,0-.26-.09-.26-.25v-.13Z"/>
          <g>
            <path class="cls-1" d="M40.7,8.08v3.14h1v-3.29h-.85c-.08,0-.15.07-.15.15Z"/>
            <path class="cls-1" d="M40.84,6.6c-.08,0-.14.06-.14.14v.64h1v-.78h-.86Z"/>
          </g>
          <g>
            <path class="cls-1" d="M48.26,8.08v3.14h1v-3.29h-.85c-.08,0-.15.07-.15.15Z"/>
            <path class="cls-1" d="M48.4,6.6c-.08,0-.14.06-.14.14v.64h1v-.78h-.86Z"/>
          </g>
        </g>
        <g>
          <path class="cls-1" d="M34.05,12.79c-1.33,0-1.87.55-1.87,1.7v1.01c0,1.15.54,1.7,1.87,1.7h1.34c.06,0,.12-.04.15-.1l.32-.73h-1.79c-.65,0-.91-.23-.91-.83v-1.08c.02-.59.26-.83.91-.83l1.43-.02c.18,0,.26-.08.29-.25l.08-.56h-1.82Z"/>
          <path class="cls-1" d="M54.02,17.26h.32c.19,0,.35-.03.48-.1.13-.06.23-.16.29-.28v-.03h.11l.06.2c.02.06.04.1.07.12.02.01.07.03.17.03h.6v-3.29h-.84c-.09,0-.16.07-.16.16v1.88c0,.18-.04.31-.11.39-.08.08-.21.12-.4.12h-.17c-.19,0-.33-.04-.41-.12-.08-.08-.12-.21-.12-.39v-2.04h-.85c-.08,0-.15.07-.15.15v1.93c0,.42.09.74.27.96.18.21.45.32.82.32h.02Z"/>
          <path class="cls-1" d="M41.69,14.65h.17c.2,0,.33.04.4.12s.11.21.11.39v2.04h1v-2.08c0-.42-.09-.74-.27-.95s-.45-.32-.82-.32h-.32c-.38,0-.64.13-.77.37v.03h-.11l-.06-.2c-.02-.06-.04-.1-.08-.12-.02-.01-.06-.03-.16-.03h-.5c-.06,0-.11.05-.11.11v3.19h1v-2.04c0-.18.04-.31.12-.39.08-.08.21-.12.41-.12h0Z"/>
          <path class="cls-1" d="M70.33,14.65h.17c.2,0,.33.04.4.12s.11.21.11.39v2.04h1v-2.08c0-.42-.09-.74-.27-.95s-.45-.32-.82-.32h-.32c-.38,0-.64.13-.77.37v.03h-.11l-.06-.2c-.02-.06-.04-.1-.08-.12-.02-.01-.06-.03-.16-.03h-.5c-.06,0-.11.05-.11.11v3.19h1v-2.04c0-.18.04-.31.12-.39s.21-.12.41-.12h-.01Z"/>
          <path class="cls-1" d="M39.28,14.11c-.22-.21-.55-.32-.99-.32h-.78c-.44,0-.78.11-1,.32s-.33.53-.33.95v.86c0,.42.11.74.33.96s.55.32,1,.32h.78c.44,0,.78-.11.99-.32.22-.22.33-.54.33-.96v-.86c0-.42-.11-.74-.33-.95ZM38.65,15.86c0,.19-.04.32-.13.4s-.23.12-.43.12h-.38c-.2,0-.34-.04-.43-.12s-.14-.22-.14-.4v-.73c0-.19.05-.32.14-.4s.23-.12.43-.12h.38c.2,0,.35.04.43.12.09.08.13.21.13.4v.73Z"/>
          <path class="cls-1" d="M67.89,14.11c-.22-.21-.55-.32-.99-.32h-.78c-.44,0-.78.11-1,.32s-.33.53-.33.95v.86c0,.42.11.74.33.96s.55.32,1,.32h.78c.44,0,.78-.11.99-.32.22-.22.33-.54.33-.96v-.86c0-.42-.11-.74-.33-.95ZM67.26,15.86c0,.19-.04.32-.13.4s-.23.12-.43.12h-.38c-.2,0-.34-.04-.43-.12s-.14-.22-.14-.4v-.73c0-.19.05-.32.14-.4s.23-.12.43-.12h.38c.2,0,.35.04.43.12.09.08.13.21.13.4v.73Z"/>
          <path class="cls-1" d="M46.62,16.98c.16-.14.24-.34.24-.57v-.21c0-.25-.05-.45-.16-.58s-.29-.24-.54-.31l-1.1-.29c-.1-.03-.12-.1-.12-.14v-.03c0-.08.05-.13.13-.13h1.33c.09,0,.15-.02.18-.05.04-.04.06-.1.08-.19l.08-.57h-1.88c-.27,0-.49.08-.65.23s-.25.35-.25.59v.13c0,.49.23.79.7.92l1.07.28c.11.03.13.11.13.16v.03c0,.09-.05.14-.14.14h-1.47c-.09,0-.15.02-.18.05-.04.04-.06.1-.07.19l-.08.57h2.06c.27,0,.48-.07.64-.22Z"/>
          <path class="cls-1" d="M51.78,14.74h.41c.09,0,.15-.02.18-.05.04-.04.06-.1.07-.19l.09-.65h-.62c-.18,0-.31.03-.4.08-.09.05-.15.15-.21.3v.03h-.11l-.06-.21c-.02-.06-.04-.1-.07-.12-.02-.01-.07-.03-.17-.03h-.6v3.29h1v-1.95c0-.17.04-.3.12-.38.08-.08.2-.13.37-.13h0Z"/>
          <path class="cls-1" d="M58.06,13.9c-.49,0-.86.11-1.08.31-.22.21-.34.53-.34.97v.73c0,.43.11.76.34.97s.59.32,1.08.32h1.59l-.08-.57c0-.09-.04-.15-.08-.19-.04-.03-.1-.05-.18-.05h-1.21c-.18,0-.31-.03-.39-.1-.08-.07-.12-.2-.12-.36v-.75c0-.17.04-.29.12-.36.08-.07.21-.11.39-.11h1.21c.09,0,.15-.02.18-.05.04-.04.06-.1.08-.19l.08-.57h-1.59Z"/>
          <path class="cls-1" d="M60.94,16.9c.21.2.52.31.94.31h.81l-.08-.57c0-.09-.04-.15-.08-.19-.04-.03-.1-.05-.18-.05h-.3c-.15,0-.26-.04-.32-.11s-.1-.17-.1-.29v-1.34h.62c.09,0,.15-.02.18-.05.04-.04.06-.1.08-.19l.08-.56h-.96v-.87l-.78.22c-.09.03-.15.06-.18.09-.02.02-.04.08-.04.19v.37h-.23c-.09,0-.15.02-.18.05-.04.04-.06.1-.07.19l-.08.57h.56v1.35c0,.39.1.7.31.9v-.02Z"/>
          <path class="cls-1" d="M48.01,16.9c.21.2.52.31.94.31h.81l-.08-.57c0-.09-.04-.15-.08-.19-.04-.03-.1-.05-.18-.05h-.3c-.15,0-.26-.04-.32-.11s-.1-.17-.1-.29v-1.34h.62c.09,0,.15-.02.18-.05.04-.04.06-.1.08-.19l.08-.56h-.96v-.87l-.78.22c-.09.03-.15.06-.18.09-.02.02-.04.08-.04.19v.37h-.23c-.09,0-.15.02-.18.05-.04.04-.06.1-.07.19l-.08.57h.56v1.35c0,.39.1.7.31.9v-.02Z"/>
          <g>
            <path class="cls-1" d="M63.22,14.05v3.14h1v-3.29h-.85c-.08,0-.15.07-.15.15Z"/>
            <path class="cls-1" d="M63.36,12.57c-.08,0-.14.06-.14.14v.64h1v-.78s-.86,0-.86,0Z"/>
          </g>
        </g>
        <g>
          <path class="cls-1" d="M36.94,23.11l-1.81-4.07c-.07-.15-.17-.21-.32-.21h-.47c-.15,0-.26.06-.32.21l-1.82,4.09s.02.12.08.12h.71c.17,0,.29-.08.34-.21l.26-.61h1.41l.26-.77h-1.37l.68-1.75h.04l1.24,3.13c.05.14.17.21.34.21h.69c.07,0,.11-.07.08-.13h-.02Z"/>
          <path class="cls-1" d="M38.3,23.31h.32c.19,0,.35-.03.48-.1.13-.06.23-.16.29-.28v-.03h.11l.06.2c.02.06.04.1.07.12.02.01.07.03.17.03h.6v-3.29h-.84c-.09,0-.16.07-.16.16v1.88c0,.18-.04.31-.11.39-.08.08-.21.12-.4.12h-.17c-.19,0-.33-.04-.41-.12-.08-.08-.12-.21-.12-.39v-2.04h-.85c-.08,0-.15.07-.15.15v1.93c0,.42.09.74.27.96.18.21.45.32.82.32h.02Z"/>
          <g>
            <path class="cls-1" d="M54.61,20.1v3.14h1v-3.29h-.85c-.08,0-.15.07-.15.15Z"/>
            <path class="cls-1" d="M54.75,18.62c-.08,0-.14.06-.14.14v.64h1v-.78s-.86,0-.86,0Z"/>
          </g>
          <path class="cls-1" d="M50.92,20.15c-.22-.21-.55-.32-.99-.32h-.78c-.44,0-.78.11-1,.32s-.33.53-.33.95v.86c0,.42.11.74.33.96s.55.32,1,.32h.78c.44,0,.78-.11.99-.32.22-.22.33-.54.33-.96v-.86c0-.42-.11-.74-.33-.95ZM50.29,21.9c0,.19-.04.32-.13.4s-.23.12-.43.12h-.38c-.2,0-.34-.04-.43-.12s-.14-.22-.14-.4v-.73c0-.19.05-.32.14-.4s.23-.12.43-.12h.38c.2,0,.35.04.43.12.09.08.13.21.13.4v.73Z"/>
          <path class="cls-1" d="M56.98,22.94c.21.2.52.31.94.31h.81l-.08-.57c0-.09-.04-.15-.08-.19-.04-.03-.1-.05-.18-.05h-.3c-.15,0-.26-.04-.32-.11s-.1-.17-.1-.29v-1.34h.62c.09,0,.15-.02.18-.05.04-.04.06-.1.08-.19l.08-.56h-.96v-.87l-.78.22c-.09.03-.15.06-.18.09-.02.02-.04.08-.04.19v.37h-.23c-.09,0-.15.02-.18.05-.04.04-.06.1-.07.19l-.08.57h.56v1.35c0,.39.1.7.31.9v-.02Z"/>
          <path class="cls-1" d="M41.76,22.94c.21.2.52.31.94.31h.81l-.08-.57c0-.09-.04-.15-.08-.19-.04-.03-.1-.05-.18-.05h-.3c-.15,0-.26-.04-.32-.11s-.1-.17-.1-.29v-1.34h.62c.09,0,.15-.02.18-.05.04-.04.06-.1.08-.19l.08-.56h-.96v-.87l-.78.22c-.09.03-.15.06-.18.09-.02.02-.04.08-.04.19v.37h-.23c-.09,0-.15.02-.18.05-.04.04-.06.1-.07.19l-.08.57h.56v1.35c0,.39.1.7.31.9v-.02Z"/>
          <path class="cls-1" d="M45.56,20.7h.17c.19,0,.32.04.4.12s.12.21.12.39v2.04h1v-2.15c0-.81-.34-1.2-1.04-1.2h-.35c-.33,0-.56.1-.7.31v.02h-.12v-1.47h-.93s-.07.03-.07.07v4.43h1v-2.04c0-.18.04-.31.12-.39.08-.08.21-.12.41-.12h0Z"/>
          <path class="cls-1" d="M53.35,20.78h.41c.09,0,.15-.02.18-.05.04-.04.06-.1.07-.19l.09-.65h-.62c-.18,0-.31.03-.4.08s-.15.15-.21.3v.03h-.11l-.06-.21c-.02-.06-.04-.1-.07-.12-.02-.01-.07-.03-.17-.03h-.6v3.29h1v-1.95c0-.17.04-.3.12-.38.08-.08.2-.13.37-.13h0Z"/>
          <path class="cls-1" d="M60.46,24.35c.14-.03.26-.08.37-.16s.21-.19.29-.33c.09-.14.18-.32.28-.54l1.51-3.44h-.83s-.1,0-.13.01c-.03,0-.06.02-.09.03-.02.02-.04.04-.06.06-.02.03-.04.07-.06.12l-.66,1.55-.16.56h-.11l-.15-.57-.6-1.54c-.04-.09-.08-.16-.12-.19-.05-.03-.12-.05-.23-.05h-.8l1.18,2.91c.04.1.08.17.12.2.04.03.11.05.2.05h.08l-.14.3c-.04.09-.1.16-.16.19-.06.04-.15.05-.25.05h-.49c-.09,0-.15.02-.18.05-.04.04-.06.1-.08.19l-.08.57h.83c.21,0,.38-.02.53-.05v.03Z"/>
        </g>
      </g>
    </g>
  </g>
</svg>