<?xml version="1.0" encoding="UTF-8"?>
<!-- Generator: Adobe Illustrator 16.0.0, SVG Export Plug-In . SVG Version: 6.00 Build 0)  -->
<!DOCTYPE svg PUBLIC "-//W3C//DTD SVG 1.1//EN" "http://www.w3.org/Graphics/SVG/1.1/DTD/svg11.dtd">
<svg version="1.1" id="Layer_1" xmlns="http://www.w3.org/2000/svg" xmlns:xlink="http://www.w3.org/1999/xlink" x="0px" y="0px" width="220.75px" height="73.25px" viewBox="0 0 220.75 73.25" enable-background="new 0 0 220.75 73.25" xml:space="preserve">
<g>
	<path fill="#414042" d="M65.29,5.391c0.036,0.244-0.333,0.082-0.357,0.267c0.208,0.268,0.431,0.515,0.892,0.534   c0.223-0.104-0.181-0.339,0.089-0.447c0.271-0.001,0.084,0.45,0.356,0.447c0.062-0.273-0.092-0.534-0.092-0.534   s-0.685-0.613-1.335-0.623C64.757,5.389,65.341,5.07,65.29,5.391z M63.777,8.68c0.313,0.749,0.181,1.908-0.18,2.498   c0.451,0.179,0.875,0.329,1.245,0.533c0.39,0.207,0.681,0.545,1.157,0.622c0.135-0.965,0.687-1.512,1.25-2.044   c0.2-0.125,0.554-0.099,0.533-0.448c-0.275,0.003-0.489,0.191-0.798,0.178C66.39,9.993,66.078,9.59,66.09,9.041   c0.758,0.074,0.919-0.445,1.065-0.979c-0.278,0.042-0.388,0.259-0.712,0.267c-0.212-0.262-0.612-0.334-0.796-0.622   c-0.105-0.235,0.275-0.383-0.091-0.358c-0.391,0.405-0.271,1.16,0,1.602c-0.44,0.233-0.907,0.47-1.426,0.178   C63.994,9,64.06,8.663,63.777,8.68z M64.757,9.484c0.225-0.213,0.735-0.151,0.891-0.443c0.142-0.026,0.151,0.084,0.266,0.087   c0.055,0.447,0.337,0.69,0.264,1.16c-0.079,0.545-0.852,1.122-1.153,1.069C64.367,11.237,64.374,10.115,64.757,9.484z    M15.974,6.371c0.29-0.027,0.186,0.344,0.443,0.354c0.185-0.257,0.55-0.342,0.625-0.711c-0.166-0.086-0.298,0.264-0.356,0V5.658   c0.168-0.04,0.536,0.123,0.444-0.181c-0.38,0.081-0.696-0.003-0.977,0.091c-0.229,0.076-0.362,0.497-0.714,0.354   c0.169,0.44,0.279,0.44,0.266,0.979C16.097,7.029,15.706,6.371,15.974,6.371z M68.673,4.859c-0.022,0,1.066,0.505,1.6,0.799   C70.129,5.157,69.305,4.872,68.673,4.859z M74.367,35.568c-0.53-0.422-1.027-0.875-1.332-1.514c-0.35-0.237-0.71-0.423-1.161-0.626   c-0.4-0.176-1.035-0.317-1.332-0.533c0.004,0-0.18-0.089-0.18-0.089c-0.113-0.133-0.034-0.488-0.357-0.445   c0.152,1.016,0.937,1.174,1.694,1.509c0.259,0.117,0.483,0.273,0.624,0.361c0.067,0.041,0.202,0.031,0.268,0.089   c0.082,0.067,0.088,0.242,0.179,0.355c0.09,0.113,0.199,0.185,0.267,0.27c0.335,0.399,0.611,0.615,0.98,0.887   c0.411,0.005,0.871-0.041,1.157,0.092C75.042,35.467,74.809,35.653,74.367,35.568z M67.337,19.1   c-0.076,0.157-0.313,0.16-0.445,0.263c-1.936-0.269-2.438,0.888-4.274,0.715c-0.013,0.195,0.313,0.129,0.445,0.179   c1.084,0.329,2.412-0.174,3.294-0.179c0.491-0.123,0.761-0.303,1.065-0.715C67.413,19.259,67.438,19.112,67.337,19.1z    M19.002,8.595c0.009,0.27-0.139,0.711,0.176,0.889C19.06,8.82,19.41,8.238,19.354,7.706c-0.03-0.335-0.25-0.749-0.352-0.893   c-0.189-0.261-0.273-0.68-0.537-0.799c-0.009,0.407,0.319,0.597,0.443,1.065C19.031,7.549,18.984,8.08,19.002,8.595z    M81.581,58.179c-0.079-0.093-0.542-0.607-0.626-0.709c-0.078-0.108-0.458-0.681-0.53-0.806c-0.152-0.27-0.335-0.612-0.269-0.887   c0.1-0.408,0.577-0.436,0.799-0.719c0.257-0.598-0.078-1.776-0.267-2.047c-0.055-0.08-0.404-0.335-0.444-0.355   c-0.085-0.057-2.239-2.331-2.402-3.294c0.299-0.387,0.949-0.417,1.071-0.977c-0.054-0.459-0.295-0.392-0.356-0.803   c-0.081-0.558,0.218-1.085,0.356-1.423c0.198-0.499,0.234-1.036,0.083-1.692c0.342,0.018,0.342,0.376,0.715,0.358   c-0.288-0.462-0.373-0.974-0.623-1.426c-0.195-0.343-0.608-0.601-0.62-1.069c0.322-0.106,0.594,0.83,0.71,0.36   c-0.303-0.846-0.912-1.637-1.336-2.227c-0.172-0.239-0.416-0.518-0.446-0.538c-0.302-0.255-0.574-0.541-0.708-0.889   c0.239-0.084,0.424-0.224,0.444-0.53c-0.141-0.52-0.017-0.775,0.085-1.25c-0.189-0.384-0.492,0.204-0.617-0.177   c0.3-0.266,0.918-0.483,0.617-1.065c-0.236-0.049-1.125-0.008-1.066-0.627c1.098,0.548,2.787,0.312,3.203-0.626   c0.019-0.031,0.22-0.513,0.267-0.708c0.06-0.23,0.15-0.427,0.181-0.626c0.151-1.036,0-1.51-0.269-2.313   c-0.064-0.188-0.356-1.076-0.444-1.244c-0.063-0.128-0.402-0.559-0.446-0.625c-0.104-0.177-0.401-0.568-0.443-0.623   c-0.529-0.752-1.152-1.437-1.691-2.136c-0.958-1.233-1.84-2.456-1.958-4.01c-0.031-0.385,0.021-0.705,0.084-0.886   c0.104-0.25,0.244-0.559,0.27-0.8c0.097-0.719-0.085-1.644-0.176-2.048c-0.2-0.896-0.317-0.934-0.892-1.426   c0.038-0.425-0.065-0.709-0.268-0.886c-0.58,0.737-1.385,1.842-1.693,2.847c-0.142,0.479-0.183,1.453-0.175,1.606   c0.097,1.724,1.178,1.789,1.244,2.133c-0.072,0.937,0.11,1.42,0.359,2.047c0.423,1.068,1.027,1.817,1.695,2.581   c0.113,0.13,0.233,0.23,0.348,0.357c0.103,0.106,0.414,0.569,0.448,0.622c0.182,0.308,0.5,0.599,0.626,0.799   c0.049,0.082,0.354,0.489,0.442,0.624c0.061,0.089,0.216,0.373,0.269,0.443c0.411,0.615,1.588,3.295-0.089,3.209   c-0.432-0.025-0.852-0.598-1.067-0.981c-0.196-0.336-0.283-0.749-0.452-1.158c-0.072-0.183-0.194-0.344-0.264-0.531   c-0.256-0.698-0.467-1.233-0.802-1.783c-0.227-0.369-1.022-1.359-1.066-1.423c-0.1-0.148-0.212-0.271-0.27-0.355   c-0.054-0.081-0.275-0.526-0.354-0.623c-0.411-0.508-0.915-0.853-1.246-1.427c-0.087-0.147-0.182-0.354-0.269-0.533   c-0.092-0.204-0.209-0.44-0.271-0.623c-0.127-0.402-0.097-0.853-0.173-1.336c-0.088-0.522-0.291-1.081-0.359-1.604   c-0.083-0.631-0.016-1.299-0.089-1.959c-0.025-0.222-0.145-0.479-0.172-0.71c-0.036-0.214,0.022-0.402,0-0.622   c-0.044-0.318-0.196-0.64-0.27-0.979c-0.095-0.408-0.085-0.865-0.178-1.156c-0.013-0.032-0.922-2.939-0.802-3.294   c0.263,0.096,0.263,0.449,0.714,0.356c-0.06-0.681,0.122-1.126,0.442-1.427c0.316,0.056,0.596,0.155,0.888,0   c-0.142-0.511-0.5-0.994-0.173-1.511c0.322-0.067,0.492,0.223,0.712,0c0.122-0.301-0.146-0.534-0.182-0.89   c-0.058-0.693,0.258-1.466,0.182-2.228c0.305-0.375,0.698-0.661,0.616-1.423c-0.519,0.195-0.719-0.295-1.329-0.269   c-0.382-0.337-0.9-0.609-1.248-1.065c-0.637-0.849-2.325-1.079-2.494-0.8c-0.324-0.425-1.191-0.552-1.866-0.358   c-0.325-0.379-1.058-0.598-1.425-0.443c-0.05,0.573-0.393,0.853-0.354,1.512c-0.94,0.131-1.041,1.1-1.874,1.336   c-0.019,0.374,0.338,0.372,0.357,0.714c-0.124,0.257-0.432,0.338-0.445,0.708c-0.069,0.658-0.233,1.042-0.444,1.425   c0.224,0.044,0.408,0.126,0.533,0.265c-0.154,0.304-0.618-0.271-0.623,0.177c0.068,0.204,0.453,0.445,0.893,0.539   c0.025,0.47-0.624,0.268-0.624,0.708c0.016,0.282,0.608,0.256,0.354,0.536c-0.338,0.235-0.591,0.11-1.065,0.091   c-0.036,0.329,0.359,0.229,0.266,0.624c-0.295,0.179-0.882,1.426-1.071,1.689c-0.743,0.191-1.555,0.178-2.401,0.482   c-0.798,0.292-1.648,0.691-2.494,0.808c-0.264,0.032-0.649-0.022-0.978,0c-0.419,0.021-0.916,0.158-1.339,0.087   c-0.158-0.027-0.32-0.174-0.531-0.269c-0.519-0.23-1.124-0.535-1.781-0.535c-0.663,0-1.248,0.194-1.514,0.448   c-0.307,0.294-0.736,1.204-0.792,1.284h-13.37c-0.084-0.098-0.88-1.255-0.916-1.277c-0.313-0.179-0.657-0.311-1.095-0.242   c-0.117,0.022-0.658,0.289-0.774,0.333c-0.233,0.085-0.35,0.197-0.625,0.232c-0.441,0.057-0.795-0.013-1.334-0.035   c-0.675-0.031-1.04-0.288-1.66-0.155c-1.105,0.227-2.484-0.172-2.879-0.308c-0.203-0.067-1.1-0.1-1.209-0.407   c0.117-0.494,0.01-0.708,0-1.245c-0.21-0.198-0.297,0.229-0.717,0.086c-0.285-0.214-0.547-0.456-0.626-0.892   c0.079-0.365,0.479-0.444,0.539-0.887c0.053-0.382-0.137-0.695-0.265-1.069c-0.467,0.177-1.163,0.028-1.243-0.444   c0.571-0.376,0.936-0.957,0.797-2.05c-0.322-0.083-0.075,0.402-0.356,0.357c-0.979-0.207-1.357-1.014-1.96-1.601   c-0.254-0.131-0.525-0.241-0.711-0.443c0.311-0.462,0.149-1.351,0-1.874c-0.772-0.051-1.249-0.063-1.864,0.18   c-0.357-0.118-0.684-0.291-1.073-0.354c-0.174-0.032-0.409,0.11-0.623,0.087c-0.017-0.002-0.232-0.169-0.271-0.179   c-0.559-0.125-0.808,0.179-1.151,0.265c-0.321,0.083-0.535,0.012-0.805,0.093c-0.349,0.304-0.634,0.667-1.242,0.711   c-0.299,0.238-0.397,0.648-0.713,0.98c-0.115,0.116-0.234,0.1-0.574,0.442c-0.43,0.427-0.287,0.937-0.407,1.069   c-0.373,0.043-0.205,0.403-0.357,0.623C10.229,7.37,9.773,7.671,9.653,7.793C9.498,7.94,9.452,8.152,9.385,8.328   C9.582,8.783,10,9.017,10.189,9.484c0.104,0.133,0.371,0.105,0.354,0.356c-0.061,0.77,0.039,2.35-0.086,2.405   c-0.07,0.14-0.435-0.024-0.356,0.266c0.202,0.272,0.547,0.294,0.892,0.269c0.371-0.028,0.605-0.437,0.8-0.269   c0.023,0.501,0.016,0.969-0.181,1.249c-0.315,0.236-0.633-0.024-0.799,0.264c0.358,0.139,0.67,0.588,1.154,0.624   c0.333,0.025,0.53-0.082,0.893-0.175c0.078,0.456,0.286,0.762,0.176,1.155c-0.135,0.5-0.645,0.38-0.799,0.803   c0.484,0.135,0.794,0.448,1.515,0.352c0.276,0.534,0.332,1.24,0.445,1.87c0.017,0.106,0.146,0.662,0.174,0.8   c0.024,0.119,0.149,0.659,0.18,0.807c0.057,0.265,0.256,0.872,0.267,0.976c0.036,0.303,0,0.961,0,1.067   c0,0.091-0.032,0.688-0.089,1.066c-0.12,0.777-0.45,1.509-0.532,1.695c-0.022,0.043-0.2,0.403-0.268,0.533   c-0.094,0.169-1.438,1.957-1.872,2.49c-0.316,0.394-0.667,0.827-0.891,1.159c-0.229,0.343-0.388,0.731-0.532,1.07   c-0.147,0.341-0.19,0.543-0.269,0.89c-0.005,0.031-0.183,0.768-0.265,0.978c-0.128,0.342-0.627,1.101-0.804,1.245   c-0.369,0.309-1.051,0.466-1.249-0.087c1.212-0.124,1.638-1.035,1.962-2.047c-0.313-0.101-0.655,0.225-1.066,0.178   c-1.238-0.126-0.725-0.892-0.271-1.779c0.229-0.446,0.444-0.85,0.624-1.156c0.026-0.046,0.156-0.234,0.179-0.267   c0.052-0.091,0.412-0.629,0.534-0.802c0.268-0.385,0.486-0.724,0.712-1.07c0.107-0.163,0.241-0.348,0.357-0.533   c0.025-0.045,0.155-0.233,0.175-0.268c0.062-0.1,0.308-0.464,0.356-0.533c0.074-0.109,0.227-0.526,0.269-0.62   c0.048-0.118,0.488-1.181,0.621-1.605c0.415-1.3,0.537-3.074,0.091-4.275c-0.15-0.397-0.219-0.534-0.444-0.801   c-0.408-0.483-0.756-0.608-1.515-0.446c-0.644,0.139-1.75,0.893-1.869,0.981c-0.699,0.51-1.457,1.77-1.511,1.872   c-0.639,1.071-1.136,2.296-1.518,3.467c-0.136,0.427-0.231,0.801-0.357,1.158c-0.136,0.41-0.473,3.744-1.867,5.789   c-0.159,0.233-0.299,0.318-0.446,0.531c-0.101,0.154-0.205,0.267-0.268,0.356c-0.078,0.116-0.488,0.696-0.533,0.8   c-0.242,0.533-0.381,1.542-0.266,1.961c0.111,0.411,0.351,0.984,0.71,1.244c0.164-0.479,0.003-2.172,1.336-2.4   c-0.173,0.598-0.696,1.272-0.533,2.222c0.021,0.122,0.354,1.243,0.8,1.156c-0.076-0.696,0.136-1.185,0.356-1.422   c0.064-0.073,0.229-0.314,0.265-0.356c0.03-0.033,0.159-0.149,0.179-0.177c0.211-0.276,0.267-0.598,0.534-0.8   c0.064,0.203,0.298,0.235,0.359,0.445c-0.107,0.214-0.4,0.419-0.537,0.532c-0.063,0.055-0.799,0.696-0.799,1.604   c0,0.548,0.214,1.262,0.626,1.421c0.122-0.675,0.748-1.241,0.748-1.241s0.866-0.605,1.029-0.446   c0.005,0.417-0.97,1.315-1.067,1.687c-0.131,0.487-0.069,1.224,0.18,1.423c0.414-1.009,1.578-1.483,2.313-2.044   c0.161-0.126,0.255-0.359,0.356-0.54c0.227-0.396,0.22-0.783,0.443-1.243c0.409,0.083,1.107-0.266,1.516-1.066   c0.072-0.143,0.183-0.446,0.268-0.361c0.08,1.038,0.278,2.182,0.085,3.209c-0.146,0.79-0.575,1.442-1.155,1.872   c-0.284,0.206-1.633,0.472-1.779,0.62c0.015,0.332,0.344,0.516,0.534,0.715c0.202,0.208,0.402,0.424,0.621,0.621   c-0.272,0.493-1.859,0.908-2.132,0.884c0,0.74,0.738,0.74,1.067,1.163c-0.495,0.512-0.92,1.099-1.872,1.155   c0.142,0.511,0.792,1.246,1.514,1.246c-0.193,0.433-0.042,1.21-0.088,1.783c0.229,0.421,0.689,0.615,0.709,1.246   c-0.301,0.306-0.627,0.688-0.799,0.977c-0.11,0.189-1.072,2.133-1.6,2.848c-0.266,0.361-1.049,1.395-1.072,1.427   c-0.513,0.745-0.733,1.705-0.354,2.758c-0.848,1.58-2.027,2.292-2.048,2.672c1.184,0.201,3.388-0.893,3.562-1.067   c0.177-0.175,0.298-0.49,0.534-0.268c0.5,0.208,0.74,0.76,1.069,1.158c0.348,0.426,0.727,0.82,1.07,1.243   c0.679,0.854,1.317,1.763,1.956,2.673c0.521,0.743,3.663,5.675,3.917,8.724c0.45-0.181,0.472-0.796,0.624-1.336   c0.296-1.094,0.516-2.68,0.357-4.095c-0.018-0.134-0.141-0.802-0.183-0.979c-0.066-0.327-0.269-0.595-0.264-0.888   c0.237,0.022,0.372,0.238,0.534,0.354c0.399,0.282,0.782,0.51,1.159,0.711c0.203,0.112,0.893,0.407,0.977,0.447   c0.327,0.141,0.678,0.281,0.982,0.445c0.4,0.217,2.33,1.611,2.845,2.138c0.157-1.348-0.637-2.211-0.533-3.208   c0,0,5.787,3.667,20.924,3.667c15.149,0,22.163-3.935,22.163-3.935s-0.514,1.169-0.711,1.872c-0.072,0.237-0.22,0.482-0.267,0.71   c-0.044,0.186-0.275,0.997-0.182,1.246c0.246-0.056,0.451-0.267,0.536-0.353c0.057-0.064,0.701-0.873,0.885-1.071   c0.209-0.206,0.481-0.493,0.627-0.625c0.03-0.025,0.145-0.143,0.179-0.177c0.116-0.108,0.494-0.404,0.53-0.449   c0.206-0.182,0.427-0.234,0.624-0.356c0.277-0.155,0.579-0.294,0.89-0.438c0.59-0.271,1.199-0.598,1.87-0.806   c-0.318,1.313-0.726,3.298-0.531,4.988c0.012,0.112,0.055,0.297,0.087,0.447c0.082,0.376,0.185,0.511,0.27,0.709   c0.163,0.404,0.125,1.043,0.533,1.07c0.727-2.954,2.048-5.451,3.473-7.745c0.215-0.347,0.549-0.724,0.707-0.98   c0.052-0.079,1.118-1.584,1.338-1.869c0.36-0.463,0.721-1.011,0.981-1.425c0.146-0.239,1.424-1.826,1.869-2.045   c0.981,0.735,2.084,1.359,3.917,1.241C82.177,58.494,81.746,58.376,81.581,58.179z M79.352,31.631   c0.505,0.895-0.246,1.891-1.07,1.445c-0.023-0.214-0.139-0.746-0.084-1.036C78.75,32.059,79.136,31.951,79.352,31.631z    M72.052,20.964c-0.277-1.477,0.669-2.914,1.249-3.914c0.085-0.083,0.003-0.083,0.181,0.087c0.431,0.436-0.914,2.324-0.09,4.097   c0.114-1.106,1.108-2.063,0.53-3.292c0.383-0.143,0.342,0.302,0.445,0.531c0.087,0.191,0.242,0.422,0.266,0.626   c0.134,0.859-0.087,2.025-0.266,2.667c-0.427,0.285-0.87,0.552-1.425,0.71C72.49,22.077,72.162,21.559,72.052,20.964z    M73.392,24.083c-0.182-0.267-0.052-0.84-0.091-1.244c0.313-0.219,0.414-0.655,0.978-0.626c0.13,0.41,0.138,0.934,0.179,1.424   C74.112,23.766,73.715,24.219,73.392,24.083z M74.279,26.309c-0.106-0.396-0.379-0.625-0.533-0.979   c-0.029-0.186-0.094-0.383-0.052-0.498c0.018-0.05,0.023-0.301,0.069-0.374c0.045-0.077,0.801-0.356,0.801-0.356   c0.081,0.328,0.445,0.701,0.432,1.051c-0.009,0.149-0.087,0.161-0.179,0.353C74.718,25.706,74.592,26.282,74.279,26.309z    M75.614,27.827c-0.787-0.153-0.952-1.455-0.354-2.052c0.57,0.022,0.831,0.842,1.137,1.134   C76.214,27.292,75.862,27.504,75.614,27.827z M76.419,28.893c-0.756-0.302-0.254-1.403,0.267-1.425   c0.307-0.015,0.576,0.424,0.708,0.711C76.668,28.178,76.659,28.773,76.419,28.893z M76.95,29.601c-0.006-0.79,1.372-1.053,1.517,0   c-0.516,0.022-0.704,0.366-0.896,0.715C77.343,30.259,76.958,29.887,76.95,29.601z M77.84,31.384   c-0.056-0.101-0.016-0.164-0.087-0.178c0.154-0.527,0.518-0.847,0.887-1.16C79.569,30.973,78.693,31.803,77.84,31.384z    M78.109,33.519c0.36,0.34,0.694,0.352,1.334,0.268c-0.141,0.718-0.508,1.217-1.162,1.423   C77.908,34.865,77.444,33.897,78.109,33.519z M5.467,58.086c-0.127,0.075-0.285,0.185-0.442,0.265   c-0.383,0.201-0.896,0.429-1.6,0.446c0-0.027,1.366-1.745,1.687-2.313c0.355,0.354,0.984,0.446,1.159,0.985   C6.199,57.829,5.75,57.924,5.467,58.086z M48.999,14.067c0.245-0.154,0.337-0.129,0.979-0.179c0.252-0.02,0.496-0.112,0.709-0.087   c0.391,0.04,0.724,0.297,1.075,0.443c0.236,0.097,0.312,0.198,0.909,0.346c0.606,0.157,1.063-0.088,1.644-0.088   c0.583,0,1.048-0.16,1.567-0.258c0.033,0.07,0.835-0.162,2.088-0.695l0.767,0.03c0.038,0.609-0.313,0.995-0.26,1.521   c0.052,0.49,0.42,0.81,0.411,1.323c0.497-0.063,0.021-0.664,0.176-0.886c0.185-0.178,0.394,0.132,0.617,0.176   c-0.273,0.499-0.389,1.152-0.442,1.873c0.29,0.281,0.18-0.344,0.533-0.27c0.112,0.24,0.141,0.432,0.091,0.626   c-0.031,0.098-0.308,0.262-0.358,0.355c-0.181,0.296-0.398,0.598-0.619,0.802c-0.363-0.145-0.533-0.479-0.539-0.983   c-0.121,0.061-0.165,0.214-0.249,0.328v-3.273H50.79l0,0h-2.132c-0.183-0.03-0.152-0.413-0.194-0.572   C48.327,14.245,48.767,14.205,48.999,14.067z M59.503,18.83c0.085,0.521-0.363,1.226-0.712,1.603   c0.162,0.346,0.446,0.564,0.531,0.98c0.078,0.19,0.395,0.142,0.539,0.27c-0.041,0.52-0.363,0.764-0.716,0.977   c-0.114,0.441-0.39,0.733-0.621,1.069h-0.427V18.83h0.161c0.168,0.276,0.378,0.517,0.627,0.712   C59.177,19.394,59.099,18.869,59.503,18.83z M57.059,16.208v7.428h-0.012c-0.151,0-0.74-0.023-0.909,0.146   c-0.094,0.094-0.296,0.136-0.485,0.18v-7.754H57.059z M54.465,26.771c0,0,0.283-0.213,0.4-0.333   c0.12-0.121,0.188-0.042,0.188-0.042s0.182,0.326,0.052,0.63c-0.127,0.301-0.11,0.669,0.208,0.986l0.098,0.174v15.374   c-0.342,0.56-0.711,1.115-1.097,1.642V16.208h1.097v7.841c-0.046,0.015-0.085,0.036-0.114,0.066   c-0.166,0.168-0.461,0.907-0.572,1.018c-0.113,0.112-0.337,0.78-0.337,1.197L54.465,26.771z M54.073,16.208V45.54   c-0.363,0.492-0.737,0.961-1.091,1.396V16.208H54.073z M51.647,34.865V16.208h1.087v31.023c-0.395,0.473-0.768,0.894-1.087,1.244   V37.712c0.068-0.476,0.101-0.961,0.101-1.462C51.748,35.827,51.715,35.371,51.647,34.865z M42.181,46.061   c-5.151,0-9.335-4.4-9.335-9.811c0-0.253,0.011-0.517,0.037-0.795c0.457,1.655,1.519,3.162,3.036,4.292   c1.737,1.29,3.96,1.998,6.262,1.998c2.299,0,4.522-0.708,6.258-1.998c1.521-1.13,2.582-2.637,3.042-4.292   c0.024,0.278,0.038,0.542,0.038,0.795C51.519,41.66,47.327,46.061,42.181,46.061z M51.401,38.921v9.813   c-0.345,0.361-0.606,0.618-0.73,0.729c-0.121,0.106-0.243,0.212-0.365,0.313v-8.239C50.779,40.735,51.158,39.854,51.401,38.921z    M50.066,41.93v8.057c-0.375,0.319-0.74,0.625-1.095,0.913v-7.583C49.372,42.89,49.742,42.425,50.066,41.93z M48.726,43.562V51.1   c-0.373,0.302-0.736,0.586-1.09,0.859v-7.468C48.021,44.211,48.388,43.9,48.726,43.562z M47.391,44.663v7.481   c-0.378,0.286-0.745,0.556-1.093,0.803v-7.637C46.677,45.124,47.041,44.899,47.391,44.663z M46.053,45.425v7.696   c-0.382,0.274-0.751,0.524-1.09,0.75v-8.015C45.34,45.739,45.702,45.591,46.053,45.425z M44.72,45.93v8.102   c-0.403,0.265-0.772,0.493-1.095,0.68v-8.534C43.999,46.114,44.362,46.032,44.72,45.93z M43.386,46.209v8.646   c-0.488,0.282-0.854,0.474-1.095,0.58v-9.149C42.662,46.285,43.025,46.255,43.386,46.209z M42.047,46.286v9.149   c-0.241-0.106-0.609-0.298-1.091-0.58v-8.649C41.313,46.255,41.676,46.28,42.047,46.286z M40.71,46.172v8.539   c-0.32-0.187-0.689-0.415-1.093-0.68v-8.109C39.974,46.025,40.337,46.111,40.71,46.172z M39.375,45.85v8.021   c-0.339-0.226-0.705-0.476-1.094-0.75v-7.705C38.636,45.582,38.998,45.73,39.375,45.85z M38.038,45.299v7.648   c-0.345-0.247-0.712-0.517-1.095-0.803v-7.498C37.295,44.887,37.659,45.107,38.038,45.299z M36.703,44.472v7.487   c-0.354-0.273-0.717-0.558-1.092-0.859v-7.563C35.951,43.876,36.316,44.19,36.703,44.472z M35.366,43.286v7.613   c-0.356-0.288-0.72-0.594-1.092-0.913v-8.094C34.596,42.393,34.964,42.86,35.366,43.286z M34.03,41.5v8.276   c-0.121-0.101-0.243-0.206-0.365-0.313c-0.125-0.111-0.382-0.368-0.728-0.729v-9.902C33.179,39.786,33.552,40.682,34.03,41.5z    M35.52,29.718l-0.657,2.076l-0.108,0.328l0.281-0.198l1.667-1.195v3.977l-0.797,0.003l-0.295,0.003v-3.201l-0.245,0.176v7.302   c-0.41-0.375-0.776-0.783-1.092-1.209v-8.98l1.092,0.802v0.599L35.52,29.718z M38.086,34.697l-1.144,0.005v-3.946l1.095,0.781v3.16   H38.086z M38.169,34.928l0.081-0.006l0.026-0.075l0.603-1.814l0.604,1.814l0.024,0.075l0.084,0.006l1.914,0.009l-1.54,1.135   l-0.066,0.05l0.022,0.076l0.58,1.83l-1.556-1.118l-0.067-0.048l-0.067,0.048l-1.552,1.118l0.576-1.83l0.026-0.076l-0.066-0.05   l-1.54-1.135L38.169,34.928z M38.754,31.794l-0.473-1.486v-0.726l-0.188,0.136l1.281-0.946v5.019l-0.386-1.162l-0.11-0.327   l-0.11,0.327l-0.488,1.471v-2.39l-0.185-0.13l0.481,0.345l0.281,0.198L38.754,31.794z M39.781,28.217h-0.163v-3.414l1.093,0.806   v0.643l-0.496,1.551l-0.105,0.331l0.283-0.196l0.318-0.229v6.993l-1.038-0.005l-0.055-0.173v-5.927l0.229-0.167l0.281-0.207   L39.781,28.217z M44.11,27.802l-0.485-1.52v-0.683l1.095-0.805v3.423h-0.182l-0.347,0.004l0.282,0.207l0.247,0.177v5.925   l0.035-0.104l-0.087,0.27l-1.043,0.005v-6.983l0.31,0.219l0.279,0.196L44.11,27.802z M44.748,34.928l0.085-0.006l0.027-0.075   l0.599-1.814l0.604,1.814l0.028,0.075l0.083,0.006l1.913,0.009l-1.542,1.135l-0.063,0.05l0.022,0.076l0.58,1.83l-1.556-1.118   l-0.07-0.048l-0.063,0.048l-1.556,1.118l0.578-1.83l0.023-0.076l-0.062-0.05l-1.541-1.135L44.748,34.928z M45.743,31.924   l0.311-0.227v2.392l-0.482-1.461l-0.112-0.327l-0.109,0.327l-0.387,1.171v-5.01l1.26,0.927l-0.658,2.078l-0.106,0.328   L45.743,31.924z M46.091,31.673l1.3-0.935v3.963l-1.132-0.005h0.04v-3.174L46.091,31.673z M48.726,31.527v3.185l-0.293-0.003   l-0.797-0.003v-3.964l1.259,0.905L48.726,31.527z M48.778,34.712l-0.052,0.037v4.471c-0.136,0.12-0.278,0.233-0.426,0.342   c-0.213,0.159-0.435,0.309-0.664,0.453v-4.458l0.861-0.64L48.778,34.712z M46.746,36.21l0.645-0.474v2.494l0.017,0.054   L46.746,36.21z M47.391,38.526v1.629c-0.35,0.202-0.717,0.383-1.093,0.543v-2.953l0.934,0.668L47.391,38.526z M46.144,37.636   l-0.091-0.064v3.223c-0.357,0.135-0.719,0.257-1.09,0.355v-3.649l0.496-0.354L46.144,37.636z M43.69,38.413l1.029-0.736v3.534   c-0.358,0.089-0.724,0.156-1.095,0.205v-2.955L43.69,38.413z M43.625,37.931v-2.124l0.545,0.403L43.625,37.931z M43.531,35.737   l-0.145-0.111v5.82c-0.361,0.041-0.728,0.061-1.095,0.067v-6.69l0.127,0.095L43.531,35.737z M43.496,34.702l-1.01,0.007   l-0.195,0.003v-7.957l-0.125-0.087l1.379,0.985l-0.159-0.114v7.162H43.496z M42.172,34.733l-0.125,0.092v6.688   c-0.37-0.007-0.731-0.026-1.091-0.067v-5.815l0.967-0.713L42.172,34.733z M42.047,34.712l-0.195-0.003l-0.927-0.007h0.031V27.53   l1.091-0.784V34.712z M40.827,38.284l-0.662-2.074l0.625-0.459l-0.08,0.059v2.109L40.827,38.284z M40.93,38.615l-0.22-0.16v2.956   c-0.371-0.05-0.737-0.115-1.093-0.205V37.67l1.031,0.743L40.93,38.615z M38.238,37.606l0.641-0.459l0.496,0.354v3.645   c-0.374-0.101-0.737-0.223-1.094-0.357v-3.214L38.238,37.606z M36.828,38.615l0.28-0.202l0.93-0.668v2.943   c-0.375-0.162-0.742-0.342-1.095-0.546V38.53L36.828,38.615z M36.942,38.241v-2.508l0.649,0.478L36.942,38.241z M35.561,34.712   l0.278,0.206l0.864,0.637V40c-0.221-0.14-0.436-0.285-0.644-0.438c-0.153-0.115-0.306-0.235-0.448-0.359V34.75L35.561,34.712z    M49.457,31.794l-0.485-1.535v-0.668l-0.173,0.125l1.268-0.927v9.017c-0.321,0.427-0.684,0.832-1.095,1.206v-7.314l0.313,0.227   l0.278,0.198L49.457,31.794z M50.297,28.217l-1.326-0.006V16.208h1.095v12.009H50.297z M50.484,28.217h-0.179V16.208h1.095v18.554   c-0.167,0.958-0.547,1.868-1.095,2.699v-8.855l0.247-0.177l0.279-0.207L50.484,28.217z M47.636,26.179v-9.971h1.09v12l-0.417-0.004   l-0.691-2.063L47.636,26.179z M48.115,28.354l0.026,0.082h0.08l1.917,0.009l-1.542,1.137l-0.068,0.048l0.025,0.081l0.581,1.824   l-1.555-1.115l-0.067-0.05l-0.064,0.05l-1.56,1.115l0.583-1.824l0.022-0.081l-0.062-0.048l-1.545-1.137l1.912-0.009h0.083   l0.028-0.082l0.604-1.811L48.115,28.354z M46.298,16.208h1.093v9.964l0.01-0.031l-0.688,2.063l-0.415,0.004V16.208z M44.963,24.23   v-8.022h1.09v12.003l-1.275,0.006h0.185v-3.6l-0.029,0.019l0.274-0.198l0.275-0.206h-0.347l-0.253-0.002H44.963z M43.625,16.208   h1.095v8.022l-1.095-0.007V16.208z M42.291,16.208h1.095v8.011l-0.429-0.002l-0.666-2.014V16.208z M40.956,16.208h1.091v5.966   l-0.682,2.042l-0.409,0.002V16.208z M39.618,16.208h1.093v8.015l-1.093,0.007V16.208z M41.453,24.446h0.083l0.023-0.075   l0.606-1.821l0.6,1.821l0.026,0.075h0.083l1.912,0.012l-1.542,1.136l-0.062,0.05l0.023,0.077l0.577,1.823l-1.551-1.113l-0.07-0.05   l-0.065,0.05l-1.558,1.113l0.581-1.823l0.023-0.077l-0.066-0.05l-1.542-1.136L41.453,24.446z M38.281,16.208h1.094v8.022   l-0.186,0.002h-0.346l0.279,0.206l0.253,0.186v3.593h0.164l-1.257-0.006V16.208z M36.942,16.208h1.095v12l-0.437-0.004   l-0.658-1.979V16.208z M37.41,28.354l0.025,0.082h0.081l1.916,0.009l-1.537,1.137l-0.071,0.048l0.026,0.081l0.579,1.824   l-1.556-1.115l-0.066-0.05l-0.067,0.05l-1.556,1.115l0.58-1.824l0.027-0.081l-0.068-0.048l-1.542-1.137l1.913-0.009h0.084   l0.023-0.082l0.607-1.811L37.41,28.354z M35.611,16.208h1.092v9.921L36.7,26.141l-0.69,2.063l-0.399,0.004V16.208z M34.274,28.217   V16.208h1.092v12.003l-1.33,0.006H34.274z M34.03,28.217h-0.196l-0.345,0.004l0.277,0.207l0.265,0.194v8.805   c-0.539-0.827-0.906-1.728-1.072-2.675h-0.021V16.208h1.093V28.217z M12.77,16.43c-0.016-0.196,0.533-0.523,0.569-0.77   c0.088-0.62-0.399-1.462-0.124-2.081c-0.314,0.073-0.25,0.522-0.445,0.71c-0.417,0.176-1.123,0.121-1.334-0.179   c-0.004-0.178,0.304-0.11,0.394-0.223c0.092-0.109,0.202-0.279,0.136-0.49c0.109-0.644,0.086-1.445-0.086-1.954   c-0.105,0.665-0.41,1.137-1.158,1.156c-0.223-0.222,0.102-0.35,0.09-0.62V9.928c0.043-0.219,0.166-0.363,0.268-0.532   c-0.607-0.037-1.217-0.483-1.07-0.977c0.46,0.008,1.038,0.061,1.513,0c-0.289-0.367-1.339-0.146-1.783-0.092   c0.021-0.516,0.357-0.713,0.803-0.804c0.084-0.513,0.19-0.995,0.622-1.153c-0.049-0.357-0.049-0.271,0-0.626   c0.263-0.245,0.432-0.574,0.891-0.62c0.263-0.483,0.506-0.98,1.247-0.981c0.292-0.097,0.285-0.484,0.531-0.622   c0.485-0.03,0.596,0.123,0.982,0c0.077-0.133,0.132-0.282,0.354-0.271c0.236-0.13,0.339,0.145,0.536,0.18   c0.065,0.012,0.276,0,0.276,0c0.09,0.003,0.603-0.053,0.795,0c0.228,0.061,0.472,0.167,0.71,0.356   c0.413-0.205,0.91-0.337,1.599-0.265c-0.223,0.486-0.584,0.831-0.976,1.157c0.385,0.173,0.739-0.445,0.892-0.799   c0.642,0.113,0.441,1.059,0.083,1.33c0.066,0.291,0.446,0.269,0.716,0.359c0.838,0.587,0.913,1.934,2.4,1.871   c0.014,0.677-0.546,1.11-1.155,0.888c0.126,0.677,0.578,1.214,0.98,1.423c0.402,0.207,0.89,0,0.89,0s0.149,0.65-0.273,1.07   c-0.217-0.011-0.423-0.011-0.529,0.09c0.559,0.509,0.388,1.75,1.602,1.6c0.117,0.924-0.63,1.358-1.422,1.249   c-0.324-0.046-0.501-0.337-0.805-0.361c0.075,0.381,0.438,0.461,0.626,0.713c-0.097,0.836,0.109,1.375,0.715,1.516   c-0.106,0.747-1.155,0.709-1.694,0.533c-0.022-0.008-0.375-0.107-0.711-0.447c-0.125-0.125-0.381-0.417-0.445-0.797   c-0.551,0.433,0.118,1.153,0.176,1.782c0.041,0.386,0.032,0.773-0.09,1.064c-0.061,0.149-0.277,0.425-0.442,0.445   c-0.288,0.017-0.215-0.317-0.358-0.445c-0.404-0.426-0.773-0.888-1.067-1.42c-0.094,0.47-0.09,2.41-0.978,2.487   c0.018-1.561-1.125-1.959-0.98-3.648c-0.422,0.208-0.061,0.745-0.086,1.065c-0.026,0.298-0.109,0.878-0.27,1.069   c-0.067,0.086-0.554,0.368-0.977,0.358c0.15-1.194-0.612-1.47-0.538-2.58c-0.31,0.045-0.129,0.579-0.174,0.887   C13.965,16.424,13.313,16.822,12.77,16.43z M14.195,16.43c0.453,0.046,0.333,0.674,0.354,1.156   C14.234,17.518,14.205,16.534,14.195,16.43z M5.917,31.741c-0.348,0.43-0.143,0.903-0.272,1.335   c-0.075,0.261-0.301,0.478-0.443,0.71c-0.082,0.135-0.084,0.236-0.177,0.357c-0.066,0.088-0.202,0.163-0.268,0.265   c-0.309,0.458-0.513,0.904-0.712,1.424c-0.344-0.313-0.167-0.707-0.18-1.157c0-0.089,0.056-0.537,0.094-0.622   c0.092-0.24,0.133-0.57,0.353-0.802c0.097-0.099,0.221-0.461,0.356-0.712c0.229-0.43,0.545-0.845,0.443-1.691   c-0.268,0.291-0.204,0.745-0.354,1.069c-0.15,0.321-0.477,0.464-0.533,0.8c-0.615,0.128-0.97,0.513-1.426,0.801   c-0.195,0.313-0.114,0.898-0.533,0.98c-0.33-1.298,0.355-2.333,0.976-3.115c0.364-0.455,0.796-0.978,1.163-1.605   c0.082-0.142,0.362-0.674,0.446-0.978c0.041-0.15,0.154-0.778,0.176-0.893c0.133-0.701,0.496-2.649,0.533-2.845   c0.047-0.24,0.372-1.26,0.447-1.51c0.24-0.799,0.583-1.567,0.979-2.318c0.044-0.089,0.439-0.712,0.535-0.89   c0.889-1.643,2.06-2.376,2.492-2.582c0.053-0.024,0.744-0.261,0.802-0.264c1.42-0.109,1.95,1.661,1.869,3.201   c-0.014,0.209-0.068,0.688-0.089,0.803c-0.13,0.762-0.652,2.253-0.712,2.401c-0.063,0.159-0.537,1.075-0.715,1.334   c-0.217,0.33-0.529,0.833-0.8,1.249c-0.042,0.063-0.236,0.316-0.265,0.357c-0.058,0.08-0.302,0.45-0.36,0.532   c-0.19,0.292-0.564,0.761-0.796,1.16c-0.041,0.065-0.561,1.023-0.623,1.156c-0.157,0.307-0.302,0.812-0.447,1.247   c-0.794-0.245-0.976-1.1-1.248-1.871c0.532-0.746,0.669-1.882,0.628-3.204c0.624,0.265,0.782,0.991,1.067,1.603   c0.087-0.546-0.127-0.984,0-1.692c0.044-0.269,0.263-0.695,0.338-1.331c0.077-0.647,0.033-1.084,0.106-1.427   c0.619,0.208,0.9,0.762,1.065,1.427c0.333-0.243-0.005-0.59,0-0.891c0.028-1.04,0.67-1.892,0.627-3.208   c0.556,0.189,0.85,0.893,0.889,1.338c0.339-0.255,0.321-1.022,0.266-1.605c-0.039-0.472-0.019-1.033-0.446-1.247   c-1.274-0.645-2.654,1.89-2.758,2.053c-0.588,0.903-1.177,1.971-1.513,3.286c-0.024,0.101-0.33,1.06-0.356,1.161   c-0.271,1.157-0.43,3.195,0,4.449c0.06,0.175,0.24,0.423,0.356,0.623c0.061,0.104,0.116,0.268,0.177,0.358   c0.023,0.03,0.148,0.234,0.182,0.268c0.16,0.187,0.992,1.051,2.222,0.62c0.184,0.815-0.685,1.171-1.337,1.428   c-0.277-0.021-0.651,0.058-0.798-0.091c-0.324,0.091-0.101,0.732-0.624,0.622c-0.077-1.333-0.554-1.744-0.799-2.936   C5.715,30.876,5.842,31.511,5.917,31.741z M10.1,20.791c-0.062,0.738-0.522,1.474-0.535,2.313   c-0.243,0.014-0.347-0.263-0.533-0.355c-0.257-0.126-0.602-0.06-0.802-0.271c-0.128,0.125-0.038,0.217,0,0.361   c0.069,0.308,0.223,0.828,0.177,1.331c-0.025,0.296-0.177,1.442-0.36,1.695c-0.464-0.07-0.639-0.427-1.064-0.535   c0.14-1.047,0.729-2.803,1.337-3.827c0.147-0.251,0.365-0.501,0.533-0.803c0.114-0.206,0.237-0.28,0.443-0.531   c0.087-0.11,0.481-0.582,0.533-0.626c0.187-0.162,0.601-0.537,1.069-0.357c0.649,0.256,0.446,1.514,0.446,1.514   c-0.409-0.302-0.589-0.835-1.245-0.891C9.93,20.14,10.128,20.405,10.1,20.791z M6.982,27.196c-0.061,0.438-0.074,1.029-0.445,1.073   l0.267-2.672C7.123,25.457,7.057,26.646,6.982,27.196z M6.004,32.271c0.214-0.067,0.158,0.153,0.267,0.269   c0.165,0.173,0.203,1.277,0.087,1.604C5.793,33.897,5.897,32.957,6.004,32.271z M8.138,47.053c0.04-0.382-0.111-0.681-0.091-0.982   c0.055-0.666,0.521-1.05,0.806-1.509c-0.354-0.188-0.379,0.395-0.806,0.44c-0.564,0.063-0.893-0.221-1.064-0.8   c1.083-0.104,1.235-1.14,2.137-1.424c-0.485-0.173-1.15-0.107-1.247-0.713c1.229-0.044,1.536-1.016,2.402-1.424   c-0.086-0.223-0.341,0.121-0.622,0c-0.276-0.292-0.67-0.461-0.801-0.889c1.071-0.142,2.484-1.127,2.583-2.762   c0.008-0.161,0.055-2.079,0-2.759c-0.016-0.178-0.102-0.374-0.091-0.533c0.038-0.586,0.278-1.045,0.535-1.428   c-0.471,0.009-0.528,0.57-0.715,0.889c-0.042,0.083-0.8,1.133-0.889,1.248c-0.103,0.131-0.37,0.403-0.446,0.446   c-0.154,0.092-0.467,0.294-0.886,0.267c-0.068,0.401-0.343,1.302-0.36,1.333c-0.158,0.36-0.646,0.711-1.065,0.98   c-0.3,0.191-0.615,0.332-0.893,0.625c-0.139,0.152-0.169,0.467-0.441,0.448c-0.102-1.556,1.499-1.881,1.334-3.209   c-0.36,0.022-0.436,0.368-0.713,0.535c-0.142,0.089-0.847,0.184-1.159,0.622c-0.113,0.159-0.227,0.552-0.534,0.626   c-0.183-0.936,0.026-1.989,0.806-2.581c0.084-0.063,0.275-0.043,0.353-0.091c0.244-0.142,0.434-0.474,0.712-0.446   c0.208-0.149,0.219-0.492,0.448-0.622c0.22-0.03,0.245,0.249,0.354,0.358c0.455,0.452,1.328,0.248,1.601,0   c0.269-0.24,0.522-0.528,0.715-0.981c0.104-0.254,0.15-0.438,0.265-0.8c0.039-0.126,0.236-1.244,0.447-1.602   c0.017-0.039,0.151-0.222,0.18-0.27c0.109-0.188,0.243-0.374,0.354-0.533c0.262-0.382,1.478-1.928,1.779-2.317   c0.061-0.078,0.232-0.31,0.269-0.352c0.213-0.263,1.064-1.314,1.423-2.675c0.166-0.626,0.428-1.692,0.354-2.756   c-0.075-1.152-0.492-2.268-0.621-3.296c0.655-0.263,1.522-0.314,1.69-1.066c0.576,0.302,0.711,1.734,0.356,2.402   c1.185-0.148,1.615-1.052,1.869-2.136c0.443,0.36,0.724,0.878,0.799,1.603c0.138,0.015,0.343-0.149,0.447-0.267   c0.063-0.072,0.243-0.31,0.268-0.354c0.162-0.232,0.396-0.633,0.445-0.89c0.021-0.108-0.016-1.063-0.088-1.338   c1.558,0.932,2.87,0.267,2.847-0.887c-0.198-0.194-0.364,0.083-0.711,0c-0.177-0.209-0.206-0.565-0.177-0.983   c0.551-0.269,1.055-0.067,1.333-0.529c0.869,0.338,2.047,0.736,3.442,0.76c0.462,0.011,0.895-0.142,1.421-0.087   c0.567,0.058,1.794,0.176,2.581,0.087c0.543-0.059,1.686-0.97,2.226-0.265c0.09,0.122,0.492,0.771,0.677,1.007h-7.727l-0.042,4.809   c-0.573,0.01-1.051-0.715-1.597-0.618c-0.547,0.1-0.646,0.639-0.71,1.16c-0.653-0.31-0.834-1.171-1.252-1.78   c-0.162-0.248-1.411-1.741-1.955-1.426c0.53,0.105,1.496,1.193,1.782,1.692c0.081,0.139,0.102,0.295,0.173,0.443   c0.122,0.23,0.259,0.528,0.451,0.807c0.065,0.09,0.289,0.46,0.359,0.532c0.616,0.66,2.935,2.787,3.468,2.938   c0.342,0.046,0.366-0.226,0.622-0.267c0.311-0.01,0.722-0.125,1.068,0c0.145,0.05,0.185,0.226,0.355,0.354   c0.366,0.263,1.066,0.354,1.068,1.068c-0.011,0.009-0.024,0.012-0.037,0.021l0.119,0.739c0.032,0.253,0.007,0.56,0.009,0.843   c-0.411-0.021-0.499-0.603-0.424-1.05l-0.147-0.425c-0.321-0.059-0.604-0.381-0.944-0.485c-0.317,0.009-0.514,0.135-0.8,0.179   c-0.171-0.158-0.42-0.235-0.621-0.358c-0.147,0.768,1.449,0.241,1.958,0.626c0.125,0.274,0.315,0.482,0.263,0.932l0.183,0.314   c-0.01,0.361,0.242,0.79-0.09,0.976c-0.21,0.027-0.229-0.217-0.355-0.352c-0.037-0.04-0.094-0.186-0.134-0.347l-0.209-0.339   c-0.057,0.059-0.116,0.116-0.193,0.151c-0.273-0.083-0.354-0.355-0.533-0.534c-0.334-0.056-0.746-0.091-1.066-0.178   c-0.077-0.02-0.199,0.031-0.268,0c-0.084-0.038-0.153-0.399-0.356-0.18c0.185,0.483,0.757,0.591,1.336,0.448   c0.374,0.248,0.821,0.424,0.799,1.066c-0.025,0.003-0.034,0.023-0.057,0.026l0.057,0.239c0.126,0.336,0.331,0.593,0.273,1.119   h-0.07c-0.3-0.2-0.39-0.607-0.735-0.762l-0.241-0.135c-0.068,0.104-0.158,0.189-0.206,0.315c-0.348-0.042-0.335-0.437-0.622-0.538   c-1.796-0.391-2.315-1.334-2.668-1.779c-0.221,0.317,0.125,0.821,0,1.335c-0.421-0.056-0.958-1.519-2.407-1.777   c-0.126-0.318-0.359-0.531-0.623-0.713c-0.021,0.378,0.234,0.479,0.177,0.892c-0.224-0.081-0.429-0.234-0.621-0.358   c-0.124-0.079-1.303-0.916-1.602-1.333v-0.623c-0.363-0.019-0.227,0.376-0.27,0.623c-0.052,0.294-0.039,0.641-0.178,0.887   c-0.21-0.376-0.536-0.664-0.798-1.065c-0.023-0.038-0.151-0.229-0.18-0.267c-0.02-0.035-0.15-0.228-0.173-0.268   c-0.533-0.866-0.443-1.683-0.629-2.316c-0.272,1.311,0.264,2.224,0.802,3.029c0.313,0.465,0.781,0.887,0.801,1.513   c0.362-0.118,0.342-0.61,0.449-0.98c0.405,0.069,0.693,0.417,0.977,0.623c0.308,0.226,1.336,1.037,1.422,1.336   c0.254-0.075,0.111-0.549,0.273-0.715c0.528,0.15,0.893,0.472,1.243,0.802c-0.049,0.574-0.46,0.897-0.803,1.246   c-0.238,0.243-0.309,0.318-0.626,0.535c-0.03,0.023-0.223,0.152-0.264,0.179c-0.157,0.113-1,0.639-1.246,0.8   c-0.102,0.064-0.551,0.385-0.625,0.444c-0.03,0.026-0.147,0.148-0.176,0.177c-0.095,0.087-1.159,1.149-1.426,2.138   c-0.132,0.502,0.052,1.256,0,1.868c-0.129,1.526,0.142,3.543-0.356,4.805c-0.159,0.413-0.369,0.638-0.62,0.979   c-0.079,0.106-0.464,0.458-0.537,0.541c-0.104,0.115-1.075,0.866-1.245,0.977c-0.434,0.271-1.053,0.758-1.602,1.063   c-0.264,0.273-0.841,0.694-1.158,1.073c-0.067,0.077-0.525,0.548-0.625,0.71c-0.065,0.114-0.33,0.63-0.356,0.718   c-0.043,0.14-0.163,0.779-0.09,1.063c0.116,0.423,0.465,0.562,0.983,0.714c0.405,0.481,0.927,0.846,0.887,1.78   c-0.015,0-0.025,0.005-0.038,0.014l-0.138,0.253c0.227,0.412-0.012,1.029-0.178,1.337c-0.327-0.148-0.095-0.857-0.445-0.979   c0,0,0.019-0.45,0-0.449c-0.188-0.815-1.039-0.974-1.244-1.779c-0.258,0.329-0.02,0.542,0.088,0.715   c0.146,0.24,0.556,0.559,0.623,0.621c0.135,0.142,0.326,0.995,0.312,1.005l0.041,0.331c-0.009,0.496-0.027,0.985-0.445,1.067   c0.042-0.352-0.12-0.698-0.141-0.978c0,0-0.18,0.202-0.215,0.533c-0.307-0.071-0.501-0.242-0.356-0.533l0.021-0.521   c-0.103-0.222-0.155-0.434-0.287-0.638c-0.227-0.336-0.835-0.66-1.248-1.512c-0.189,1.082,1.226,1.321,1.248,2.494l-0.09,0.263   c0.307,0.332,0.115,1.006-0.178,1.249c-0.43-0.159-0.163-0.628-0.446-0.803l-0.265-0.18c-0.394-0.045-0.491-0.354-0.622-0.622   c-0.13-0.252-0.152-0.645-0.268-0.89C8.6,47.515,8.334,47.306,8.138,47.053z M32.691,37.521v10.95   c-0.317-0.346-0.692-0.767-1.088-1.239V16.208h1.088v18.844c-0.051,0.434-0.077,0.822-0.077,1.198   C32.614,36.683,32.643,37.104,32.691,37.521z M30.264,25.026v-8.818h1.095v30.728c-0.357-0.435-0.728-0.903-1.095-1.396V27.048   l0.134-0.402C30.513,25.852,30.291,25.102,30.264,25.026z M30.023,16.208v7.931c-0.044-0.087-0.077-0.144-0.077-0.144   c-0.387-0.166-0.732-0.381-1.017-0.651v-7.136H30.023z M28.687,16.208v6.896h-0.962c-0.181-0.027-0.339,0.014-0.441,0.051v-6.947   H28.687z M26.212,20.522v2.226c0,0-0.753-0.486-1.069-0.805c-0.336-0.334-0.751-0.619-0.98-0.979   c-0.026-0.498-0.061-1.524,0.891-1.245c0.096,0.031,0.147,0.182,0.266,0.271C25.537,20.14,25.925,20.315,26.212,20.522z    M28.929,27.535v-0.539c0.346,0.233,0.482,0.913,0.482,0.913c0.188-0.089,0.251-0.384,0.251-0.384   c0.133-0.581,0.283-0.416,0.283-0.416l0.077-0.005v18.099c-0.379-0.528-0.754-1.082-1.094-1.642V28.736   C29.136,28.193,28.976,27.674,28.929,27.535z M28.687,28.601V43.15c-0.816-1.425-1.403-2.878-1.403-4.112V28.035   c0.377-0.069,0.487-0.054,0.797,0.079C28.271,28.197,28.514,28.426,28.687,28.601z M21.582,40.729c0.125,0.048,1.384,0.33,1.872,0   c0.869,0,1.237,1.409,1.237,1.409l0.048,0.64c0.149,0.215,0.203,0.563,0.047,0.797c-0.357,0.065-0.464-0.276-0.429-0.582   l-0.003,0.003l-0.04-0.623c-0.177-0.072-0.29-0.273-0.507-0.396c-0.842-0.461-1.077-0.379-1.427-0.534   c-0.04,0.314,0.205,0.238,0.45,0.35c0.036,0.023,0.055,0.171,0.088,0.185c0.197,0.074,0.466-0.004,0.624,0.089   c0.226,0.132,0.44,0.45,0.622,0.713c0.03,0.067,0.017,0.116-0.002,0.155h0.002v0.379c0.216,0.179,0.403,0.732,0.181,1.067   c-0.181-0.209-0.171,0.219-0.356,0.531c-0.422-0.024-0.397-0.494-0.446-0.886l-0.11-0.676c-0.199-0.115-0.287-0.46-0.513-0.571   c-0.744-0.061-1.339-0.263-1.782-0.627c-0.146,0.553,0.242,0.504,0.539,0.627c0.463,0.19,0.846,0.152,1.155,0.355   c0.105,0.071,0.356,0.248,0.353,0.536c0.007,0.119-0.039,0.187-0.106,0.236l0.106,0.204c0.164,0.259,0.424,0.78,0.181,1.159   c-0.207-0.055-0.467-0.353-0.56-0.635l-0.333,0.01c-0.298-0.103-0.417-0.271-0.709-0.442c-0.196-0.115-0.476-0.222-0.893-0.357   c-0.212-0.069-0.496-0.107-0.623-0.175c-0.039-0.023-0.737-0.66-0.892-1.068c-0.373,0.604-0.473,1.479-1.422,1.509   c-0.063-0.296,0.18-0.29,0.265-0.44c0.022-0.518,0.199-0.878,0.268-1.339c-0.264-0.136-0.358,0.296-0.623,0.447   c-0.29,0.163-0.648,0.259-1.065,0.268c0.138-0.299,0.339-0.669,0.533-1.069c0.127-0.269,0.229-0.79,0.27-1.335   c0.01-0.251,0.15-0.611-0.093-0.715c-0.141,0.703-0.617,1.506-1.247,1.426v-1.158c0.164-0.227,0.447-0.316,0.625-0.533   c0.058-0.071,0.756-1.016,0.888-1.334c0.105-0.246,0.237-0.879,0.268-1.155c0.102-0.915-0.157-4.528,0.177-4.811   c2.55,0.212-0.151,4.308,1.335,5.429c0.147-0.234-0.085-0.461-0.088-0.71c0-0.259,0.103-0.593,0.179-0.891   c0.057-0.231,0.202-0.46,0.267-0.713c0.037-0.149,0.176-0.78,0.176-0.889c0-3.256-1.78-2.756-1.955-2.847   c-0.022-0.533,0.587-0.964,1.512-0.626c-0.103-0.464-0.885-0.878-0.358-1.423c0.08-0.019,0.088,0.036,0.09,0.087   c0.367,0.856,0.853,1.233,1.334,1.962c0.063,0.091,0.104,0.223,0.18,0.357c0.054,0.088,0.266,0.696,0.355,0.978   c0.177,0.541,0.059,1.229,0,1.512c-0.116,0.588-0.235,0.913-0.444,1.427c-0.14,0.341-0.274,0.678-0.444,1.157   C19.405,39.761,21.551,40.716,21.582,40.729z M20.473,44.074c-0.512-0.07-1.233-0.109-1.651-0.049   c0.059-0.3,0.342-0.376,0.442-0.625c0.332-0.068,0.304,0.23,0.447,0.355C19.934,43.744,20.306,44.036,20.473,44.074z    M16.596,41.617c0.215-0.13,0.409-0.303,0.534-0.265c-0.046,0.989-0.664,1.413-1.156,1.96c0.628,0.623,1.593-0.396,2.046-0.267   c-0.074,0.582-0.505,0.799-0.71,1.247c-1.782,0.324-3.335,0.876-4.451,1.867c-0.262-0.007-0.33-0.201-0.443-0.355   c-0.499-0.036-0.763-0.313-0.979-0.623c0.064-0.406,0.144-0.67,0.267-0.979c0.491-1.289,2.057-2.303,2.312-2.49   c0.25-0.19,1.96-1.159,1.96-1.159c0.279,0.464-0.096,0.947-0.09,1.424C16.149,41.955,16.379,41.751,16.596,41.617z M21.582,67.521   c-0.29,0.161-1.145-0.797-1.427-0.977c-0.298-0.188-1.149-0.739-1.246-0.8c-0.06-0.04-0.318-0.158-0.355-0.185   c-0.105-0.055-0.665-0.24-0.711-0.263c-0.135-0.063-0.213-0.092-0.355-0.178c-0.209-0.125-0.684-0.251-0.98-0.444   c-0.127-0.08-0.264-0.298-0.447-0.443c-0.388-0.315-1.057-0.931-1.257-1.136c-0.205-0.199-0.255,0.08-0.255,0.08   c0.084,0.095,0.174,0.208,0.269,0.43c0.919,2.145,0.756,3.839,0.36,6.505c-0.026,0.163-0.086,0.445-0.181,0.352   c-0.334-1.024-0.627-2.068-1.067-2.941c-0.099-0.192-0.138-0.414-0.27-0.62c-0.283-0.437-0.568-1.201-0.888-1.781   c-0.23-0.41-0.599-0.787-0.748-1.256c-0.368-0.547-3.163-4.707-3.73-5.271c0,0,5.418,3.618,12.31,6.26   C21.071,65.604,21.401,66.488,21.582,67.521z M14.195,51.589c-0.024-0.481-0.143-0.869-0.09-1.423   c0.767,0.163,1.402,0.441,2.135,0.356c0.232-0.029,0.605-0.153,0.891-0.27c0.034-0.013,0.191-0.051,0.266-0.087   c0.448-0.221,0.739-0.609,1.157-0.892c0.037-0.023,1.287-0.972,1.692-1.157c0.156,0.066,0.011,0.164,0,0.269   c-0.312,0.176-0.628,0.387-0.892,0.623c-0.726,0.656-1.312,1.484-2.135,2.046c-0.212,0.176-0.826-0.052-0.887,0.267   c-0.028,0.215,1.023,0.835,2.49,0.354c1.005-0.33,1.857-1.143,2.579-1.51c-0.052,0.53-0.583,0.831-0.887,1.245   c-0.066,0.095-0.113,0.258-0.179,0.354c-0.306,0.416-0.699,1.028-1.25,1.338c-0.216,0.138-0.689,0.021-0.889,0.177   c0.056,0.306,0.529,0.324,0.805,0.356c0.715,0.08,1.239-0.027,1.778-0.269c0.149-0.067,0.691-0.372,0.802-0.443   c0.118-0.08,0.683-0.522,0.798-0.62c0.248-0.216,0.389-0.613,0.715-0.629c-0.097,0.283-0.433,1.215-0.451,1.336   c-0.014,0.191-0.019,0.434,0,0.625c0.093,0.697,0.52,1.794,1.072,2.227c0.068,0.049,0.531,0.273,0.718,0.355   c0.616,0.286,1.605,0.413,2.222-0.093c0.515-0.42,0.901-1.366,0.357-1.866c-0.366,0.637-1.105,0.94-1.515,0.712   c-0.037-0.02-0.353-0.267-0.445-0.533c-0.042-0.114-0.085-0.375-0.091-0.443c-0.044-0.621,0.534-2.049,1.693-2.406   c0.574-0.174,1.451-0.489,2.401-0.353c0.268,0.034,0.424,0.238,0.714,0.175c-0.072,0.37-0.495,0.245-0.714,0.354   c-0.181,0.099-0.46,0.303-0.622,0.444c-0.53,0.487-0.824,1.177-0.979,2.05c0.25,0.19,0.356-0.153,0.535-0.265   c0.096-0.064,0.368-0.301,0.621-0.271c-0.146,0.327-0.699,1.037-0.621,1.869c0.013,0.155,0.069,0.425,0.173,0.625   c0.091,0.162,0.358,0.447,0.359,0.445c0.343-0.095,0.037-0.652,0.625-0.801c-0.219,0.764,0.087,1.423,0.263,2.048   C23.675,56.47,18.559,54.402,14.195,51.589z M14.462,49.187c0.138-0.32,0.451-0.671,0.708-0.977   c0.296-0.359,0.431-0.468,0.983-0.718c0.394-0.175,0.727-0.29,1.333-0.353c0.147,0.316-0.26,0.437-0.444,0.711   c-0.062,0.086-0.213,0.349-0.266,0.445c-0.186,0.323-0.452,0.836-0.803,1.066c-0.216,0.145-0.514,0.175-0.804,0.272   c-0.246,0.075-0.484,0.275-0.801,0.175C14.312,49.616,14.375,49.377,14.462,49.187z M30.64,58.229   c-0.131-0.287-0.313-0.46-0.246-0.942c0.142-0.022,0.535,0.628,0.976,1.064C31.126,58.351,30.906,58.284,30.64,58.229z    M33.063,58.71c0,0,0.464-0.249,0.624-0.443c0.216-0.14,0.394-0.316,0.534-0.535c-0.379-0.176-0.753-0.052-1.069-0.176   c-0.438-0.185-0.599-0.612-0.889-0.892c-0.087-0.893,0.266-1.123,0.889-1.335c0.447-0.153,0.699-0.238,1.336-0.087   c0.201,0.043,0.487,0.112,0.624,0.174c0.073,0.033,0.548,0.389,0.624,0.447c0.19,0.146,0.458,0.509,0.709,0.713   c0.522,0.403,1.25,2.67,1.25,2.67S34.123,58.879,33.063,58.71z M38.009,59.265c-0.159-0.78-0.719-2.115-0.851-2.334   c-0.242-0.394-0.72-0.821-1.157-1.153c-0.458-0.355-1.026-0.731-1.422-0.806c-0.438-0.081-1.066-0.102-1.517,0   c-0.523,0.115-1.246,0.755-1.246,1.335c0,0.351,0.597,1.139,0.897,1.338c0.25,0.17,0.587,0.185,0.799,0.267   c-1.047,0.915-2.821,0.148-2.763-1.517c-0.285-0.123-0.253,0.127-0.356,0.27c-0.217,0.292-0.38,0.674-0.267,1.247   c-0.237,0.079-0.254-0.188-0.357-0.355c-0.297-0.5-0.484-1.44-0.09-2.14c0.168-0.296,0.591-0.379,0.623-0.711   c-0.188-0.316-0.533,0.057-0.709,0.181c-0.188,0.121-0.453,0.331-0.627,0.53c-0.194,0.228-0.252,0.489-0.444,0.621   c-0.19,0-0.172-0.422-0.178-0.527c-0.026-0.521,0.083-0.755,0.266-1.071c0.083-0.147,0.137-0.202,0.265-0.357   c0.146-0.166,0.421-0.346,0.448-0.356c0.29-0.104,0.664,0.069,0.803-0.264c-0.315-0.107-0.594-0.28-0.89-0.27   c-0.199,0.006-0.892,0.27-1.159,0.358c0-0.218,0.388-1.015,0.623-1.163c1.051-0.655,3.051-0.436,3.651,0.094   c0.089-0.36-0.756-0.694-0.806-0.715c-0.271-0.126-0.656-0.131-0.977-0.266c-0.298-0.123-0.541-0.36-0.799-0.445   c-1.235-0.39-2.718-0.075-3.647,0.445c-0.072,0.045-0.42,0.25-0.538,0.358c-0.532,0.473-0.994,1.528-0.799,2.58   c0.067,0.388,0.641,0.862,0.98,0.891c0.417,0.037,0.853-0.201,1.156-0.357c0.182,0.119-0.011,0.279-0.087,0.444   c-0.151,0.338-0.168,0.409-0.537,0.621c-0.203,0.122-0.391,0.244-0.89,0.182c-0.225-0.031-0.478-0.124-0.622-0.182   c-0.309-0.111-0.588-0.212-0.89-0.443c-0.223-0.172-0.46-0.517-0.626-0.889c-0.044-0.104-0.245-0.593-0.265-0.71   c-0.047-0.29,0.087-1.205,0.178-1.424c0.112-0.267,0.108-0.526,0.271-0.806c0.021-0.034,0.785-0.938,1.062-1.154   c0.098-0.073,0.471-0.327,0.538-0.358c0.339-0.151,0.713-0.153,1.07-0.177c0-0.433-0.659-0.244-0.98-0.175   c-0.322,0.063-0.719,0.313-1.07,0.529c-0.296,0.186-0.624,0.399-0.89,0.624c-0.26,0.222-0.793,0.792-0.803,0.804   c-0.03,0.026-0.729,0.653-0.798,0.713c-0.068,0.05-1.835,1.065-2.317,0.709c0.304-0.3,0.707-0.479,0.981-0.8   c0.139-0.167,0.225-0.436,0.355-0.622c0.137-0.196,0.313-0.353,0.445-0.537c0.082-0.111,0.343-0.412,0.354-0.444   c0.02-0.047,0.221-0.285,0.273-0.354c0.118-0.186,0.088-0.275,0.26-0.446c0.383-0.366,0.899-0.882,1.52-1.157   c-0.359-0.194-0.777-0.033-1.074,0.09c-0.362,0.153-0.633,0.528-0.979,0.801c-0.073,0.057-1.347,0.98-2.047,1.336   c-0.195,0.1-0.385,0.185-0.624,0.266c-0.297,0.104-0.876,0.327-1.688,0.089c0.073-0.26,0.365-0.334,0.537-0.445   c0.173-0.115,0.365-0.218,0.531-0.354c0.286-0.234,0.546-0.538,0.798-0.799c0.356-0.369,0.647-0.718,1.07-1.068   c0.24-0.206,0.58-0.448,0.89-0.716c0.21-0.114,0.616-0.035,0.805-0.175c-0.071-0.396-0.617-0.077-0.805-0.092   c-0.055-0.005-0.467-0.073-0.714,0c-0.373,0.111-0.935,0.506-1.246,0.802c-0.178,0.167-0.318,0.323-0.624,0.534   c-0.087,0.064-0.174,0.113-0.265,0.176c-0.155,0.119-0.813,0.548-0.977,0.624c-0.581,0.271-1.328,0.468-2.227,0.09   c0.047-0.276,1.457-0.129,2.048-1.243c0.053-0.108,0.367-0.604,0.445-0.716c0.046-0.067,0.238-0.311,0.27-0.356   c0.153-0.224,0.165-0.264,0.353-0.443c0.139-0.137,0.646-0.24,1.07-0.265c-0.221-0.582-1.74-0.179-1.783-0.183   c0.011,0-0.429,0.041-0.624,0.092c-0.408,0.104-1.086,0.514-1.512,0.889c-0.195,0.166-0.507,0.45-0.622,0.625   c-0.042,0.056-0.167,0.319-0.182,0.357c-0.054,0.122-0.029,0.307-0.085,0.441c-0.111,0.263-0.303,0.485-0.361,0.712   c-0.089,0.395-0.054,0.86-0.083,1.25c-0.357-0.081-0.756-0.38-1.07-0.625c-0.291-0.23-0.795-0.876-0.265-0.625   c0.573-0.227,0.758-0.84,0.709-1.69c0.35-0.364,0.269-0.535,0.269-0.535s-0.047-0.754-0.358-1.422   c0.44-0.317,0.945-0.613,1.515-0.892c0.142-0.071,1.621-0.583,2.137-0.712c0.516-0.11,1.116-0.127,1.69-0.174   c0.102-0.016,1.529-0.062,3.298,0.083c0.219,0.058,0.394,0.077,0.353,0.357c0.281,0.042,0.313-0.158,0.617-0.091   c0.122,0.243,0.361,0.713,0.361,0.713s-0.102,0.104-0.087,0.268c0.42-0.11,0.701-0.362,0.889-0.71   c0.968,0.226,1.908,0.631,2.76,1.065c0.848,0.438,1.643,0.915,2.401,1.425c0.397,0.271,0.791,0.519,1.16,0.804   c0.344,0.269,0.637,0.593,0.979,0.887c0.103,0.092,0.455,0.385,0.533,0.447c0.264,0.217,0.514,0.37,0.801,0.621   c0.705,0.604,1.306,1.238,1.78,1.779c0.171,0.204,0.563,0.531,0.805,0.802c0.06,0.072,0.408,0.585,0.619,0.8   c0.071,0.072,0.357,0.43,0.446,0.534c1,1.172,2.2,2.528,3.112,3.921c0.117,0.172,0.251,0.425,0.361,0.623   c0.083,0.15,0.205,0.344,0.275,0.531C39.351,59.421,38.391,59.301,38.009,59.265z M42.238,59.564c-0.827,0-1.965-0.056-1.965-0.056   s-0.986-1.558-1.513-2.314c-0.267-0.38-2.122-2.67-2.583-3.199c-0.286-0.331-0.596-0.653-0.887-0.983   c-0.292-0.328-0.594-0.651-0.892-0.978c-0.297-0.321-0.582-0.667-0.886-0.979c-0.415-0.42-2.209-1.923-2.585-2.222   c-0.327-0.267-0.669-0.511-1.071-0.807c-0.077-0.056-1.251-0.891-1.692-1.156c-0.371-0.226-0.737-0.498-1.151-0.71   c-0.236-0.119-1.044-0.529-1.247-0.626c-0.418-0.183-0.893-0.295-1.333-0.532c-0.167-0.091,0.04-0.267,0.082-0.357   c0.073-0.14,0.117-0.243,0.18-0.352c0.24-0.428,0.621-0.687,0.447-1.515c-0.036-0.177-0.22-0.33-0.267-0.536   c-0.075-0.305-0.03-0.588-0.09-0.8c-0.028-0.097-0.154-0.115-0.18-0.181c-0.03-0.062,0.04-0.207,0-0.263   c-0.183-0.264-0.594-0.473-0.891-0.534c-0.501-0.115-1.193,0.145-1.869,0c-0.858-0.188-1.669-1.329-1.424-2.493   c0.038-0.181,0.038-0.374,0.091-0.537c0.035-0.115,0.594-1.503,0.71-1.867c0.223-0.681,0.577-1.504,0.357-2.492   c-0.039-0.181-0.111-0.344-0.181-0.536c-0.156-0.457-0.427-1.039-0.712-1.425c-0.166-0.219-0.542-0.445-0.71-0.712   c-0.183-0.292-0.204-0.603-0.356-0.98c0.454-0.333,0.921-0.661,1.424-0.978c0.108-0.067,0.543-0.303,0.627-0.357   c0.184-0.125,1.127-0.618,1.508-1.689c0.506,0.118,0.612,0.637,0.89,0.979c0.427-0.048,0.271-0.68,0.443-0.979   c0.387,0.541,1.696,1.07,1.696,1.07h0.034v11.571c0,4.679,6.667,11.147,6.739,11.206c4.708,4.128,8.297,6.071,9.005,6.277   l0.182,0.055l0.175-0.055c0.707-0.206,4.299-2.149,9.008-6.277c0.069-0.059,6.741-6.527,6.741-11.206V28.399   c0.868-0.528,1.859-1.112,2.118-2.179c0.662-0.066,1.369-0.461,2.049-0.624c0.383-0.091,0.646,0.587,0.891,0.891   c0.294,0.369,0.664,0.588,0.71,0.98c0.045,0.391-0.104,0.574-0.267,0.887c-0.262,0.529-0.719,0.953-0.888,1.783   c-0.057,0.262-0.084,0.56-0.091,0.712c0,0.238,0.137,0.367,0.182,0.623c0.04,0.243-0.05,0.503,0,0.712   c0.243,1.133,0.981,2.348,1.512,3.293c0.09,0.166,0.178,0.351,0.265,0.539c0.253,0.542,0.368,1.012,0.265,1.957   c-0.115,1.066-0.222,1.359-0.884,1.955c-0.274,0.247-0.513,0.543-0.895,0.626c-0.79,0.168-1.214,0.177-1.783,0.533   c-0.467,0.297-0.624,0.506-0.977,1.156c-0.149,0.228-0.088,0.979-0.088,0.979s0.116,0.833,0.441,0.981   c0.26,0.018-0.104-0.582,0.271-0.446c0.068,0.36,0.041,0.479,0,0.889c-0.524,0.142-1.037,0.272-1.514,0.447   c-0.474,0.178-2.463,1.127-2.669,1.247c-0.106,0.063-0.512,0.286-0.625,0.354c-0.369,0.233-0.715,0.51-1.153,0.8   c-0.188,0.127-1.087,0.811-1.426,1.069c-0.379,0.293-2.217,1.943-2.221,1.961c-0.018,0.034-0.279,0.272-0.366,0.354   c-0.566,0.541-1.321,1.338-1.865,2.048c-0.139,0.179-0.27,0.305-0.446,0.536c-0.13,0.168-0.27,0.323-0.442,0.534   c-0.009,0.002-0.012,0.005-0.021,0.012c-0.046,0.024-0.627,0.732-0.869,1.052c-0.175,0.222-0.412,0.516-0.627,0.805   c-0.817,1.077-2.31,3.558-2.31,3.558S43.071,59.564,42.238,59.564z M55.653,43.15V28.691c0.085,0.192,0.234,0.423,0.42,0.5   c0.107,0.045,0.227,0.125,0.227-0.034c0,0,0.25-0.697,0.354-0.803c0,0,0.125,0.227,0.404,0.325v10.359   C57.059,40.272,56.473,41.726,55.653,43.15z M63.958,28.536c-0.074-0.399,0.117-0.535,0.086-0.892c0.555,0.03,0.85,0.578,1.336,0.8   c0.237,0.11,0.437,0.317,0.71,0.534c1.077,0.853,2.04,3.208,2.225,3.65c0.212,0.501,0.221,1.555,0.445,2.226   c0.113,0.333,0.261,0.528,0.357,0.979c0.085,0.383-0.023,0.927,0,1.513c-0.059,0.386,0.449,0.042,0.357,0.46   c-0.212,0.068-0.618,0.338-0.802,0.166c0.179,0.779,0.139,1.928-0.27,2.403c-0.617-0.274-0.899-0.822-0.796-0.536v1.069   c-0.213,0.22-0.172-0.133-0.451-0.091c0.02,0.553,0.036,1.103-0.264,1.334c-0.397-0.169-0.512-0.673-0.715-1.152   c-0.105-0.27-0.294,0.626-0.097,0.729c-0.178,0.597-0.281,1.672-0.281,1.672s-0.307,0.642-0.775,0.71   c-0.082,0.307-0.118,0.661-0.447,0.716c-0.333-0.347-0.063-0.816,0-1.251c-0.619,0.239-0.41,1.312-1.154,1.427l-0.314-0.009   c0.039,0.116-0.096,0.216-0.135,0.363c-0.024,0.305,0.068,0.725-0.09,0.891c-0.515-0.077-0.672-0.701-0.563-1.231l0.007-0.805   c0.157-0.538,0.837-0.549,1.179-0.898c0.201-0.202,0.242-0.172,0.182-0.447c-0.275-0.087-0.352,0.344-0.627,0.535   c-0.121,0.084-0.384,0.101-0.533,0.175c-0.176,0.097-0.451,0.262-0.451,0.26l-0.222,0.12h-0.013c0.047,0.25-0.068,0.536-0.295,0.78   c-0.448-0.08-0.439-0.963-0.175-1.244l0.178-0.264l-0.003-0.007c0.218-0.822,1.672-0.401,1.874-1.244   c-0.196-0.269-0.332,0.253-0.539,0.266c-0.699,0.013-1.195,0.228-1.51,0.623c-0.042-0.005-0.478,0.517-0.478,0.517l-0.002-0.002   c-0.053,0.085-0.108,0.157-0.144,0.195c-0.21-0.035-0.198-0.274-0.13-0.469l-0.006-0.006l0.104-0.543   c-0.047-0.049-0.112-0.077-0.147-0.136c0.021-0.549,0.284-0.68,0.708-0.979c0.167-0.115,0.338-0.262,0.48-0.322   c0.175-0.07,0.689-0.135,0.949-0.212c1.088-0.333,1.778-0.882,2.223-1.956c0.481,0.112,0.7,0.48,1.158,0.62   c-0.028-0.441-0.182-0.636-0.355-0.892c-0.206-0.289-0.685-0.368-0.619-0.89c0.282-0.337,1.871,0.26,2.04,0.442   c0.091-0.168-0.172-0.346-0.264-0.442c-0.366-0.371-0.955-0.634-1.69-0.8c-0.075-0.405-0.26-0.693-0.36-1.066   c0.672-0.259,1.596,0.3,2.142,0.708c-0.402-0.998-1.188-1.6-2.672-1.512c-0.019-0.364-0.333-0.443-0.268-0.889   c0.648,0.294,1.676-0.285,2.488,0c0.489,0.169,0.573,0.705,0.98,0.978c0.237-0.072,0.04-0.328,0-0.448   c-0.118-0.384-0.266-0.585-0.62-0.891c-0.26-0.219-0.445-0.395-0.802-0.443c-0.276-0.037-0.431,0.135-0.71,0.179   c-0.688,0.114-1.333,0.033-1.872-0.088c0.025-0.377-0.232-0.48-0.176-0.891c0,0,0.398,0.13,0.797,0   c0.406-0.125,0.384-0.13,0.802-0.174c0.243-0.03,0.488-0.187,0.537-0.183c0.62,0.072,1.154,0.683,1.063,0.535   c-0.09-0.15-0.188-0.36-0.262-0.535c-0.141-0.354-0.95-0.535-0.98-0.53c-0.064,0-0.173-0.014-0.266,0   c-0.225,0.026-1.539,0.55-1.961-0.181c-0.082-0.517,0.611-0.531,0.895-0.799c0.058-0.064,0.369-0.091,0.443-0.089   c0.282,0.01,0.576,0.274,0.888,0.268c0.295-0.007,0.461-0.173,0.709-0.268c0.206-0.077,0.515,0.025,0.624-0.269   c-0.193-0.212-0.336,0.067-0.532,0.087c-0.721,0.094-1.252-0.528-1.868-0.528c-0.611,0-0.774,0.35-1.068,0.622   c-0.279-0.517,0.131-1.11,0.269-1.515c0.26-0.09,1.957,0.58,1.752,0.367C64.667,28.931,64.712,28.755,63.958,28.536z    M68.491,40.642c0.442-0.245,0.356-1.011,0.626-1.43v-0.799c0.382-0.091,0.561-0.385,0.978-0.441   c0.016,0.256,0.292,0.417,0.447,0.623c0.052,0.072,0.029,0.186,0.087,0.267c0.099,0.131,0.25,0.217,0.354,0.351   c0.115,0.15,0.158,0.317,0.271,0.449c0.828,1.023,2.064,1.639,2.937,2.67c0.021,0.027,0.667,0.72,0.89,1.069   c0.061,0.099,0.31,1.455,0.091,1.781c-0.022,0.033-0.308,0.226-0.624,0.442c-0.16,0.112-0.702,0.294-0.894,0.355   c-0.545,0.172-0.824,0.459-1.246,0.982c-2.075-2.438-5.968-3.052-6.496-3.029c0.208-0.507,0.243-1.186,0.356-1.781   c0.334,0.05,0.404,0.374,0.623,0.54c0.226-0.162,0.369-0.412,0.357-0.802c0.206,0.024,0.339-0.021,0.442-0.098   c-0.046-0.456,0.254-0.571,0.182-1.063c0.333,0.053,0.181,0.586,0.53,0.623C68.542,41.225,68.484,40.897,68.491,40.642z    M47.31,59.246c0.058-0.4,0.367-1.822,0.442-1.96c0.113-0.211,0.404-0.528,0.626-0.802c0.257-0.319,0.533-0.549,0.8-0.798   c0.07-0.071,0.19-0.112,0.263-0.177c0.246-0.238,1.512-0.344,2.051-0.181c0.143,0.046,0.472,0.206,0.71,0.534   c0.079,0.098,0.241,0.412,0.266,0.531c0.15,0.661-0.072,0.943-0.351,1.337c-0.128,0.135-0.458,0.076-0.716,0.088   c0.034,0.447,0.563,0.396,0.801,0.622C52.157,58.714,48.109,59.265,47.31,59.246z M54.605,58.086h-0.533   c0.1-0.422,0.53-0.537,0.627-0.979c0.096-0.013,0.153,0.021,0.175,0.087C54.914,57.62,54.768,57.861,54.605,58.086z M55.768,57.645   c0.055-0.45,0.37-0.64,0.263-1.25c0.416-0.059,0.545,0.977,0.624,0.831c0.11-0.205,0.301-1.472,0.179-2.075   c-0.131-0.649-0.802-1.104-0.89-1.514c0.542,0.051,1.314,1.298,1.691,1.335c0.257-0.768-0.016-1.523-0.356-2.047   c-0.231-0.354-0.795-0.808-1.159-1.159c-0.102-0.093-0.466-0.16-0.711-0.266c-0.14-0.057-0.433-0.118-0.442-0.354   c0.549,0.056,1.254,0.004,1.958,0.176c0.364,0.09,0.364,0.146,0.71,0.268c0.53,0.183,0.766,0.405,1.157,0.798   c0.255,0.257,0.35,0.311,0.531,0.625c0.163,0.274,0.503,1.028,0.192,1.568c-0.005,0.014-0.006,0.024-0.011,0.04   c-0.326,0.28-1.048,0.485-1.511,0.352c-0.143,0.226,0.808,1.604,1.688,1.604C58.29,56.991,57.261,57.481,55.768,57.645z    M60.656,56.126c-1.044,0.043-1.909-0.097-2.132-0.884c0.594,0.059,0.938-0.055,1.246-0.356c0.577-1.024-0.21-2.092-0.799-2.762   c-0.304-0.343-1.272-0.961-1.871-1.069c-2.28-0.411-3.422,0.064-4.718,0.711c0.246,0.104,0.509-0.111,0.801-0.177   c0.126-0.027,0.354-0.053,0.535-0.089c1.777-0.354,3.624,1.125,3.825,2.938c-0.343,0.037-0.484-0.35-0.71-0.533   c-0.468-0.392-0.822-0.628-1.604-0.802c-0.2-0.046-0.57-0.352-0.806,0c0.084,0.361,1.187,0.642,1.344,0.802   c0.031,0.035,0.73,0.568,0.796,1.245v1.156c-0.539-0.411-0.746-1.156-1.423-1.421c-0.169,0.312,0.373,0.439,0.536,0.801   c0.037,0.074,0.088,0.343,0.09,0.351c0.082,0.309,0.101,0.4,0,0.802c-0.072,0.275-0.224,0.742-0.626,0.806   c0.069-0.721-0.049-1.258-0.357-1.607c-0.249,0.189-0.113,0.563-0.267,0.894c-0.107,0.231-0.309,0.388-0.537,0.625   c-0.253,0.269-0.236,0.261-0.529,0.443c-0.194,0.117-0.736,0.357-1.25,0.18c0.89-0.893,0.651-1.72,0.532-2.053   c-0.148-0.438-0.654-0.825-0.973-0.976c-0.306-0.144-1.344-0.21-1.873-0.092c-1.014,0.235-1.99,1.479-2.137,1.691   c-0.042,0.063-0.31,0.523-0.354,0.624c-0.168,0.35-0.442,1.731-0.627,1.96c-0.836,0.102-1.188,0.087-2.041,0.087   c0.052-0.431,1.633-2.582,1.687-2.671c0.214-0.355,1.131-1.56,1.244-1.691c0.091-0.1,0.392-0.463,0.449-0.53   c0.034-0.048,0.344-0.412,0.441-0.533c0.182-0.226,0.943-1.178,1.163-1.424c0.197-0.236,1.288-1.295,1.332-1.335   c0.21-0.207,0.41-0.421,0.622-0.625c0.347-0.326,0.675-0.646,1.067-0.977c0.305-0.266,1.474-1.349,1.69-1.518   c0.153-0.107,0.735-0.479,0.806-0.534c1.87-1.427,4.311-2.227,4.54-2.313c0.135-0.055,0.771-0.319,0.981-0.358   c0.257-0.044,0.518-0.13,0.711,0.181c0.037,0.337,0.04,0.165,0.445,0.265c0.052,0.191,0.307,1.048,1.015,1.385   c0,0,0.289-0.222,0.387-0.661c-0.12-0.979,0.887-0.961,0.801-1.099c0.426-0.216,0.445,0.343,0.914,0.375   c0-0.615,0.421-0.971,0.445-1.154c3.213,0.255,5.375,1.566,6.94,3.47c-0.048,0.192-0.157,0.104-0.295,0.538   c0,0.981,0.298,1.096,0.476,1.514c0.082,0.296-0.668,0.613-0.806,0.707c-0.306,0.204-0.651,0.369-0.973,0.534   c0.083-0.656-0.032-1.55-0.538-2.313c-0.279-0.418-0.74-0.787-1.155-1.069c-0.458-0.308-2.222-1.173-3.204-1.067   c-0.096,0.27,0.416,0.344,0.619,0.537c0.17,0.147,0.59,0.667,0.624,0.708c0.36,0.419,0.624,0.762,1.068,1.158   c0.388,0.341,0.688,0.538,1.25,0.805c-0.25,0.378-0.93,0.053-1.335-0.089c-0.4-0.146-0.87-0.344-1.248-0.539   c-0.351-0.182-1.67-0.971-1.96-1.153c-0.218-0.145-0.9-0.45-1.424-0.182c0.025,0.392,0.531,0.305,0.804,0.449   c0.503,0.405,1.068,0.895,1.601,1.425c0.601,0.594,1.021,1.195,1.869,1.602c-0.233,0.348-1.46-0.054-1.605-0.091   c-0.723-0.196-1.948-1.187-2.047-1.244c-0.12-0.091-0.653-0.378-0.797-0.447c-0.27-0.124-0.583-0.271-0.893-0.268   c0.908,0.436,1.733,1.793,1.873,1.959c0.27,0.31,1.239,1.269,1.423,1.426c0.161,0.129,0.519,0.199,0.442,0.532   c-0.264-0.118-0.545,0.028-0.797,0c-0.354-0.041-0.708-0.189-1.068-0.356c-0.167-0.079-0.255-0.151-0.448-0.267   c-0.134-0.081-0.858-0.687-1.064-0.892c-0.245-0.233-1.282-1.009-1.604-1.244c-0.425-0.318-1.106-0.825-1.783-0.71   c0.702,0.319,1.544,0.671,2.049,1.33c0.057,0.077,0.563,0.882,0.624,1.516c0.201,1.934-0.47,2.68-0.624,3.113   C61.26,55.943,61.03,56.006,60.656,56.126z M65.913,52.387c-0.183-0.106-0.454-0.364-0.624-0.621   c-0.011-0.016-0.24-0.322-0.266-0.354c-0.25-0.28-0.809-0.663-0.98-1.158c0.203,0.042,1.437,1.168,2.848,1.423   c0.209,0.037,0.53,0.09,0.62,0.09c0.54,0,1.1-0.304,1.161-0.529c-0.216-0.054-1.611-0.76-1.962-1.16   c-0.172-0.21-1.209-1.024-1.063-1.336c0.295,0.069,0.617,0.24,0.884,0.446c0.157,0.119,0.426,0.303,0.718,0.448   c0.352,0.169,0.505,0.22,0.975,0.352c0.223,0.06,0.83,0.21,1.158,0.18c0.414-0.036,0.599-0.419,1.069-0.356   c0.091,0.466,0.208,0.987,0.091,1.427c-1.077,0.643-2.081,1.359-3.292,1.867c-0.012-0.16,0.108-0.187,0.087-0.356   C66.984,52.668,66.128,52.526,65.913,52.387z M70.272,49.542c-0.76,0.134-2.075-0.97-2.133-1.066   c-0.297-0.451-1.012-0.962-1.341-1.423c0.006-0.091,0.112-0.071,0.185-0.091c0.41,0.107,1.835,0.874,1.868,0.889   c0.366,0.166,0.736,0.55,1.068,0.89C70.004,48.835,70.328,49.239,70.272,49.542z M61.907,55.777   c0.248-0.464,0.667-2.893,0.357-4.102c0.408,0.171,0.679,0.606,1.069,0.896c0.176,0.129,1.069,0.648,1.245,0.709   c0.132,0.05,0.595,0.161,0.712,0.181c0.13,0.01,0.267,0.006,0.358,0c0.47-0.047,0.9-0.063,1.421-0.357   C65.861,54.11,62.464,55.521,61.907,55.777z M72.677,64.145c-0.794,1.38-1.576,2.949-2.226,4.625   c-0.25,0.642-0.798,1.958-0.798,1.958s-0.215-0.354-0.271-0.534c-0.581-2.029-0.18-5.176,0.807-6.765   c-0.191-0.158-0.702,0.541-1.43,0.891c-0.039,0.02-1.337,0.604-1.51,0.712c-0.044,0.027-1.005,0.462-1.25,0.617   c-0.232,0.159-0.867,0.801-0.975,0.896c-0.074,0.057-0.109,0.12-0.182,0.18c-0.325,0.251-0.675,0.822-1.064,1.156   c-0.31-0.2,0.885-3.137,1.064-3.381c0.717-0.284,3.101-1.375,5.7-2.604c1.917-0.838,4.414-2.318,6.097-3.308   C76.652,58.601,72.815,63.903,72.677,64.145z M76.686,48.652c0.131,0.422,0.087,0.899-0.087,1.249   c-0.14,0.023-0.243,0.009-0.324-0.012c0,0-0.261,0.322-0.126,0.987c-0.617,0.021-0.783-0.409-0.714-1.067l0.006-0.188   c-0.063,0-0.12-0.018-0.182-0.08c-0.056-0.741,0.38-0.987,0.533-1.516c-0.662,0.086-0.668,0.813-0.89,1.336   c-0.25-0.074-0.517,0.043-0.552,0.019l-0.275,0.289h-0.028c-0.132,0.27-0.684,0.604-0.747,0.583   c-0.016-0.248,0.003-0.467,0.05-0.656l-0.144-0.251V49.3c-0.073,0.121-0.195,0.201-0.439,0.154   c-0.209-0.665,0.533-0.957,0.533-0.957l0.287-0.083c0.018-0.072,0.027-0.148,0.067-0.204c0.125-0.184,0.426-0.318,0.624-0.449   c0.088-0.061,0.218,0,0.179-0.178c-0.227-0.135-0.774,0.172-0.891,0.443c-0.096-0.036-0.155-0.108-0.2-0.2l-0.238,0.286h-0.021   c-0.055,0.148-0.166,0.257-0.25,0.363c-0.1,0.121-0.248,0.357-0.449,0.357c-0.006-0.29,0.029-0.649,0.155-0.871l0.266-0.565   c-0.063-0.042-0.133-0.079-0.153-0.17c0.102-0.799,0.962-1.156,1.689-1.156c0.565,0,0.825-0.541,0.978-0.623   c0.509-0.018,0.997,0.225,1.342,0.268c0.657,0.09,0.946-0.683,0.708-0.445c-0.393,0.072-1.12-0.629-1.602-0.534   c-0.179-0.766-0.484-1.418-0.796-2.044c0.395-0.374,1.275,0,1.76,0.064c-0.303-0.608-0.512-0.617-1.321-0.748   c-0.342-0.061-0.74-0.031-0.978-0.031c-0.237,0-0.315-0.296-0.536-0.441c-0.178-0.128-0.742-0.476-0.8-0.536   c-0.069-0.086-0.193-0.102-0.18-0.27c0.369-0.048,0.525-0.311,0.804-0.442c0.621,0.025,1.108-0.085,1.598-0.181   c0.24-0.235,0.143-0.274,0.179-0.445c-0.563,0.119-1.296,0.119-1.868,0c-0.717,0.403-2.181,0.58-2.219-0.536   c0.486-0.349,1.298-0.354,1.79-0.354c0.665-0.106,0.829,0.171,0.332-0.32c-0.927-0.189-1.148-0.297-1.859-0.305   c-0.293,0.039-0.644,0.188-0.797,0.361c-0.389-0.095-0.502-0.452-0.628-0.806c1.192,0.068,2.177-0.721,3.119-0.444   c0.277,0.082,0.439,0.199,0.711,0.444c0.176-0.161,0.009-0.198-0.088-0.356c-0.042-0.055-0.178-0.353-0.181-0.355   c-0.055-0.04-0.585-0.249-0.713-0.267c-0.924-0.169-2.242,0.415-3.202,0.267c-0.465-0.555-0.825-1.653-0.711-2.492   c0.49,0.037,0.758,0.31,0.981,0.622c1.019,0.464,3.165,0.894,3.025,0.804c-0.23-0.15-0.607-0.48-0.982-0.627   c-0.235-0.083-0.573-0.003-0.796-0.088c-0.119-0.037-0.312-0.224-0.452-0.355c-0.07-0.066-0.309-0.066-0.532-0.178   c-0.123-0.061-0.218-0.252-0.262-0.268c-0.365-0.115-0.667-0.066-1.072-0.087c-0.184-0.471-0.316-0.97-0.444-1.426   c-0.112-0.387-0.216-0.748-0.358-1.066c-0.042-0.093-0.031-0.233-0.091-0.358c-0.163-0.369-0.412-0.72-0.617-1.069   c-0.406-0.669-0.89-1.341-1.517-1.866c-0.294-0.252-1.185-0.81-1.333-0.892c-0.397-0.222-0.713-0.596-1.067-0.98   c-0.257-0.273-0.65-0.468-0.627-0.889c0.169-0.17,0.165,0.051,0.445,0c0.046-0.25,0.131-0.464,0.182-0.711   c0.382-0.29,0.712-0.639,1.152-0.894c0.07-0.035,0.321-0.159,0.36-0.175c0.262-0.135,0.685-0.333,1.067-0.358   c0.088,0.305-0.31,0.571-0.535,0.808c-0.237,0.245-0.513,0.497-0.711,0.709c-0.262,0.091-0.592,0.12-0.801,0.264   c2.869,0.439,2.639-2.86,2.4-2.134c-0.285-0.053-0.933,0.203-1.066,0.27c-0.075,0.029-0.381,0.144-0.44,0.175   c-0.106,0.046-0.518,0.288-0.629,0.354c-0.337,0.209-1.108,0.632-1.333,1.423c-1.187-0.583-1.978,0.43-3.119,0.448   c-0.147,0.243-0.433,0.861-0.441,0.891c-0.11,0.234-0.168,0.188-0.45,0.443c-0.112,0.108-0.457,0.39-0.533,0.447   c-0.091,0.068-0.344,0.429-0.62,0.353c-0.244-0.398-0.023-0.992,0.087-1.335c-0.165-0.191-0.34,0.367-0.445,0.535   c-0.327,0.118-0.434,0.454-0.71,0.622c-0.075-0.01-0.125-0.047-0.18-0.075l-0.18,0.167c-0.079,0.362-0.273,0.62-0.445,0.892   c-0.311-0.094-0.216-0.864-0.021-1.037l-0.032-0.055l0.145-0.275c-0.082-1.194,1.31-0.92,1.6-1.751   c-0.247-0.21-0.461,0.36-0.71,0.445c-0.653-0.037-0.696,0.539-1.253,0.595l-0.079,0.294c0.05,0.386-0.157,0.499-0.269,0.713   c-0.363-0.158-0.204-0.494-0.179-0.892l0.088-0.311c-0.17-1.312,1.237-1.049,1.692-1.736c-0.206-0.177-0.448,0.142-0.62,0.269   c-0.515-0.081-0.581,0.29-1.047,0.262l-0.113,0.091c0.055,0.531-0.185,0.768-0.714,0.714c0.039-0.32,0.167-0.549,0.294-0.778   l-0.002-0.005l0.442-0.726l0.009,0.017c0.235-0.354,0.507-0.626,0.952-0.734c0.208-0.049,0.402,0.079,0.624,0.088   c0.156,0.006,0.191-0.084,0.354-0.088c0.307-0.013,0.63,0.069,1.068,0c0.302-0.003,0.236,0.603,1.157,0.623   c0.229,0.004,0.387-0.23,0.621-0.27c0.224-0.032,0.718,0.132,1.156,0.096c0.195-0.024,0.394-0.152,0.627-0.096   c-0.298-0.805-2.78-0.233-2.937-0.712c0.099-0.403,0.251-0.759,0.624-0.888c0.395-0.068,0.355,0.293,0.529,0.446   c0.309,0.202,1.075-0.055,1.514-0.091c1.042-0.078,0.402-0.266-0.263-0.266c-0.467-0.209-1-0.37-1.251-0.799   c0.091-0.335,0.39-0.445,0.533-0.718c0.357,0.155,0.555,0.05,0.894,0c0.327,0.361,0.952,1.545,3.292,0.54   c0.224-0.102,0.333-0.401,0.539-0.54c0.104-0.069,0.237-0.024,0.354-0.086c0.161-0.081,0.449-0.267,0.797-0.352   c-0.169-0.223-0.348-0.203-0.708-0.092c-0.025,0.008-0.194,0.057-0.268,0.092c-0.293,0.119-0.521,0.481-0.799,0.62   c-0.169,0.082-0.315,0-0.627,0.088c-0.083,0.021-0.146,0.169-0.266,0.176c-0.479,0.046-0.834-0.03-1.334-0.264   c0.033-0.655-0.583-0.664-1.069-0.803c-0.204-0.267,0.303-0.422,0.445-0.623c0.539-0.707,1.285-1.208,1.517-2.226   c0.467-0.353,0.649-1.077,1.154-1.421c0.095-0.071,0.5-0.245,0.625-0.27c0.312-0.065,0.63,0.044,1.067,0   c0.04-0.363-1.234-0.228-1.513-0.091c-0.097,0.047-0.23,0.147-0.27,0.178c-0.237,0.195-1.061,1.135-1.155,1.339   c-0.099,0.194-0.445,1.041-0.893,1.6c-0.231,0.294-0.721,0.682-1.065,0.983c-0.37,0.322-0.815,0.923-1.251,1.334   c-0.626,0.006-0.529-0.712-0.887-0.98c0.085-0.461,0.407-0.927,0.533-1.423c0.063-0.253,0.023-0.561,0.091-0.802   c0.095-0.379,0.403-0.842,0.175-1.068c-0.222-0.228-0.376-0.038-0.533-0.091c-0.044-0.846,0.267-1.331,0.712-1.692   c0.081-0.32-0.347-0.123-0.536-0.175c0.111-0.375,0.523-0.501,0.806-0.71c0.292-0.218,0.61-0.402,0.795-0.715   c-0.185-0.824,0.285-1.481,0.448-2.225c-0.272,0.048-0.321,0.386-0.448,0.625c-0.217,0.427-0.463,0.937-0.438,1.778   c-0.173,0.101-0.301,0.251-0.445,0.357c-0.164,0.113-0.298,0.15-0.455,0.267c-0.254,0.201-0.458,0.52-0.797,0.623   c-0.141-0.155-0.004-0.414,0-0.71c0.022-0.47-0.184-1.272,0.268-1.335c0.472,0.002,0.075,0.877,0.529,0.886   c0.257,0.069,0.335-0.12,0.357-0.249c0-0.009,0.003-0.018,0.003-0.018s-0.152-0.562-0.243-0.954   c0.282-0.675,0.481-1.424,1.136-1.712c-0.014-0.222-0.164-0.279,0-0.45c0.404-0.071,0.829-0.118,0.889-0.531   c0.143-0.352-0.163-0.069-0.357-0.27c-0.197-0.195,0.26-0.32,0.357-0.444c0.12-0.152,0.079-0.359,0.27-0.443   c-0.084-0.409-0.523,0.084-0.717-0.178c0.373-0.258,0.527-0.728,0.54-1.338c-0.3,0.152-0.164,0.73-0.715,0.624   c-0.066-0.26,0.061-0.708,0.176-1.157c0.082-0.29,0.351-0.576,0.54-0.798h0.532c0.091-0.298-0.276-0.14-0.445-0.179   c-0.026-0.182-0.239-0.173-0.266-0.355c-0.063-0.209,0.167-0.246,0.266-0.357c0.258-0.279,0.581-0.641,0.891-0.976   c0.322,0.017,0.339,0.119,0.623,0c-0.199-0.467-0.027-1.091,0.181-1.426c0.309,0.275,0.506,0.759,0.705,1.148   c1.162-0.306,1.533,0.425,2.493,0.187c-0.418-0.433-1.466-0.535-2.224-0.354c-0.351-0.271-0.584-0.664-0.709-1.159   c0.407,0.087,0.689,0.314,0.979,0.531c0.581-0.309,1.458-0.174,1.782,0.271c0.695-0.016,1.038-0.047,1.507,0.177   c1.021,0.48,1.635,1.699,3.031,1.959c-0.049,0.427-0.678,0.269-0.98,0.447c0.133,0.343,0.468,0.074,0.712,0   c0.283-0.091,0.435-0.377,0.62-0.183c-0.046,0.458-0.412,0.593-0.708,0.803c0.421,0.951-0.225,1.673,0,2.938   c-0.183,0.177-0.176-0.04-0.356-0.089c-0.123,0.238-0.333,0.557-0.359,0.89c-0.029,0.37,0.23,0.634,0.091,0.894   c-0.389,0.09-0.294-0.305-0.623-0.269c-0.299,0.324-0.357,0.892-0.62,1.244c-0.333,0.034-0.276-0.322-0.36-0.534   c-0.282,0.135-0.275,0.561-0.266,0.981c-0.27,0.004-1.403,0.749-1.403,0.749s0.62-0.018,1.312-0.038   c0.041,0.432-0.285,0.734-0.621,0.89c-0.169,0.078-0.312,0.006-0.624,0.091c-0.087,0.021-0.209,0.16-0.269,0.175   c-0.261,0.073-0.49,0.041-0.711,0.176c-0.351,0.215-0.623,0.467-0.889,0.714c0.142,0.227,0.427-0.157,0.622-0.178   c0.787,0.046,1.414-0.074,2.049-0.177c0.276-0.082,0.288-0.423,0.533-0.535c0.329,0.132,0.502,0.476,0.536,0.712   c0.021,0.162-0.097,0.768-0.179,0.888c-0.021,0.038-0.727,0.728-1.156,1.069c-0.16,0.129-0.298,0.348-0.451,0.446   c-0.185,0.128-0.374,0.136-0.53,0.267c-0.322,0.259-0.497,0.6-0.36,0.502c0.105-0.071,0.966-0.355,1.342-0.59   c0.235-0.149,0.354-0.272,0.618-0.443c0.385-0.252,0.766-0.579,0.891-1.156c0.435,0.333,0.08,1.243-0.083,1.509   c-0.075,0.124-0.173,0.285-0.27,0.446c-0.178,0.282-0.711,1.064-0.714,1.065c-0.317,0.154-0.511,0.52-0.354,0.447   c0.175-0.085,0.371-0.065,0.53-0.177c0.466-0.318,0.921-0.845,1.25-1.247c0.233,0.026,0.361,0.583,0.354,0.892   c0,0.136-0.054,0.427-0.091,0.532c-0.03,0.103-0.167,0.132-0.263,0.268c-0.075,0.106-0.112,0.282-0.179,0.355   c-0.13,0.155-0.326,0.17-0.445,0.358c-0.106,0.164-0.454,0.603-0.626,0.712c-0.03,0.621-0.285,1.019-0.442,1.514   c-0.142,0.155-0.019,0.267,0.091,0.178c0.214-0.174,0.403-0.398,0.62-0.626c0,0,0.097-0.104,0.092-0.092   c0.055-0.106,0.291-0.615,0.357-0.71c0.068-0.094,0.385-0.387,0.445-0.445c0.075-0.069,0.266-0.336,0.536-0.357   c0.495,0.925-0.27,1.665-0.89,2.14c-0.082,0.06-0.563,0.375-0.626,0.449c-0.154,0.166-0.348,0.565-0.449,0.795   c-0.06,0.142-0.122,0.298-0.175,0.446c-0.163,0.504-0.2,0.742-0.626,1.07c0.458,0.193,0.817-0.306,1.069-0.712   c0.146-0.237,0.188-0.551,0.36-0.805c0.036-0.059,0.191-0.169,0.266-0.266c0.175-0.229,0.691-0.34,1.334-0.979   c0.426,0.439,0.021,0.909-0.179,1.34c-0.136,0.287-0.295,0.592-0.44,0.886c-0.05,0.091-0.253,0.41-0.27,0.445   c-0.333,0.739-1.471,1.114-1.78,1.869c0.317,0.142,0.397-0.288,0.621-0.448c0.142-0.094,0.356-0.165,0.536-0.266   c0.178-0.096,0.363-0.148,0.536-0.267c0.24-0.167,0.715-0.532,0.715-0.532c0.185-0.467,0.548-0.76,0.711-1.248   c0.303,0.081,0.249,0.415,0.353,0.622c0.1,0.206,0.327,0.397,0.361,0.626c0.05,0.384-0.057,0.841-0.179,1.244   c-0.062,0.195-0.247,0.474-0.358,0.711c-0.094,0.192-0.253,0.867-0.268,0.981c-0.082,0.59-0.119,1.432,0.268,1.78   c0.176-0.177-0.033-0.423-0.094-0.623c0.168-1.343,1.026-2,1.249-3.295c0.313-0.012,0.702,0.744,0.89,0.803   c0.164,0.721-0.222,1.672-0.532,2.313c-0.037,0.075-0.442,0.635-0.538,0.802c-0.045,0.09-0.243,0.593-0.269,0.711   c-0.052,0.312,0.044,0.626,0,0.98c0.293,0.082,0.154-0.294,0.179-0.356c0.132-0.308,0.398-0.621,0.627-0.978   c0.063-0.104,0.489-0.509,0.625-0.98c0.022-0.077,0.168-0.336,0.177-0.355c0.128-0.393,0.082-0.865,0.175-1.334   c0.264-0.076,0.27,0.233,0.354,0.356c0.104,0.135,0.244,0.241,0.27,0.353c0.275,1.247-1.028,2.256-1.069,3.383   c0.28-0.081,0.445-0.512,0.625-0.799c0.185-0.307,0.309-0.633,0.533-0.891c0.221-0.08,0.097-0.498,0.448-0.449   c0.119,0.292,0.42,0.623,0.445,0.981c0.031,0.414-0.749,1.506-0.805,1.87c0.65-0.069,0.565-0.862,1.156-0.979   c0.038,0.284,0.671,1.829,1.783,1.692c-0.234,0.465-0.104,0.831,0,1.334c-0.39-0.026-1.527-0.479-1.789-0.946   c-0.114-0.1-0.097-0.334-0.257-0.388c-0.135,0.561,0.345,1.151,0.624,1.604c0.025,0.039,0.055,0.143,0.091,0.175   c0.275,0.263,0.675,0.248,0.887,0.532c-0.02,0.498-0.748,0.525-1.16,0.359c0.025,0.657,0.767,0.605,1.072,0.978   c-0.16,0.518-0.641,0.4-1.072,0.27c0,0.561,0.652,0.479,1.072,0.623c0.063,0.417-0.442,0.267-0.625,0.443   c0.049,0.232,0.293,0.386,0.45,0.534c0.403,0.385,0.972,0.787,1.242,1.427c-0.83-0.037-1.523-0.196-2.405-0.182   c0.088,0.403,0.604,0.199,0.894,0.269c0.405,0.097,0.785,0.339,1.154,0.356c0.456,0.703,1.036,1.28,1.338,2.133   c-0.222,0.136-0.845-0.274-1.287-0.035c0.185,0.182,0.66,0.689,0.841,0.928c0.071,0.096,0.091,0.302,0.179,0.443   c0.086,0.145,0.249,0.258,0.267,0.358c0.149,0.971-1.037,1.838-0.354,3.026C78.391,48.84,77.247,49.225,76.686,48.652z    M78.282,57.374c0.44-0.515,0.939-0.845,1.337-1.337c0.144-0.021,0.169-0.008,0.272,0.089c0.176,0.438,0.367,0.819,0.621,1.16   c0.304,0.408,0.76,0.668,0.978,1.155C79.97,58.543,79.188,57.898,78.282,57.374z M65.824,13.58c0,0,0.514-1.092,1.368-1.948   c-0.613,0.183-1.368,1.038-1.368,1.505c-0.97-0.781-1.422-1.102-2.761-1.351c0.272-0.617,0.414-1.369,0.179-2.036   c0,0.707-0.185,1.441-0.542,2.22c0.533,0.255,1.188,0.545,1.702,0.809C64.894,13.033,65.824,13.58,65.824,13.58z M64.487,18.117   c0.111-0.065,0.312-0.09,0.445-0.174c0.143-0.096,1.169-0.535,1.337-0.626c0.135-0.068,0.272-0.169,0.441-0.266   c0.313-0.179,0.363-0.257,0.445-0.444c0.071-0.147,0.345-0.205,0.267-0.446c0,0-2.638,0.864-3.2,2.048   c-0.066,0.136-0.433-0.004-0.358,0.266C64.182,18.635,64.287,18.257,64.487,18.117z M63.063,7.793c0.032,0.11-0.033,0.245,0,0.354   c0.062,0.189,0.304,0.344,0.179,0.624c0.54-0.13-0.008-0.833,0.267-1.157c0.252,0.107,0.616,0.098,0.979,0.091   c0.029-0.976-0.657-1.241-0.979-1.871c0.188-0.351,0.401-0.664,0.622-0.976c-0.005-0.112-0.026-0.213-0.172-0.18   c-0.124,0.62-0.698,0.856-0.895,1.335c-0.053,0.124,0.032,0.31,0,0.447c-0.047,0.182-0.163,0.201-0.178,0.352   c-0.01,0.104,0.097,0.283,0.09,0.448c-0.005,0.154-0.114,0.21-0.09,0.354C62.89,7.633,63.054,7.756,63.063,7.793z M63.242,6.192   c0.35,0.009,0.931,0.849,0.888,1.247C63.47,7.405,63.076,6.766,63.242,6.192z M64.577,13.58c-0.52-0.489-1.11-0.91-1.868-1.157   c0.119,0.756,0.67,1.307,1.421,1.421c0.167,0.024,0.49,0.015,0.712,0c0.136-0.01,0.565,0.135,0.539-0.175   C65.109,13.483,64.956,13.694,64.577,13.58z M67.607,5.301c0.121,0.045,0.217,0.199,0.354,0.268l0.53,0.177   c0.32,0.155,0.616,0.425,0.983,0.447c-0.072-0.405-1.886-1.442-2.943-1.333C66.676,5.353,67.231,5.167,67.607,5.301z M67.961,6.969   c0.05,0.427,0.812,0.597,1.082,0.331c0.1-0.105,0,0-0.013-0.221c0.201-0.154,0.64-0.071,0.624-0.442   c-0.271,0.029-0.319,0.273-0.714,0.176c-0.296-0.033-0.578-0.545-0.89-0.266C68.28,6.515,68.387,7.134,67.961,6.969z    M18.908,26.132c0.048-0.164,0.416-0.755,0-0.802c0.066,0.597-0.391,0.678-0.798,0.802C18.294,26.307,18.699,26.2,18.908,26.132z    M19.443,25.417c0.065,0.354,0.065,0.358,0,0.715c-0.064,0.142-0.433-0.02-0.358,0.266C19.782,26.701,19.961,25.487,19.443,25.417z    M17.13,23.995c0.004-0.172-0.051-0.537-0.354-0.626c0.174,0.529,0.202,0.994-0.359,1.16c-0.261,0.022-0.273-0.202-0.533-0.18   C16.144,25.174,17.126,24.668,17.13,23.995z M13.657,39.927c-0.238,0.398-0.506,0.786-0.533,1.335   c0.152,0.008,0.278-0.182,0.356-0.263c0.129-0.14,0.233-0.237,0.353-0.357c0.221-0.207,0.43-0.495,0.716-0.715   c0.111-0.086,0.998-0.567,1.064-0.624c0.171-0.127,0.604-0.646,0.626-0.708c0.722-1.917-0.241-3.353-0.355-3.385   c0.066,0.783,0.011,1.155-0.087,1.697c-0.104,0.528-0.115,0.729-0.27,0.979c-0.278,0.455-0.513,0.709-0.89,1.067   C14.517,39.066,13.717,39.832,13.657,39.927z M46.053,30.25l0.169-0.534l-0.169-0.121V30.25z M13.302,35.568   c1.013,0.688,1.848-0.48,1.605-1.869c-0.264,0.051-0.247,0.455-0.358,0.709c-0.115,0.268-0.06,0.591-0.445,0.624   c-0.578-0.429-0.32-1.402-0.447-2.137c-0.021-0.137-0.406-1.393-0.623-1.781c-0.017-0.068-0.072-0.104-0.176-0.086   c-0.176,0.333,0.115,0.553,0.176,0.889C13.261,33.129,12.85,34.659,13.302,35.568z M17.842,25.417   c0.178-0.208,0.204-0.563,0.178-0.973c-0.103,0.012-0.253-0.02-0.268,0.084c0.287,0.476-0.296,0.978-0.802,0.711   C16.906,25.691,17.62,25.484,17.842,25.417z M14.995,11.357c0.432,0.664,0.996,1.191,1.245,2.041   c0.487-0.073,0.85-0.274,1.34-0.353c0.068,0.313,0.356,0.414,0.353,0.799c-0.466,0.129-0.965,0.425-1.527,0.458   c-0.348-0.184-0.323-0.754-0.521-1.077c-0.191-0.311-0.742-0.326-0.635-0.167c0.343,0.529,0.729,0.925,0.886,1.602   c0.756-0.016,1.332-0.419,1.975-0.549c0.039,0.169-0.123,0.539,0.174,0.449c0.1-0.285,0.129-0.646,0.358-0.801   c0.681-0.062,1.001-0.482,1.422-0.803c0.122-0.676-0.178-1.261-0.354-1.609c-0.265-0.517-0.129,0.436,0,1.253   c-0.236,0.382-0.497,0.75-1.068,0.798c0-0.431,0.088-0.602-0.089-0.975c0.067-0.258,0.551-0.105,0.532-0.443   c-0.075-0.442-0.339-0.875-0.443-1.426c-0.064-0.367-0.022-0.805-0.089-1.158c-0.033-0.174-0.01-0.489-0.269-0.534   c-0.025,0.9-1.469,1.49-1.867,0.534c0-0.298,0.292-0.304,0.269-0.625c-0.109-0.777-0.385-1.393-1.247-1.423   c0.008,0.107,0.027,0.211,0.174,0.176c1.238,0.207,0.441,1.83-0.619,1.338c0.027,0.275,0.192,0.401,0.265,0.622   c0.273,0.114,0.792-0.021,0.894,0.267c-0.03,0.717-0.377,1.114-0.983,1.247c-0.277-0.039-0.615-0.315-0.801-0.177   C14.443,11.138,14.784,11.178,14.995,11.357z M16.417,10.018c0.301,0.15,0.573,0.315,1.069,0.27c0.185,0.398,0.626,0.91,0.798,1.51   c0.19,0.643,0.299,1.332,0,2.046c-0.254-0.125-0.186-0.456-0.442-0.708c-0.359-0.502-1.471-1.197-1.782-2.048   C16.188,10.742,16.292,10.369,16.417,10.018z M68.427,8.216c-0.106,0.016-0.154-0.289-0.288-0.245   c-0.113,0.038-0.248,0.195-0.357,0.266c-0.034,0.024-0.263,0.229-0.172,0.229c0.251,0,1.178,0.083,1.598,0.036   c0.213-0.02,0.374-0.23,0.533-0.083c-0.047,0.405-0.276,0.477-0.624,0.621c-0.247,0.1-0.774-0.123-0.714,0.266   c0.304,0.057,0.83-0.114,0.979,0.089c-0.108,0.45-0.563,0.561-1.158,0.532c-0.22,0.221,0.191,0.191,0.091,0.536   c-0.244,0.061-0.691,0.524-0.354,0.625c0.254-0.308,0.555-0.57,1.068-0.625c-0.044-0.274,0.328-0.238,0.445-0.357   c0.038-0.039,0.104-0.252,0.179-0.355c0.064-0.086,0.256-0.24,0.266-0.267c0.11-0.265,0.022-0.647,0.085-0.981   c0.067-0.315,0.255-0.567,0.268-0.889c-0.019-0.069-0.074-0.104-0.177-0.09C69.978,8.323,68.457,8.213,68.427,8.216z M14.104,7.793   c-0.157-0.081-0.345-0.197-0.177-0.354c0.131,0.023,0.373,0.382,0.442,0.175c-0.251-0.159-0.477-0.35-0.442-0.802   c-0.168-0.001-0.191,0.069-0.094,0.178c-0.116,0.295-0.799,0.449-0.799,0.449s-0.582,0.364-0.443,0.98   C13.152,8.267,13.869,8.27,14.104,7.793z M12.858,8.147c-0.039-0.183,0.06-0.232,0.088-0.354c0.117,0.032,0.14,0.158,0.268,0.179   C13.191,8.128,13.06,8.175,12.858,8.147z M23.363,23.104c0.347,0.292,1.763,1.145,1.869,1.244c0.254,0.247,0.247,0.662,0.619,0.805   c0.207-0.616-0.353-1.337-0.619-1.6c-0.302-0.299-0.524-0.524-0.889-0.715c-1.462-0.78-2.17-2.608-2.316-2.579   c0.041,1.084,0.479,1.828,0.89,2.4C23.021,22.804,23.337,23.081,23.363,23.104z M12.947,10.646   c-0.173-0.173-0.259-0.467-0.355-0.627c-0.096-0.155-0.149-0.487-0.444-0.534c0.259,1.866,1.753,1.703,2.222,2.405   C14.295,11.092,13.385,11.059,12.947,10.646z M20.688,26.397c-0.064-0.201,0.162-0.695-0.174-0.623c0,0,0.107,0.531-0.45,0.977   C20.521,26.88,20.448,26.483,20.688,26.397z"/>
	<g>
		<path fill="#FFFFFF" d="M21.629,61.749L21.629,61.749c-0.1,0.304-0.107,0.543-0.011,0.724c0.14,0.28,0.502,0.446,1.041,0.62    c0.917,0.303,1.367,0.304,1.626-0.477c0,0,0.813-2.492,0.953-2.917c-0.111-0.035-0.739-0.234-0.849-0.274    c-0.044,0.125-0.963,2.941-0.963,2.941c-0.047,0.144-0.283,0.256-0.583,0.155c-0.215-0.065-0.41-0.231-0.41-0.346    c0-0.046,0.01-0.09,0.024-0.129c0,0,0.82-2.516,0.962-2.938c-0.11-0.038-0.728-0.238-0.837-0.277    C22.54,58.961,21.629,61.749,21.629,61.749z"/>
	</g>
	<g>
		<path fill="#FFFFFF" d="M7.855,55.894c0.096,0.056,0.667,0.403,0.762,0.462c0.069-0.115,1.773-2.914,1.773-2.914l0.275,0.204    c0,0-1.202,3.15-1.241,3.256c0.088,0.051,0.668,0.357,0.755,0.414c0.07-0.084,2.404-2.539,2.404-2.539l0.267,0.176    c0,0-1.73,2.769-1.806,2.884c0.098,0.06,0.683,0.414,0.781,0.476c0.067-0.115,2-3.284,2.069-3.401    c-0.107-0.063-1.239-0.75-1.331-0.81c-0.074,0.088-2.202,2.366-2.202,2.366l-0.248-0.101c0,0,1.072-2.971,1.115-3.08    c-0.094-0.052-1.199-0.727-1.308-0.794C9.855,52.605,7.925,55.777,7.855,55.894z"/>
	</g>
	<g>
		<path fill="#FFFFFF" d="M13.212,59.023c0.123,0.061,0.837,0.412,0.929,0.455c0.061-0.093,0.565-0.828,0.565-0.828l0.79,0.385    c0,0-0.271,0.854-0.302,0.955c0.089,0.041,0.804,0.394,0.93,0.454c0.041-0.155,1.055-3.79,1.083-3.902    c-0.095-0.043-1.495-0.728-1.59-0.772C15.553,55.859,13.308,58.892,13.212,59.023z"/>
	</g>
	<g>
		<path fill="#FFFFFF" d="M18.882,60.764L18.882,60.764c-0.073,0.181-0.217,0.211-0.492,0.099c-0.093-0.032-0.176-0.115-0.215-0.212    c-0.017-0.04-0.027-0.077-0.027-0.114c0-0.03,0.007-0.056,0.016-0.077c0,0,0.155-0.38,0.214-0.519    c-0.107-0.045-0.724-0.296-0.826-0.34c-0.047,0.109-0.275,0.668-0.275,0.668c-0.055,0.127-0.081,0.237-0.081,0.331    c0,0.061,0.008,0.111,0.031,0.159c0.095,0.228,0.447,0.403,0.946,0.593c1.306,0.505,1.324,0.465,1.647-0.189    c-0.002,0.008,1.042-2.553,1.215-2.976c-0.107-0.04-0.835-0.346-0.942-0.386C20.042,57.927,18.882,60.764,18.882,60.764z"/>
	</g>
	<g>
		<path fill="#FFFFFF" d="M25.751,63.931c0.124,0.034,2.098,0.553,2.222,0.583c0.025-0.098,0.125-0.482,0.152-0.578    c-0.123-0.032-1.238-0.326-1.238-0.326s0.818-3.145,0.852-3.275c-0.113-0.032-0.872-0.229-0.986-0.255    C26.716,60.209,25.786,63.802,25.751,63.931z"/>
	</g>
	<g>
		<path fill="#FFFFFF" d="M29,64.749c0.133,0.03,0.916,0.179,1.015,0.197C30.049,64.842,30.347,64,30.347,64l0.862,0.166    c0,0-0.042,0.893-0.047,1.001c0.103,0.021,0.882,0.168,1.017,0.193c0.004-0.155,0.032-3.933,0.034-4.044    c-0.103-0.02-1.631-0.313-1.735-0.332C30.434,61.089,29.057,64.601,29,64.749z"/>
	</g>
	<g>
		<path fill="#FFFFFF" d="M33.579,65.575c0.115,0.018,0.687,0.109,0.799,0.124c0.018-0.13,0.213-1.763,0.213-1.763l1.228,0.112    c0,0-0.198,1.631-0.211,1.759c0.115,0.013,0.684,0.094,0.798,0.106c0.014-0.131,0.459-3.816,0.477-3.945    c-0.117-0.019-0.685-0.099-0.8-0.112c-0.015,0.127-0.192,1.6-0.192,1.6l-1.229-0.111c0,0,0.177-1.475,0.192-1.596    c-0.114-0.018-0.684-0.11-0.8-0.124C34.036,61.759,33.595,65.441,33.579,65.575z"/>
	</g>
	<g>
		<path fill="#FFFFFF" d="M42.678,62.166L42.678,62.166c-0.643,0.006-1.006,0.044-1.193,0.239c-0.138,0.141-0.194,0.376-0.192,0.761    l0.003,0.255c0.007,0.694,0.159,0.845,1.029,1.005c0.616,0.118,0.747,0.139,0.75,0.482v0.446c0.004,0.099-0.02,0.17-0.072,0.221    c-0.062,0.065-0.165,0.094-0.334,0.096c-0.169,0.005-0.266-0.022-0.331-0.085c-0.084-0.082-0.084-0.21-0.088-0.381    c0,0-0.003-0.142-0.003-0.225c-0.114,0.004-0.819,0.009-0.933,0.011c0,0.088,0.003,0.273,0.003,0.273    c0.005,0.765,0.194,0.982,1.427,0.974c0.961-0.011,1.36-0.168,1.35-1.112c-0.009-1.016-0.124-1.067-1.334-1.311    c-0.344-0.065-0.483-0.121-0.488-0.44l-0.002-0.271c-0.003-0.209,0.026-0.37,0.395-0.373c0.338-0.002,0.401,0.065,0.407,0.459    c0,0,0,0.071,0,0.13c0.113-0.003,0.779-0.006,0.893-0.009c0-0.105-0.007-0.425-0.007-0.425c0-0.22-0.055-0.371-0.162-0.478    C43.62,62.232,43.272,62.16,42.678,62.166z"/>
	</g>
	<g>
		<path fill="#FFFFFF" d="M45.502,62.135c0.008,0.132,0.241,3.836,0.244,3.972c0.116-0.008,0.902-0.057,1.019-0.063    c-0.01-0.139-0.237-3.844-0.248-3.979C46.404,62.075,45.618,62.125,45.502,62.135z"/>
	</g>
	<g>
		<path fill="#FFFFFF" d="M50.625,61.629c0.026,0.138,0.491,3.092,0.491,3.092L50.97,64.77c0,0-1.3-2.913-1.338-3.009    c-0.097,0.011-1.335,0.17-1.457,0.188c0.016,0.136,0.496,3.814,0.512,3.948c0.115-0.016,0.806-0.103,0.918-0.117    c-0.023-0.139-0.475-3.427-0.475-3.427l0.229-0.041c0,0,1.415,3.244,1.454,3.348c0.102-0.011,1.135-0.188,1.257-0.206    c-0.016-0.132-0.497-3.813-0.515-3.944C51.443,61.524,50.741,61.615,50.625,61.629z"/>
	</g>
	<g>
		<path fill="#FFFFFF" d="M54.618,60.862L54.618,60.862c-1.063,0.228-1.579,0.454-1.466,1.108l0.523,2.459    c0.038,0.171,0.119,0.296,0.252,0.386c0.281,0.18,0.781,0.189,1.538,0.03c0.933-0.196,1.257-0.385,1.257-0.836    c0-0.091-0.014-0.194-0.039-0.313c0,0-0.204-0.967-0.26-1.229c-0.116,0.026-1.243,0.229-1.367,0.258    c0.022,0.101,0.111,0.545,0.134,0.658c0.095-0.024,0.53-0.089,0.53-0.089l0.136,0.561c0.031,0.232-0.146,0.388-0.377,0.433    c-0.295,0.062-0.698,0.097-0.767-0.08c-0.003-0.012-0.503-2.352-0.503-2.352c-0.03-0.142,0.024-0.33,0.442-0.42    c0.176-0.038,0.533-0.11,0.597,0.188c0,0,0.05,0.231,0.076,0.354c0.112-0.028,0.839-0.181,0.954-0.203    c-0.019-0.095-0.067-0.326-0.067-0.326c-0.06-0.274-0.17-0.458-0.332-0.565C55.604,60.702,55.177,60.745,54.618,60.862z"/>
	</g>
	<g>
		<path fill="#FFFFFF" d="M57.67,60.172c0.012,0.11,0.379,3.867,0.396,4.028c0.133-0.037,0.894-0.264,0.996-0.288    c-0.014-0.103-0.136-0.989-0.136-0.989l0.843-0.245c0,0,0.368,0.816,0.414,0.912c0.097-0.028,0.867-0.248,0.994-0.286    c-0.069-0.147-1.76-3.522-1.808-3.623C59.27,59.714,57.773,60.142,57.67,60.172z"/>
	</g>
	<g>
		<path fill="#FFFFFF" d="M62.791,58.516c0,0-1.382,0.51-1.504,0.551c0.049,0.129,1.329,3.614,1.373,3.744    c0.111-0.043,0.845-0.315,0.956-0.352c-0.043-0.116-0.405-1.104-0.405-1.104l0.436-0.153c0.542-0.201,0.82-0.394,0.932-0.632    c0.042-0.093,0.062-0.189,0.062-0.302c0-0.169-0.041-0.371-0.132-0.622l-0.248-0.673c-0.104-0.275-0.24-0.452-0.43-0.539    C63.59,58.322,63.257,58.351,62.791,58.516z M62.393,59.219l0.611-0.2c0.169-0.063,0.354-0.108,0.441,0.127l0.374,1.023    c0.053,0.141,0.06,0.246,0.012,0.334c-0.031,0.078-0.104,0.135-0.213,0.174L63,60.879L62.393,59.219z"/>
	</g>
	<g>
		<path fill="#FFFFFF" d="M66.717,56.896c0.059,0.125,1.272,2.82,1.272,2.82c0.023,0.06,0.038,0.109,0.038,0.159    c0,0.034-0.006,0.065-0.016,0.094c-0.037,0.082-0.108,0.152-0.231,0.206c-0.285,0.127-0.42-0.009-0.48-0.148    c0,0-1.21-2.697-1.267-2.821c-0.106,0.049-0.825,0.371-0.932,0.415c0.056,0.126,1.257,2.797,1.257,2.797    c0.335,0.753,0.786,0.699,1.665,0.309c0.657-0.299,1.01-0.54,1.01-0.954c0-0.143-0.042-0.303-0.125-0.493    c0,0-1.202-2.679-1.257-2.8C67.546,56.527,66.825,56.85,66.717,56.896z"/>
	</g>
	<g>
		<path fill="#FFFFFF" d="M70.166,55.179c0,0-1.082,0.588-1.191,0.648c0.062,0.119,1.835,3.382,1.897,3.498    c0.104-0.054,0.796-0.434,0.892-0.487c-0.057-0.109-0.673-1.25-0.673-1.25l0.23-0.127c0.309-0.164,0.536-0.229,0.66,0    c0,0,0.411,0.759,0.532,0.974c0.1-0.056,0.792-0.434,0.896-0.484c-0.061-0.111-0.5-0.926-0.5-0.926    c-0.211-0.383-0.414-0.354-0.936-0.185l-0.07-0.133c0.395-0.288,0.545-0.521,0.275-1.016l-0.238-0.438    c-0.146-0.271-0.292-0.422-0.47-0.47C71.204,54.705,70.829,54.819,70.166,55.179z M70.068,55.786l0.578-0.286    c0.279-0.15,0.478-0.105,0.613,0.139l0.324,0.602c0.17,0.32,0.103,0.485-0.307,0.705l-0.455,0.224L70.068,55.786z"/>
	</g>
	<g>
		<path fill="#FFFFFF" d="M73.122,53.456c0.048,0.104,1.537,3.575,1.6,3.725c0.116-0.081,0.772-0.52,0.86-0.576    c-0.049-0.1-0.428-0.907-0.428-0.907l0.73-0.488c0,0,0.596,0.665,0.67,0.742c0.085-0.053,0.745-0.495,0.859-0.571    c-0.111-0.116-2.74-2.826-2.819-2.903C74.502,52.535,73.21,53.398,73.122,53.456z"/>
	</g>
	<polygon fill="#313639" points="14.924,58.222 15.751,58.626 16.252,56.501  "/>
	<polygon fill="#313639" points="30.464,63.564 31.368,63.727 31.274,61.546  "/>
	<polygon fill="#313639" points="58.786,62.47 59.666,62.204 58.597,60.307  "/>
	<polygon fill="#313639" points="74.876,55.305 75.633,54.794 74.028,53.265  "/>
</g>
<g>
	<rect x="87.219" y="15.5" fill="none" width="132.531" height="40.247"/>
	<path fill="#313639" d="M97.351,17.017l0.149,2.669l-0.25,0.034c-0.172-0.775-0.425-1.275-0.761-1.5   c-0.335-0.224-0.796-0.336-1.381-0.336h-3.368v4.813h3.138c0.414,0,0.743-0.12,0.989-0.361c0.246-0.241,0.373-0.755,0.38-1.542   h0.229v4.488h-0.229c-0.021-0.702-0.15-1.178-0.387-1.427s-0.564-0.375-0.983-0.375h-3.138v5.524h3.368   c0.899,0,1.588-0.185,2.066-0.554c0.478-0.369,0.856-0.987,1.136-1.853l0.214,0.068l-0.891,3.206h-9.604V29.63h0.294   c0.615,0,1.014-0.127,1.197-0.383c0.183-0.255,0.274-0.562,0.274-0.92v-9.771c0-0.358-0.091-0.664-0.274-0.918   s-0.582-0.381-1.197-0.381h-0.294v-0.241H97.351z"/>
	<path fill="#313639" d="M103.751,29.004h3.304c1.582,0,2.687-0.86,3.315-2.58l0.213,0.084l-0.991,3.363h-9.551V29.63h0.294   c0.615,0,1.014-0.127,1.197-0.383c0.183-0.255,0.274-0.562,0.274-0.92v-9.771c0-0.358-0.091-0.664-0.274-0.918   s-0.582-0.381-1.197-0.381h-0.294v-0.241h5.479v0.241h-0.298c-0.612,0-1.011,0.127-1.194,0.381   c-0.184,0.254-0.276,0.56-0.276,0.918V29.004z"/>
	<path fill="#313639" d="M120.961,17.017l0.149,2.669l-0.25,0.034c-0.172-0.775-0.425-1.275-0.761-1.5   c-0.335-0.224-0.796-0.336-1.381-0.336h-3.368v4.813h3.138c0.414,0,0.743-0.12,0.989-0.361c0.246-0.241,0.373-0.755,0.38-1.542   h0.229v4.488h-0.229c-0.021-0.702-0.15-1.178-0.387-1.427s-0.564-0.375-0.983-0.375h-3.138v5.524h3.368   c0.899,0,1.588-0.185,2.066-0.554c0.478-0.369,0.856-0.987,1.136-1.853l0.214,0.068l-0.891,3.206h-9.604V29.63h0.294   c0.615,0,1.014-0.127,1.197-0.383c0.183-0.255,0.274-0.562,0.274-0.92v-9.771c0-0.358-0.091-0.664-0.274-0.918   s-0.582-0.381-1.197-0.381h-0.294v-0.241H120.961z"/>
	<path fill="#313639" d="M134.509,16.945l0.197,4.09l-0.229,0.034c-0.129-0.601-0.356-1.165-0.683-1.694   c-0.327-0.529-0.773-0.961-1.342-1.298c-0.568-0.337-1.247-0.506-2.036-0.506c-0.618,0-1.198,0.12-1.74,0.36   s-1.022,0.599-1.438,1.076c-0.417,0.478-0.744,1.083-0.983,1.815c-0.239,0.731-0.358,1.565-0.358,2.501   c0,0.939,0.123,1.772,0.368,2.5c0.246,0.728,0.589,1.333,1.029,1.814c0.44,0.482,0.949,0.843,1.527,1.081   c0.577,0.239,1.192,0.357,1.845,0.357c1.541,0,2.921-0.768,4.141-2.305l0.379,0.364c-1.348,1.94-3.025,2.91-5.031,2.91   c-0.911,0-1.758-0.175-2.544-0.524s-1.466-0.834-2.042-1.455c-0.576-0.62-1.021-1.333-1.333-2.138   c-0.313-0.805-0.469-1.656-0.469-2.553c0-0.99,0.173-1.891,0.52-2.703c0.346-0.812,0.825-1.504,1.436-2.077   c0.611-0.573,1.306-1.007,2.084-1.305c0.779-0.297,1.599-0.446,2.461-0.446c0.905,0,1.802,0.185,2.691,0.554   c0.387,0.149,0.645,0.224,0.773,0.224c0.341,0,0.534-0.226,0.58-0.677H134.509z"/>
	<path fill="#313639" d="M136.504,17.017h10.429l0.145,2.91h-0.229c-0.078-1.362-0.815-2.043-2.211-2.043h-1.946v10.443   c0,0.37,0.096,0.679,0.288,0.929c0.192,0.25,0.584,0.374,1.178,0.374h0.298v0.241h-5.479V29.63h0.298   c0.507,0,0.879-0.105,1.116-0.315s0.354-0.54,0.354-0.988V17.884h-1.95c-1.396,0-2.134,0.681-2.211,2.043h-0.229L136.504,17.017z"/>
	<path fill="#313639" d="M148.367,17.017h5.495v0.241h-0.298c-0.604,0-1.003,0.125-1.197,0.373s-0.29,0.557-0.29,0.926v9.771   c0,0.37,0.097,0.679,0.29,0.929s0.592,0.374,1.197,0.374h0.298v0.241h-5.495V29.63h0.294c0.615,0,1.014-0.127,1.197-0.383   c0.183-0.255,0.274-0.562,0.274-0.92v-9.771c0-0.358-0.091-0.664-0.274-0.918s-0.582-0.381-1.197-0.381h-0.294V17.017z"/>
	<path fill="#313639" d="M161.416,30.044c-1.037,0-1.992-0.289-2.866-0.867c-0.875-0.578-1.564-1.375-2.069-2.39   s-0.757-2.147-0.757-3.396c0-1.325,0.286-2.486,0.858-3.481c0.572-0.996,1.324-1.755,2.256-2.28   c0.932-0.524,1.908-0.787,2.929-0.787c0.787,0,1.527,0.161,2.222,0.484c0.694,0.323,1.301,0.781,1.821,1.373   c0.52,0.592,0.924,1.299,1.214,2.119c0.29,0.821,0.436,1.713,0.436,2.678c0,0.86-0.138,1.682-0.413,2.466   c-0.275,0.784-0.679,1.485-1.21,2.104c-0.532,0.619-1.172,1.104-1.921,1.453C163.164,29.87,162.332,30.044,161.416,30.044z    M161.517,29.3c0.51,0,0.995-0.123,1.454-0.368s0.866-0.613,1.221-1.104s0.632-1.101,0.833-1.832   c0.202-0.73,0.302-1.558,0.302-2.483c0-1.345-0.179-2.464-0.536-3.356c-0.357-0.893-0.815-1.544-1.374-1.955   c-0.559-0.41-1.143-0.615-1.752-0.615c-0.411,0-0.834,0.1-1.271,0.298s-0.847,0.521-1.232,0.966   c-0.386,0.446-0.7,1.046-0.943,1.802c-0.243,0.756-0.364,1.663-0.364,2.72c0,1.196,0.158,2.244,0.473,3.143   s0.751,1.588,1.307,2.066S160.818,29.3,161.517,29.3z"/>
	<path fill="#313639" d="M172.442,17.017l7.605,9.39v-7.85c0-0.367-0.092-0.675-0.275-0.924s-0.581-0.375-1.19-0.375h-0.298v-0.241   h4.322v0.241h-0.314c-0.609,0-1.006,0.125-1.19,0.375s-0.276,0.558-0.276,0.924v11.488h-0.232l-8.597-10.481v8.764   c0,0.448,0.118,0.778,0.354,0.988s0.608,0.315,1.116,0.315h0.298v0.241h-4.327V29.63h0.314c0.609,0,1.007-0.125,1.192-0.376   c0.185-0.251,0.278-0.56,0.278-0.926v-9.754c-0.347-0.442-0.707-0.772-1.08-0.99c-0.374-0.217-0.8-0.326-1.281-0.326v-0.241   H172.442z"/>
	<path fill="#313639" d="M191.633,16.844v4.141h-0.234c-0.018-0.618-0.174-1.187-0.469-1.709c-0.294-0.521-0.68-0.933-1.156-1.235   s-0.979-0.453-1.508-0.453c-0.328,0-0.645,0.074-0.951,0.222s-0.554,0.356-0.743,0.624c-0.189,0.268-0.284,0.575-0.284,0.922   c0,0.392,0.12,0.756,0.361,1.093c0.24,0.337,0.557,0.65,0.95,0.939s0.88,0.604,1.46,0.945c1.068,0.643,1.892,1.294,2.467,1.955   c0.576,0.66,0.865,1.499,0.865,2.517c0,0.68-0.186,1.265-0.555,1.757s-0.851,0.862-1.443,1.11   c-0.594,0.248-1.227,0.372-1.898,0.372c-0.346,0-0.623-0.027-0.831-0.08c-0.208-0.054-0.535-0.154-0.981-0.3   c-0.359-0.138-0.646-0.226-0.857-0.263h-0.282c-0.331,0.065-0.528,0.279-0.593,0.643h-0.232l0.02-4.348h0.229   c0.143,0.967,0.495,1.801,1.06,2.502s1.311,1.051,2.24,1.051c0.413,0,0.799-0.071,1.156-0.212c0.356-0.141,0.645-0.356,0.861-0.647   c0.218-0.291,0.326-0.646,0.326-1.066c0-0.533-0.143-1.006-0.427-1.421s-0.618-0.76-0.999-1.037s-0.853-0.578-1.414-0.905   c-0.625-0.366-1.148-0.712-1.568-1.036c-0.421-0.324-0.775-0.722-1.066-1.193c-0.289-0.471-0.435-1.015-0.435-1.632   c0-0.502,0.095-0.958,0.286-1.366c0.19-0.409,0.453-0.754,0.789-1.037c0.336-0.282,0.716-0.495,1.141-0.639   c0.424-0.144,0.868-0.215,1.333-0.215c0.532,0,1.164,0.144,1.897,0.431c0.25,0.116,0.48,0.173,0.693,0.173   c0.142,0,0.271-0.059,0.387-0.178c0.115-0.118,0.185-0.261,0.209-0.427H191.633z"/>
	<path fill="#313639" d="M88.029,32.017h5.458c1.724,0,3.144,0.294,4.258,0.884c1.115,0.589,1.921,1.363,2.421,2.322   c0.499,0.958,0.749,2.003,0.749,3.134c0,1.204-0.27,2.303-0.81,3.295c-0.54,0.992-1.321,1.777-2.343,2.354   c-1.021,0.577-2.222,0.865-3.599,0.865h-6.135V44.63h0.294c0.615,0,1.014-0.128,1.197-0.383s0.274-0.562,0.274-0.92v-9.771   c0-0.358-0.091-0.664-0.274-0.918s-0.582-0.381-1.197-0.381h-0.294V32.017z M91.739,32.952V43.92   c0.54,0.172,1.306,0.258,2.296,0.258c1.063,0,1.952-0.277,2.665-0.832c0.713-0.554,1.239-1.289,1.577-2.205   s0.508-1.919,0.508-3.007c0-1.241-0.25-2.268-0.75-3.082s-1.149-1.404-1.95-1.772c-0.8-0.368-1.66-0.552-2.578-0.552   C92.868,32.728,92.279,32.802,91.739,32.952z"/>
	<path fill="#313639" d="M112.103,32.017l0.149,2.669l-0.25,0.034c-0.172-0.775-0.425-1.275-0.761-1.5   c-0.335-0.224-0.796-0.336-1.381-0.336h-3.368v4.813h3.138c0.414,0,0.743-0.12,0.989-0.361c0.246-0.241,0.373-0.755,0.38-1.542   h0.229v4.487h-0.229c-0.021-0.701-0.15-1.178-0.387-1.427s-0.564-0.375-0.983-0.375h-3.138v5.524h3.368   c0.899,0,1.588-0.185,2.066-0.555c0.478-0.369,0.856-0.986,1.136-1.852l0.214,0.067l-0.891,3.206h-9.604V44.63h0.294   c0.615,0,1.014-0.128,1.197-0.383s0.274-0.562,0.274-0.92v-9.771c0-0.358-0.091-0.664-0.274-0.918s-0.582-0.381-1.197-0.381h-0.294   v-0.241H112.103z"/>
	<path fill="#313639" d="M114.794,32.017h4.898c3.233,0,4.85,1.138,4.85,3.413c0,0.739-0.179,1.39-0.536,1.954   c-0.357,0.564-0.85,0.997-1.479,1.299c-0.628,0.301-1.332,0.452-2.111,0.452c-0.414,0-1.051-0.116-1.914-0.347v4.538   c0,0.358,0.092,0.665,0.276,0.92c0.184,0.255,0.582,0.383,1.194,0.383h0.298v0.241h-5.479V44.63h0.294   c0.508,0,0.88-0.104,1.116-0.315c0.236-0.209,0.354-0.539,0.354-0.987v-9.771c0-0.448-0.117-0.777-0.351-0.986   c-0.233-0.208-0.607-0.313-1.12-0.313h-0.294V32.017z M118.504,32.863v5.271c0.43,0.161,0.909,0.241,1.438,0.241   c0.717,0,1.261-0.188,1.633-0.564s0.607-0.768,0.707-1.174c0.099-0.406,0.149-0.733,0.149-0.981c0-1.145-0.299-1.91-0.898-2.296   c-0.599-0.386-1.245-0.58-1.938-0.58C119.145,32.778,118.781,32.807,118.504,32.863z"/>
	<path fill="#313639" d="M124.905,44.871V44.63c0.341-0.045,0.632-0.206,0.873-0.484c0.24-0.277,0.477-0.7,0.711-1.267l4.653-11.035   h0.165l4.669,11.035c0.217,0.496,0.378,0.837,0.481,1.021c0.104,0.185,0.257,0.342,0.459,0.469c0.203,0.129,0.489,0.216,0.86,0.261   v0.241h-4.902V44.63c0.486-0.085,0.814-0.188,0.985-0.313c0.17-0.123,0.256-0.279,0.256-0.469c0-0.246-0.044-0.488-0.133-0.728   l-1.023-2.458h-4.604l-1.007,2.441c-0.132,0.332-0.197,0.569-0.197,0.71c0,0.296,0.135,0.507,0.405,0.63   c0.27,0.125,0.552,0.187,0.848,0.187v0.241H124.905z M130.662,35.083l-1.994,4.796h4.008L130.662,35.083z"/>
	<path fill="#313639" d="M138.373,32.017h5.575c0.647,0,1.264,0.062,1.851,0.186s1.115,0.426,1.585,0.907   c0.47,0.481,0.705,1.202,0.705,2.164c0,0.629-0.14,1.181-0.421,1.656s-0.645,0.853-1.092,1.131   c-0.447,0.279-0.917,0.464-1.408,0.554l3.352,4.521c0.384,0.52,0.729,0.893,1.033,1.121s0.698,0.353,1.178,0.372v0.241h-3.352   l-4.222-6.065h-1.059v4.521c0,0.358,0.092,0.665,0.276,0.92c0.184,0.255,0.582,0.383,1.194,0.383h0.298v0.241h-5.495V44.63h0.294   c0.604,0,1.003-0.124,1.197-0.374s0.29-0.559,0.29-0.929V33.54c0-0.386-0.104-0.696-0.31-0.931   c-0.207-0.234-0.599-0.351-1.177-0.351h-0.294V32.017z M142.099,32.829v5.232c0.134,0.012,0.322,0.017,0.563,0.017   c0.752,0,1.387-0.119,1.906-0.357c0.518-0.238,0.902-0.566,1.152-0.983c0.25-0.417,0.375-0.894,0.375-1.43   c0-0.442-0.096-0.869-0.286-1.277c-0.191-0.409-0.492-0.743-0.904-1.002c-0.413-0.259-0.929-0.389-1.549-0.389   C142.92,32.639,142.501,32.702,142.099,32.829z"/>
	<path fill="#313639" d="M151.126,32.017h10.429l0.145,2.91h-0.229c-0.078-1.362-0.815-2.043-2.211-2.043h-1.946v10.443   c0,0.37,0.096,0.679,0.288,0.929c0.192,0.25,0.584,0.374,1.178,0.374h0.298v0.241H153.6V44.63h0.298   c0.507,0,0.879-0.104,1.116-0.315c0.236-0.209,0.354-0.539,0.354-0.987V32.884h-1.95c-1.396,0-2.134,0.681-2.211,2.043h-0.229   L151.126,32.017z"/>
	<path fill="#313639" d="M166.7,32.017l4.142,9.648l4.125-9.648h3.697v0.241h-0.298c-0.513,0-0.886,0.104-1.118,0.313   c-0.232,0.209-0.348,0.538-0.348,0.986v9.771c0,0.448,0.117,0.778,0.35,0.987c0.234,0.211,0.605,0.315,1.116,0.315h0.298v0.241   h-5.494V44.63h0.314c0.609,0,1.006-0.126,1.19-0.378c0.184-0.253,0.276-0.561,0.276-0.925v-9.284l-4.636,10.828h-0.149   l-4.601-10.862v9.318c0,0.364,0.092,0.672,0.276,0.925c0.184,0.252,0.581,0.378,1.19,0.378h0.314v0.241h-4.354V44.63h0.294   c0.615,0,1.014-0.128,1.197-0.383s0.274-0.562,0.274-0.92v-9.771c0-0.358-0.091-0.664-0.274-0.918s-0.582-0.381-1.197-0.381h-0.294   v-0.241H166.7z"/>
	<path fill="#313639" d="M189.734,32.017l0.149,2.669l-0.25,0.034c-0.172-0.775-0.425-1.275-0.761-1.5s-0.797-0.336-1.382-0.336   h-3.368v4.813h3.139c0.413,0,0.742-0.12,0.988-0.361s0.373-0.755,0.381-1.542h0.229v4.487h-0.229   c-0.021-0.701-0.15-1.178-0.387-1.427s-0.564-0.375-0.982-0.375h-3.139v5.524h3.368c0.899,0,1.589-0.185,2.066-0.555   c0.478-0.369,0.856-0.986,1.136-1.852l0.214,0.067l-0.891,3.206h-9.604V44.63h0.294c0.615,0,1.014-0.128,1.197-0.383   c0.182-0.255,0.273-0.562,0.273-0.92v-9.771c0-0.358-0.092-0.664-0.273-0.918c-0.184-0.254-0.582-0.381-1.197-0.381h-0.294v-0.241   H189.734z"/>
	<path fill="#313639" d="M195.544,32.017l7.605,9.389v-7.85c0-0.367-0.093-0.675-0.276-0.924s-0.58-0.375-1.189-0.375h-0.299v-0.241   h4.322v0.241h-0.314c-0.609,0-1.006,0.125-1.189,0.375c-0.185,0.25-0.276,0.558-0.276,0.924v11.488h-0.233l-8.597-10.482v8.764   c0,0.448,0.118,0.778,0.354,0.987c0.236,0.211,0.608,0.315,1.115,0.315h0.299v0.241h-4.326V44.63h0.314   c0.609,0,1.006-0.126,1.191-0.376c0.186-0.252,0.278-0.561,0.278-0.927v-9.754c-0.347-0.442-0.706-0.772-1.079-0.99   c-0.374-0.217-0.801-0.326-1.281-0.326v-0.241H195.544z"/>
	<path fill="#313639" d="M207.029,32.017h10.43l0.145,2.91h-0.229c-0.078-1.362-0.815-2.043-2.212-2.043h-1.945v10.443   c0,0.37,0.096,0.679,0.288,0.929s0.585,0.374,1.179,0.374h0.297v0.241h-5.479V44.63h0.299c0.508,0,0.879-0.104,1.115-0.315   c0.236-0.209,0.355-0.539,0.355-0.987V32.884h-1.95c-1.396,0-2.134,0.681-2.212,2.043h-0.229L207.029,32.017z"/>
</g>
<g>
	<rect x="79.984" y="46.92" fill="none" width="103.266" height="15.788"/>
	<path fill="#313639" d="M93.831,50.281c-0.393-0.611-1.093-0.883-1.807-0.883c-1.037,0-2.115,0.476-2.115,1.617   c0,0.885,0.504,1.278,2.087,1.768c1.541,0.477,2.97,0.965,2.97,2.855c0,1.916-1.695,2.814-3.488,2.814   c-1.148,0-2.381-0.367-3.054-1.332l1.009-0.803c0.42,0.707,1.261,1.074,2.115,1.074c1.009,0,2.157-0.571,2.157-1.672   c0-1.184-0.826-1.387-2.591-1.959c-1.401-0.448-2.465-1.047-2.465-2.65c0-1.85,1.639-2.773,3.376-2.773   c1.106,0,2.045,0.299,2.773,1.128L93.831,50.281z"/>
	<path fill="#313639" d="M97.852,48.582h1.176v9.626h-1.176V48.582z"/>
	<path fill="#313639" d="M102.432,48.582h1.485l5.743,7.994h0.028v-7.994h1.176v9.626h-1.484l-5.743-7.994h-0.028v7.994h-1.177   V48.582z"/>
	<path fill="#313639" d="M122.701,57.555c-1.134,0.612-2.423,0.898-3.712,0.898c-3.082,0-5.295-2.039-5.295-5.059   c0-3.031,2.367-5.057,5.337-5.057c1.303,0,2.563,0.34,3.502,1.264l-0.882,0.898c-0.672-0.707-1.695-1.102-2.704-1.102   c-2.269,0-3.992,1.658-3.992,3.996c0,2.299,1.667,3.998,4.104,3.998c0.798,0,1.737-0.204,2.465-0.558v-2.95h-2.283v-1.061h3.459   V57.555z"/>
	<path fill="#313639" d="M129.328,48.582h1.106l4.216,9.626h-1.373l-1.008-2.366h-4.958l-1.023,2.366h-1.331L129.328,48.582z    M129.86,50.051h-0.028l-2.059,4.73h4.048L129.86,50.051z"/>
	<path fill="#313639" d="M136.906,48.582h2.941c1.821,0,3.474,0.625,3.474,2.638c0,2.107-1.849,2.665-3.25,2.665h-1.989v4.323   h-1.176V48.582z M138.083,52.824h1.989c1.177,0,1.989-0.517,1.989-1.591c0-1.073-0.812-1.591-1.989-1.591h-1.989V52.824z"/>
	<path fill="#313639" d="M145.577,53.395c0-2.908,2.171-5.057,5.183-5.057s5.183,2.148,5.183,5.057c0,2.91-2.171,5.059-5.183,5.059   S145.577,56.305,145.577,53.395z M154.682,53.395c0-2.215-1.597-3.996-3.922-3.996s-3.922,1.781-3.922,3.996   c0,2.217,1.597,3.998,3.922,3.998S154.682,55.611,154.682,53.395z"/>
	<path fill="#313639" d="M158.772,48.582h2.535c1.919,0,3.95,0.271,3.95,2.651c0,1.4-0.938,2.312-2.479,2.542l2.815,4.433h-1.442   l-2.689-4.323h-1.513v4.323h-1.176V48.582z M159.949,52.824H161c1.303,0,2.998,0,2.998-1.591c0-1.387-1.247-1.591-2.396-1.591   h-1.653V52.824z"/>
	<path fill="#313639" d="M168.27,48.582h6.233v1.061h-5.057v3.019h4.721v1.061h-4.721v3.426h5.309v1.061h-6.485V48.582z"/>
</g>
<g>
	<rect x="113.722" y="-1.25" fill="none" width="152.5" height="82"/>
</g>
<g>
</g>
<g>
</g>
<g>
</g>
<g>
</g>
<g>
</g>
<g>
</g>
</svg>