<svg width="197" height="100" viewBox="0 0 197 100" fill="none" xmlns="http://www.w3.org/2000/svg">
    <path d="M28.68 28.78h10.372v3.537h-6.797v3.478h6.797v3.477h-6.797v5.01h6.797v3.596H28.68V28.78zM74.738 39.096a3.642 3.642 0 0 0-1.348-1.887c-.703-.471-1.465-.707-2.403-.707-.996 0-1.816.295-2.578.825-.469.354-.879.943-1.289 1.827h7.618v-.059zm3.515 2.829h-11.25c.176 1.002.586 1.768 1.289 2.358.703.589 1.582.884 2.695.884 1.29 0 2.462-.472 3.399-1.356l2.93 1.415c-.762 1.06-1.64 1.827-2.637 2.357-1.055.53-2.227.767-3.692.767-2.168 0-3.984-.708-5.332-2.063-1.406-1.415-2.05-3.124-2.05-5.246 0-2.122.702-3.95 2.05-5.364 1.348-1.415 3.106-2.122 5.157-2.122 2.226 0 3.984.707 5.39 2.122 1.407 1.414 2.051 3.3 2.051 5.6v.648zM60.909 33.85v-5.188h-3.516v5.188h-1.817v3.065h1.817v8.782h3.516v-8.782h2.05v-3.066h-2.05zM88.04 33.378c-1.642-.354-3.34-.059-4.571.413a1.28 1.28 0 0 1-.293.176h-.059c-.117.06-.176.06-.293.118-.469.236-.82.472-.996.767l-.117.117c-.82.826-1.23 2.063-1.23 3.655v9.313h3.456v-6.13c0-1.65.059-2.77.235-3.36.175-.53.41-.943.761-1.238.293-.236.645-.353 1.055-.412h.352c.293 0 1.172.059 1.7.118v-3.537zM113.587 33.378c-1.64-.354-3.34-.059-4.57.413-.117.059-.176.059-.293.117 0 0-.059 0-.059.06-.117.058-.176.058-.293.117-.469.236-.82.472-.996.767l-.117.117c-.82.826-1.231 2.063-1.231 3.655v9.313h3.458v-6.13c0-1.65.058-2.77.234-3.36.176-.53.41-.943.762-1.238.293-.236.644-.353 1.054-.412h.352c.293 0 1.172.059 1.699.118v-3.537zM119.564 33.85h-3.516v14.087h3.516V33.85zM131.167 35.795l-2.169 2.18c-.879-.884-1.699-1.296-2.402-1.296-.41 0-.703.059-.938.236-.234.176-.351.353-.351.648a.72.72 0 0 0 .234.53c.117.177.469.354 1.055.649l1.289.648c1.348.649 2.285 1.356 2.813 2.063.527.708.761 1.533.761 2.476 0 1.238-.468 2.299-1.347 3.124-.938.825-2.11 1.238-3.692 1.238-2.051 0-3.691-.825-4.863-2.417l2.168-2.358c.41.472.879.884 1.465 1.18.527.294 1.054.47 1.465.47.468 0 .82-.117 1.113-.353.293-.236.41-.471.41-.766 0-.53-.527-1.061-1.523-1.592l-1.172-.59c-2.286-1.12-3.399-2.593-3.399-4.302 0-1.12.41-2.063 1.289-2.83.879-.766 1.934-1.178 3.282-1.178.878 0 1.757.177 2.578.59.703.353 1.348.942 1.934 1.65zM143.472 39.096a3.643 3.643 0 0 0-1.348-1.887c-.703-.471-1.465-.707-2.402-.707-.996 0-1.817.295-2.579.825-.468.354-.879.943-1.289 1.827h7.618v-.059zm3.516 2.829h-11.251c.176 1.002.586 1.768 1.289 2.358.703.589 1.582.884 2.696.884a4.867 4.867 0 0 0 3.398-1.356l2.93 1.415c-.762 1.06-1.641 1.827-2.637 2.357-1.054.53-2.226.767-3.691.767-2.168 0-3.985-.708-5.333-2.063-1.406-1.415-2.051-3.124-2.051-5.246 0-2.122.704-3.95 2.051-5.364 1.348-1.415 3.106-2.122 5.157-2.122 2.227 0 3.984.707 5.391 2.122 1.406 1.414 2.051 3.3 2.051 5.6v.648zM119.564 28.663h-3.574v3.595h3.574v-3.596zM43.154 45.697c.703-.471 1.523-.884 2.402-1.12V41.69c0-1.65.059-2.77.235-3.36.176-.53.41-.943.762-1.237.293-.236.644-.354 1.054-.413h.645c.234 0 .469.059.703.177a.943.943 0 0 1 .41.236c.352.294.645.707.762 1.237.176.53.234 1.65.234 3.36v2.712a7.466 7.466 0 0 1 3.458 1.768v-7.545c0-1.592-.41-2.83-1.231-3.655a5.72 5.72 0 0 0-1.23-.943c-2.169-1.179-4.688-.884-6.388-.176-.058 0-.117.058-.175.058-.059.06-.176.06-.235.118 0 0-.058 0-.058.06a4.09 4.09 0 0 0-1.055.766l-.117.117c-.82.826-1.23 2.063-1.23 3.655v8.016c.292-.353.644-.648 1.054-.943zM99.993 43.87c-.762.766-1.64 1.179-2.695 1.179-1.114 0-2.051-.413-2.755-1.18-.703-.765-1.113-1.767-1.113-3.005s.352-2.24 1.113-2.947c.704-.767 1.641-1.12 2.754-1.12 1.114 0 1.993.412 2.696 1.179.703.766 1.055 1.768 1.055 2.947.058 1.179-.293 2.18-1.055 2.947zm2.695-8.311c-1.289-1.415-2.812-2.063-4.629-2.063-.82 0-1.64.177-2.344.471-.761.295-1.406.826-2.05 1.415V33.85h-3.458v17.034h3.458v-4.42c.703.648 1.347 1.12 2.05 1.414.703.295 1.465.413 2.227.413 1.817 0 3.399-.708 4.688-2.122 1.348-1.415 1.992-3.183 1.992-5.246 0-2.181-.644-3.95-1.934-5.364z" fill="#333E48"/>
    <path d="M60.909 47.23h-3.575v3.595h3.575V47.23zM75.734 52.888c-.938-.943-2.11-1.473-3.516-1.473-.645 0-1.348.118-1.992.412-.645.236-1.348.708-2.168 1.415v-.884h-3.516v13.439h3.516v-5.6c0-1.473.058-2.416.175-2.829.176-.825.528-1.474 1.055-2.004.528-.472 1.114-.707 1.817-.707.527 0 .996.118 1.347.412.352.295.645.707.762 1.238.176.53.234 1.65.234 3.36v6.13h3.458v-9.254c.058-1.592-.352-2.83-1.172-3.655zM60.909 52.358h-3.516v13.439h3.516v-13.44zM136.147 54.775c-1.113 0-1.992.353-2.695 1.12-.703.766-1.114 1.709-1.114 2.888 0 1.237.352 2.18 1.055 2.947.703.766 1.641 1.12 2.696 1.12 1.113 0 1.992-.354 2.754-1.12.703-.766 1.113-1.768 1.113-2.947 0-1.18-.352-2.181-1.055-2.947-.761-.708-1.64-1.061-2.754-1.061zm-.058-3.301c1.289 0 2.578.353 3.691 1.002 1.114.648 2.051 1.532 2.696 2.711a7.286 7.286 0 0 1 .996 3.655c0 1.296-.352 2.534-.996 3.713a6.657 6.657 0 0 1-2.696 2.711c-1.113.649-2.344.944-3.75.944-1.992 0-3.692-.708-5.098-2.122-1.406-1.415-2.109-3.183-2.109-5.187 0-2.181.82-4.009 2.402-5.482 1.406-1.356 3.047-1.945 4.864-1.945zM153.082 51.061c-1.641-.354-3.34-.059-4.571.413-.117.059-.176.059-.293.118 0 0-.058 0-.058.059-.118.058-.176.058-.293.117-.469.236-.821.472-.997.767l-.117.118c-.82.825-1.23 2.063-1.23 3.654v9.313h3.457v-6.189c0-1.65.059-2.77.234-3.36.176-.53.411-.943.762-1.237.293-.236.645-.354 1.055-.413h.351c.293 0 1.172.059 1.7.118V51.06zM164.743 57.073a3.648 3.648 0 0 0-1.348-1.886 4.072 4.072 0 0 0-2.344-.707c-.996 0-1.817.295-2.578.825-.469.354-.879.943-1.289 1.827h7.559v-.059zm3.515 2.77h-11.25c.176 1.003.586 1.769 1.289 2.358.703.59 1.582.885 2.695.885 1.289 0 2.403-.472 3.34-1.356l2.93 1.415c-.762 1.06-1.64 1.827-2.637 2.298-.996.53-2.226.767-3.633.767-2.168 0-3.984-.708-5.332-2.063-1.348-1.415-2.051-3.125-2.051-5.188 0-2.122.703-3.89 2.051-5.304 1.348-1.415 3.106-2.122 5.157-2.122 2.168 0 3.984.707 5.332 2.122 1.348 1.414 2.051 3.3 2.051 5.6l.058.589zM89.27 61.553a3.653 3.653 0 0 1-2.696 1.12c-1.113 0-2.05-.354-2.754-1.12-.762-.766-1.113-1.71-1.113-2.888 0-1.12.351-2.063 1.055-2.83.703-.766 1.64-1.12 2.754-1.12 1.113 0 2.05.354 2.754 1.12.703.708 1.054 1.65 1.054 2.83 0 1.179-.351 2.18-1.054 2.888zm.879-9.195v1.002c-.704-.707-1.407-1.18-2.168-1.474a5.868 5.868 0 0 0-2.286-.471c-1.699 0-3.164.59-4.453 1.827-1.348 1.356-2.051 3.124-2.051 5.364 0 2.063.645 3.772 1.934 5.128 1.289 1.356 2.87 2.063 4.746 2.063.879 0 1.64-.118 2.285-.413.645-.294 1.348-.707 1.934-1.355 0 1.12-.117 1.945-.352 2.416-.234.472-.644.826-1.23 1.12-.586.295-1.348.413-2.285.413a6.355 6.355 0 0 1-1.934-.295 3.005 3.005 0 0 1-1.348-.884h-3.867c.293.943.762 1.768 1.406 2.417a6.497 6.497 0 0 0 2.344 1.532c.938.354 2.05.53 3.457.53 2.578 0 4.454-.766 5.743-2.24.937-1.12 1.406-2.887 1.406-5.245V52.358H90.15zM105.618 61.789c-.703.766-1.641 1.179-2.754 1.179-1.055 0-1.934-.413-2.695-1.18-.703-.765-1.114-1.767-1.114-3.005 0-1.18.352-2.181 1.055-2.947a3.581 3.581 0 0 1 2.696-1.18c1.113 0 1.992.354 2.754 1.12.703.767 1.113 1.769 1.113 2.948.059 1.297-.352 2.299-1.055 3.065zm.938-9.431v1.002c-.645-.649-1.289-1.12-2.051-1.415-.762-.294-1.524-.471-2.344-.471-1.817 0-3.34.707-4.63 2.063-1.288 1.355-1.933 3.183-1.933 5.305 0 2.063.645 3.83 1.992 5.246 1.29 1.414 2.872 2.122 4.688 2.122.821 0 1.524-.118 2.227-.413.703-.295 1.348-.766 2.051-1.415v1.474h3.516V52.358h-3.516zM53.76 56.307c-.82-.943-2.11-1.71-3.809-2.358l-2.11-.766c-1.406-.53-2.109-1.179-2.109-2.004 0-.59.235-1.061.762-1.474.527-.412 1.23-.59 1.992-.59.645 0 1.23.119 1.64.355.411.176.821.648 1.29 1.355l.117.236 3.047-1.65-.175-.236c-1.407-2.181-3.4-3.301-5.86-3.301-1.817 0-3.399.53-4.63 1.533-1.288 1.002-1.874 2.298-1.874 3.772 0 2.24 1.523 3.95 4.453 5.07l1.992.765c.528.177.938.413 1.29.649.35.236.644.412.878.648.235.236.352.472.47.766.116.295.175.59.175.944 0 .825-.293 1.532-.88 2.063-.585.53-1.347.825-2.284.825-1.172 0-2.051-.354-2.637-1.12-.352-.354-.586-1.12-.703-2.181l-.059-.295-3.75.766.058.236c.293 1.827 1.055 3.242 2.286 4.303 1.23 1.002 2.812 1.533 4.687 1.533 1.993 0 3.633-.59 4.981-1.769 1.348-1.179 1.992-2.711 1.992-4.538 0-1.415-.41-2.594-1.23-3.537zM122.787 61.789a3.58 3.58 0 0 1-2.695 1.179c-1.114 0-1.993-.413-2.754-1.18-.704-.765-1.114-1.768-1.114-3.005 0-1.238.352-2.181 1.114-2.947.703-.767 1.64-1.12 2.754-1.12 1.113 0 1.992.412 2.695 1.178.703.767 1.055 1.769 1.055 2.948.058 1.178-.293 2.18-1.055 2.947zm2.696-8.252c-1.29-1.356-2.813-2.063-4.63-2.063-.82 0-1.64.177-2.343.471-.762.295-1.407.766-2.051 1.415v-1.002h-3.458v18.567h3.458v-6.602c.703.649 1.347 1.12 2.051 1.415.703.295 1.464.413 2.226.413 1.817 0 3.34-.708 4.688-2.122 1.289-1.415 1.992-3.124 1.992-5.246 0-2.122-.644-3.89-1.933-5.246z" fill="#EF3742"/>
</svg>
