<svg width="174" height="75" viewBox="0 0 174 75" fill="none" xmlns="http://www.w3.org/2000/svg">
<path d="M170.426 40.8866C168.402 44.5917 165.768 47.9279 162.635 50.7543C161.865 56.6637 159.994 61.918 157.207 65.9884C162.04 64.6503 166.03 62.0161 168.586 58.0929C171.734 53.2308 172.216 47.1533 170.426 40.8866ZM116.436 8.71582C111.603 10.0539 107.613 12.6881 105.06 16.6114C101.913 21.4734 101.427 27.551 103.217 33.8212C105.241 30.1145 107.875 26.777 111.009 23.95C111.778 18.0406 113.649 12.7862 116.436 8.71582Z" fill="#FFD002"/>
<path d="M149.041 4.62402C147.741 4.62851 146.443 4.72214 145.156 4.90426C147.242 6.47522 149.15 8.27005 150.846 10.2567C157.49 10.9117 163.239 13.1221 167.282 16.7056C166.335 13.9796 164.742 11.5241 162.641 9.54912C159.067 6.21785 154.318 4.64504 149.038 4.64504" fill="#FFCC64"/>
<path d="M106.355 58.0049C107.303 60.7287 108.895 63.1819 110.996 65.1543C114.57 68.4856 119.322 70.0759 124.599 70.0759C125.9 70.0725 127.199 69.9801 128.488 69.7992C126.402 68.2296 124.493 66.4372 122.795 64.4537C116.151 63.8022 110.398 61.5884 106.359 58.0049" fill="#FFCC64"/>
<path d="M106.278 41.0996C104.63 47.2297 104.616 53.1216 106.358 58.0047C110.4 61.5882 116.167 63.802 122.794 64.4535C119.773 60.8948 117.289 56.9117 115.422 52.6312C111.79 49.29 108.703 45.3989 106.274 41.0996" fill="#F48443"/>
<path d="M150.847 10.25C153.866 13.8086 156.35 17.7903 158.219 22.0688C161.848 25.4136 164.933 29.3055 167.363 33.6039C169.007 27.4738 169.021 21.5819 167.279 16.6989C163.233 13.1154 157.488 10.905 150.844 10.25" fill="#F48443"/>
<path d="M110.617 30.6014C108.74 33.9101 107.282 37.4402 106.277 41.1102C108.706 45.4094 111.793 49.3006 115.425 52.6417C114.125 49.7016 113.08 46.6545 112.303 43.5342C111.234 39.312 110.668 34.9779 110.617 30.6225V30.6014ZM158.218 22.0684C159.516 25.0095 160.561 28.0564 161.341 31.1759C162.409 35.3994 162.975 39.7346 163.026 44.0911C164.904 40.7822 166.362 37.2522 167.37 33.5824C164.935 29.2909 161.848 25.4062 158.218 22.0684Z" fill="#C6BE2E"/>
<path d="M145.158 4.9043C141.032 5.51997 137.034 6.80361 133.32 8.70496C135.458 9.18495 137.561 9.8099 139.615 10.5755C141.931 10.2326 144.268 10.0582 146.609 10.0536C148.045 10.0536 149.444 10.1213 150.805 10.2567C149.122 8.27239 147.229 6.47765 145.158 4.9043Z" fill="#BAD87D"/>
<path d="M134.015 64.1348C131.699 64.4778 129.361 64.6522 127.021 64.6567C125.582 64.6567 124.183 64.589 122.824 64.4535C124.522 66.4395 126.431 68.2342 128.517 69.806C132.642 69.1914 136.64 67.909 140.355 66.0088C138.211 65.5266 136.102 64.9005 134.043 64.1348" fill="#C5D873"/>
<path d="M103.215 33.8203C100.165 39.5756 99.368 45.6216 101.449 51.0336C102.495 53.7188 104.175 56.1105 106.345 58.0044C104.596 53.1214 104.617 47.2295 106.264 41.0994C104.972 38.7971 103.945 36.355 103.204 33.8203" fill="#94C960"/>
<path d="M167.284 16.6982C169.033 21.5813 169.012 27.4732 167.368 33.6033C168.658 35.9076 169.683 38.3507 170.425 40.8858C173.474 35.1271 174.271 29.0845 172.173 23.669C171.127 20.9838 169.447 18.5922 167.277 16.6982" fill="#94C960"/>
<path d="M133.317 8.69824C129.393 10.6817 125.739 13.1623 122.445 16.0789C124.16 15.2075 125.918 14.4242 127.712 13.7319C131.554 12.2402 135.55 11.1828 139.626 10.5793C137.572 9.8137 135.469 9.18874 133.331 8.70875" fill="#89AC3F"/>
<path d="M151.196 58.6252C149.482 59.4977 147.724 60.2822 145.93 60.9756C142.087 62.4658 138.091 63.5232 134.016 64.1283C136.075 64.894 138.184 65.5201 140.328 66.0023C144.251 64.0175 147.904 61.5358 151.196 58.6182" fill="#89AC3F"/>
<path d="M115.426 52.6308C117.294 56.9113 119.777 60.8944 122.798 64.4531C124.167 64.5863 125.565 64.654 126.994 64.6563C129.335 64.6518 131.673 64.4774 133.988 64.1344C130.127 62.6927 126.439 60.8247 122.99 58.5648C120.294 56.8089 117.754 54.8235 115.398 52.6308H115.426ZM146.637 10.0459C144.296 10.0505 141.959 10.2249 139.643 10.5678C143.505 12.0081 147.194 13.8762 150.641 16.1375C153.332 17.8928 155.868 19.8769 158.219 22.0679C156.35 17.7894 153.867 13.8077 150.847 10.2491C149.481 10.116 148.082 10.0482 146.651 10.0459" fill="#5AB94D"/>
<path d="M157.22 65.9879C154.597 66.6927 151.892 67.0403 149.177 67.0212C146.207 67.0052 143.247 66.6658 140.35 66.0089C136.636 67.909 132.638 69.1915 128.513 69.806C132.727 72.9587 137.318 74.7101 141.868 74.7101C143.283 74.7112 144.692 74.5371 146.064 74.1917C150.61 73.0497 154.387 70.1318 157.223 65.9879H157.22ZM131.797 1.26747e-06C130.382 -0.000540171 128.973 0.172389 127.6 0.51493C123.054 1.65688 119.277 4.57481 116.441 8.71875C119.064 8.01682 121.77 7.67045 124.484 7.68889C127.456 7.70137 130.417 8.04086 133.314 8.70124C137.029 6.80034 141.029 5.51785 145.155 4.90408C140.941 1.75146 136.346 1.26747e-06 131.797 1.26747e-06Z" fill="#00B5A6"/>
<path d="M162.635 50.7535C159.198 53.8876 155.35 56.5359 151.196 58.6246C147.904 61.5422 144.251 64.0239 140.328 66.0087C143.225 66.6645 146.184 67.0028 149.154 67.0175C151.869 67.0362 154.574 66.6898 157.197 65.9877C159.995 61.9173 161.855 56.6629 162.624 50.7535H162.635ZM124.49 7.68527C121.775 7.66682 119.07 8.01319 116.447 8.71512C113.649 12.7855 111.789 18.0399 111.02 23.9493C114.457 20.816 118.305 18.1678 122.458 16.0782C125.752 13.1616 129.406 10.6811 133.33 8.69761C130.433 8.03723 127.472 7.69775 124.5 7.68527" fill="#3F9D47"/>
<path d="M111.006 23.9496C107.872 26.7766 105.238 30.114 103.215 33.8208C103.956 36.3555 104.983 38.7975 106.275 41.0998C107.28 37.4299 108.738 33.8997 110.614 30.5911C110.594 28.3662 110.725 26.1426 111.006 23.9355" fill="#00AF71"/>
<path d="M167.364 33.6035C166.357 37.2733 164.898 40.8033 163.021 44.1123C163.041 46.3371 162.91 48.5608 162.629 50.7678C165.762 47.9414 168.396 44.6053 170.42 40.9001C169.68 38.3601 168.654 35.9123 167.364 33.6035Z" fill="#00AF71"/>
<path d="M139.628 10.5684C135.552 11.1719 131.556 12.2293 127.714 13.721C125.92 14.4133 124.162 15.1966 122.447 16.0679C121.002 17.3402 119.621 18.6847 118.311 20.0963C115.341 23.2826 112.758 26.8101 110.617 30.605C110.668 34.9605 111.234 39.2945 112.303 43.5167C113.08 46.637 114.125 49.6842 115.426 52.6243C117.781 54.817 120.321 56.8023 123.017 58.5582C126.466 60.8181 130.154 62.6862 134.015 64.1279C138.091 63.5228 142.087 62.4654 145.93 60.9752C147.724 60.2818 149.482 59.4973 151.196 58.6248C152.642 57.3537 154.022 56.0104 155.333 54.5999C158.302 51.4132 160.885 47.8858 163.026 44.0912C162.975 39.7346 162.409 35.3995 161.341 31.176C160.561 28.0565 159.516 25.0095 158.218 22.0684C155.862 19.8768 153.322 17.8926 150.626 16.138C147.179 13.8767 143.49 12.0086 139.628 10.5684Z" fill="#00AF71"/>
<path d="M122.446 16.0789C118.293 18.1684 114.444 20.8166 111.007 23.9499C110.726 26.1569 110.595 28.3806 110.615 30.6054C112.757 26.8105 115.339 23.283 118.309 20.0967C119.619 18.6851 121 17.3406 122.446 16.0684" fill="#00974A"/>
<path d="M163.026 44.1016C160.884 47.8962 158.301 51.4236 155.332 54.6103C154.022 56.0207 152.641 57.3641 151.195 58.6351C155.349 56.5465 159.197 53.8982 162.634 50.7641C162.915 48.5571 163.046 46.3334 163.026 44.1086" fill="#00974A"/>
<path d="M13.7291 38.1435H4.4027V46.589C4.4027 47.4928 3.53545 48.3615 2.25905 48.3615C0.902222 48.3615 0 47.4928 0 46.589V25.2598C0 24.3525 0.902222 23.4873 2.25905 23.4873C3.53545 23.4873 4.4027 24.3525 4.4027 25.2598V34.1502H13.7291V25.2598C13.7291 24.3525 14.5929 23.4873 15.9847 23.4873C17.2261 23.4873 18.1283 24.3525 18.1283 25.2598V46.589C18.1283 47.4928 17.2261 48.3615 15.9847 48.3615C14.5859 48.3615 13.7291 47.4928 13.7291 46.589V38.1435Z" fill="#59595C"/>
<path d="M33.9225 39.611H25.0088V40.5919C25.0088 43.0019 26.5509 44.5852 29.2576 44.5852C30.6144 44.5852 31.8174 44.396 32.4538 44.0948C33.1707 43.7445 33.8106 43.3031 34.3737 43.3031C34.5882 43.2952 34.8021 43.3318 35.0019 43.4106C35.2017 43.4893 35.3831 43.6086 35.5348 43.7608C35.6865 43.9131 35.8051 44.0951 35.8833 44.2954C35.9615 44.4957 35.9976 44.71 35.9893 44.925C35.9893 46.5083 33.0588 48.3543 29.296 48.3543C24.2184 48.3543 20.6445 44.9635 20.6445 40.816V36.8262C20.6445 32.4161 24.1065 28.7695 28.8834 28.7695C34.5625 28.7695 36.8565 32.9135 36.8565 36.4164C36.8565 38.7458 36.0277 39.611 33.9225 39.611ZM25.0088 36.3358H32.6811V35.7683C32.6811 33.7367 31.1005 32.4161 28.8344 32.4161C26.5684 32.4161 25.1976 33.9994 25.0088 36.3358Z" fill="#59595C"/>
<path d="M51.2613 46.7712V46.1687L50.9116 46.0531C50.0094 47.3352 48.9533 48.3545 45.9844 48.3545C41.1306 48.3545 38.875 44.5469 38.875 40.7812V37.4815C38.875 33.3025 41.8474 28.7803 47.7154 28.7803C53.2406 28.7803 55.6115 31.9329 55.6115 36.238V46.7887C55.6115 47.6925 54.7478 48.5402 53.356 48.5402C52.1251 48.5402 51.2613 47.675 51.2613 46.7712ZM51.2613 36.2975C51.2613 33.8104 49.9464 32.8682 47.7293 32.8682C45.1696 32.8682 43.4036 34.9419 43.4036 37.3134V40.9319C43.4036 42.7394 44.9458 44.2456 46.939 44.2456C49.1177 44.2456 51.2613 42.7779 51.2613 39.8389V36.2975Z" fill="#59595C"/>
<path d="M59.1562 24.1284C59.1562 23.2247 60.062 22.377 61.4153 22.377C62.6917 22.377 63.5589 23.2422 63.5589 24.1284V46.5891C63.5589 47.4928 62.6917 48.3615 61.4153 48.3615C60.062 48.3615 59.1562 47.4928 59.1562 46.5891V24.1284Z" fill="#59595C"/>
<path d="M68.1822 29.1375V25.2598C68.1822 24.3525 69.0495 23.4873 70.4413 23.4873C71.7177 23.4873 72.5849 24.3525 72.5849 25.2598V29.1375H75.365C75.5828 29.1411 75.7978 29.188 75.9974 29.2754C76.197 29.3628 76.3773 29.489 76.5279 29.6467C76.6785 29.8043 76.7963 29.9904 76.8746 30.194C76.9529 30.3976 76.9902 30.6148 76.9841 30.8329C76.9978 31.0567 76.9664 31.2809 76.8918 31.4922C76.8172 31.7036 76.7009 31.8977 76.5498 32.0631C76.3987 32.2285 76.216 32.3617 76.0124 32.4549C75.8089 32.548 75.5887 32.5992 75.365 32.6054H72.5954V41.713C72.5954 43.7832 73.1584 44.4242 74.211 44.4242C75.2636 44.4242 75.7917 44.1615 76.6939 44.1615C77.8234 44.1615 78.3479 44.8375 78.3479 45.9305C78.3479 47.815 76.2043 48.344 73.8334 48.344C69.9237 48.344 68.1927 46.533 68.1927 41.5623V32.5949H66.689C66.4656 32.5883 66.2458 32.5367 66.0427 32.4434C65.8396 32.35 65.6572 32.2167 65.5065 32.0513C65.3558 31.886 65.2398 31.692 65.1654 31.4809C65.091 31.2698 65.0598 31.0459 65.0734 30.8224C65.0669 30.6044 65.1037 30.3874 65.1816 30.1838C65.2596 29.9802 65.3771 29.7941 65.5274 29.6364C65.6777 29.4786 65.8578 29.3524 66.0572 29.2649C66.2566 29.1775 66.4714 29.1306 66.689 29.127L68.1822 29.1375Z" fill="#59595C"/>
<path d="M97.4403 46.5889C97.4403 47.4927 96.4996 48.3614 95.1847 48.3614C93.8699 48.3614 93.0026 47.4927 93.0026 46.5889V36.8613C93.0026 34.4513 91.6493 32.8295 89.093 32.8295C86.9109 32.8295 85.2183 34.038 85.1449 36.6827V46.5889C85.1449 47.4927 84.2776 48.3614 82.9977 48.3614C81.6444 48.3614 80.7422 47.4927 80.7422 46.5889V24.1352C80.7422 23.2315 81.6444 22.3838 82.9977 22.3838C84.2776 22.3838 85.1449 23.249 85.1449 24.1352V31.1761L85.3687 31.2146C86.2709 29.7434 87.8515 28.7276 90.0337 28.7276C95.5239 28.7276 97.4403 32.4967 97.4403 36.8298V46.5889Z" fill="#59595C"/>
<path d="M122.37 38.1435H113.04V46.589C113.04 47.4928 112.176 48.3615 110.896 48.3615C109.543 48.3615 108.641 47.4928 108.641 46.589V25.2598C108.641 24.3525 109.543 23.4873 110.896 23.4873C112.176 23.4873 113.04 24.3525 113.04 25.2598V34.1502H122.37V25.2598C122.37 24.3525 123.234 23.4873 124.625 23.4873C125.867 23.4873 126.769 24.3525 126.769 25.2598V46.589C126.769 47.4928 125.867 48.3615 124.625 48.3615C123.227 48.3615 122.37 47.4928 122.37 46.589V38.1435Z" fill="white"/>
<path d="M129.176 40.0661V30.5698C129.176 29.666 130.078 28.8008 131.431 28.8008C132.711 28.8008 133.575 29.666 133.575 30.5698V40.2133C133.575 42.9666 135.306 44.2451 137.523 44.2451C139.74 44.2451 141.436 42.9666 141.436 40.2133V30.5698C141.436 29.666 142.338 28.8008 143.618 28.8008C144.898 28.8008 145.874 29.666 145.874 30.5698V40.0661C145.874 44.8126 143.052 48.354 137.523 48.354C131.994 48.354 129.176 44.8126 129.176 40.0661Z" fill="white"/>
<path d="M152.643 30.6088L152.867 30.7209C153.846 29.4774 155.427 28.7628 157.305 28.7628C162.798 28.7628 165.316 32.4934 165.316 37.5796V39.7619C165.316 44.4733 162.571 48.4281 156.969 48.4281C151.175 48.4281 148.227 45.1879 148.227 40.8933V24.1284C148.227 23.2247 149.129 22.377 150.486 22.377C151.762 22.377 152.629 23.2422 152.629 24.1284L152.643 30.6088ZM152.643 36.7109V41.044C152.643 43.2683 154.521 44.3227 156.969 44.3227C159.298 44.3227 160.879 42.5502 160.879 39.9125V37.6532C160.879 34.5636 159.13 32.8682 156.591 32.8682C154.423 32.8682 152.717 34.0732 152.643 36.7109Z" fill="white"/>
</svg>
