<svg width="30" height="27" viewBox="0 0 30 27" fill="none" xmlns="http://www.w3.org/2000/svg">
<path d="M0.230957 13.441H1.7279V14.7573H1.76506C1.80222 14.641 1.89246 14.493 2.0411 14.3132C2.18973 14.1335 2.38083 13.9643 2.61439 13.8057C2.84796 13.6471 3.11869 13.5097 3.43719 13.3987C3.75038 13.2876 4.10073 13.2295 4.48293 13.2295C5.11462 13.2295 5.64014 13.3617 6.07012 13.6207C6.50009 13.8797 6.85044 14.2709 7.12116 14.7943C7.3972 14.2709 7.7794 13.885 8.27838 13.6207C8.77736 13.3617 9.28165 13.2295 9.79656 13.2295C10.4495 13.2295 10.9856 13.3352 11.3997 13.5467C11.8137 13.7581 12.1428 14.0436 12.3817 14.3925C12.6206 14.7415 12.7851 15.1379 12.8701 15.582C12.9603 16.0261 13.0028 16.486 13.0028 16.9565V21.8572H11.3997V17.168C11.3997 16.8508 11.3784 16.5389 11.336 16.2428C11.2935 15.9468 11.2086 15.6877 11.0759 15.4604C10.9432 15.2331 10.7627 15.0534 10.5238 14.9212C10.2849 14.7837 9.97174 14.715 9.57892 14.715C8.8039 14.715 8.25184 14.9529 7.92272 15.4234C7.5883 15.8992 7.42374 16.5072 7.42374 17.2526V21.8519H5.82062V17.4482C5.82062 17.0464 5.79939 16.6763 5.75692 16.3486C5.71446 16.0155 5.62952 15.73 5.50743 15.4869C5.38003 15.2437 5.20486 15.0534 4.97129 14.9159C4.73773 14.7785 4.42984 14.7097 4.03703 14.7097C3.75038 14.7097 3.47434 14.7679 3.20893 14.8789C2.94351 14.9899 2.70464 15.1591 2.50292 15.3864C2.3012 15.6137 2.14195 15.8992 2.01986 16.2481C1.90308 16.597 1.83938 17.0094 1.83938 17.4852V21.8572H0.236266V13.441H0.230957Z" fill="#010101"/>
<path d="M13.6822 14.4718C14.1334 14.0595 14.659 13.7476 15.2535 13.5414C15.848 13.3352 16.4426 13.2295 17.0371 13.2295C17.6529 13.2295 18.189 13.3088 18.6349 13.4621C19.0808 13.6154 19.4471 13.8216 19.7337 14.0859C20.0204 14.345 20.2327 14.6463 20.3654 14.9846C20.5034 15.323 20.5724 15.6772 20.5724 16.0419V20.3399C20.5724 20.636 20.5777 20.9109 20.5884 21.1593C20.599 21.4078 20.6202 21.6457 20.6414 21.8677H19.2135C19.1763 21.4395 19.1604 21.0166 19.1604 20.5884H19.1233C18.7676 21.1329 18.3429 21.5188 17.8546 21.7409C17.3662 21.9682 16.8035 22.0792 16.1612 22.0792C15.7684 22.0792 15.3968 22.0263 15.0359 21.9206C14.6802 21.8149 14.367 21.6563 14.1016 21.4395C13.8362 21.2281 13.6238 20.9637 13.4699 20.6466C13.316 20.3346 13.2363 19.9699 13.2363 19.5522C13.2363 19.0077 13.3584 18.5531 13.6026 18.183C13.8468 17.8182 14.1812 17.5169 14.6006 17.2843C15.0199 17.0517 15.5136 16.8878 16.0816 16.7874C16.6443 16.6869 17.2494 16.634 17.8917 16.634H19.0702V16.2851C19.0702 16.0737 19.0277 15.8569 18.9428 15.6455C18.8578 15.434 18.7358 15.2384 18.5659 15.0692C18.4013 14.9 18.189 14.7626 17.9395 14.6622C17.69 14.5617 17.3927 14.5088 17.0477 14.5088C16.7398 14.5088 16.4691 14.5406 16.2355 14.5987C16.002 14.6569 15.7949 14.7309 15.6038 14.8207C15.4127 14.9106 15.2429 15.0111 15.0889 15.1327C14.935 15.249 14.7864 15.3653 14.643 15.471L13.6822 14.4718ZM18.2102 17.8129C17.828 17.8129 17.4405 17.8341 17.0424 17.8764C16.6443 17.9187 16.2833 17.998 15.9542 18.1143C15.6251 18.2306 15.3597 18.3998 15.1526 18.6112C14.9456 18.8227 14.8394 19.0976 14.8394 19.4306C14.8394 19.917 15.004 20.2659 15.3278 20.4774C15.6569 20.6888 16.0975 20.7946 16.6549 20.7946C17.0955 20.7946 17.4671 20.7206 17.7803 20.5725C18.0881 20.4245 18.3376 20.2342 18.5287 19.9963C18.7198 19.7584 18.8578 19.4941 18.9375 19.2033C19.0224 18.9126 19.0649 18.6271 19.0649 18.3416V17.8077H18.2102V17.8129Z" fill="#010101"/>
<path d="M21.1191 13.4409H22.7223V14.6462H22.7594C23.0673 14.1968 23.492 13.8479 24.0334 13.5995C24.5749 13.351 25.1322 13.2241 25.7002 13.2241C26.3531 13.2241 26.9477 13.3351 27.4732 13.5625C28.004 13.7898 28.4552 14.1017 28.8268 14.5035C29.2037 14.9052 29.4904 15.3758 29.6921 15.915C29.8938 16.4542 29.9947 17.0305 29.9947 17.649C29.9947 18.2781 29.8938 18.8596 29.6921 19.3988C29.4904 19.9381 29.2037 20.4033 28.8268 20.7998C28.4499 21.1963 27.9987 21.5082 27.4732 21.7302C26.9424 21.9575 26.3531 22.0686 25.7002 22.0686C25.0951 22.0686 24.5218 21.9417 23.9856 21.6879C23.4495 21.4342 23.0408 21.0853 22.7541 20.6465H22.7169V26.8635H21.1191V13.4409ZM25.5091 14.7202C25.0792 14.7202 24.697 14.7942 24.3519 14.9423C24.0069 15.0903 23.7149 15.2912 23.476 15.5449C23.2372 15.7987 23.0514 16.1053 22.924 16.4701C22.7913 16.8296 22.7276 17.2261 22.7276 17.649C22.7276 18.0772 22.7913 18.4684 22.924 18.8279C23.0567 19.1874 23.2372 19.4993 23.476 19.753C23.7149 20.0068 24.0069 20.2077 24.3519 20.3557C24.697 20.5037 25.0845 20.5777 25.5091 20.5777C25.9391 20.5777 26.3213 20.5037 26.6663 20.3557C27.0114 20.2077 27.3033 20.0068 27.5422 19.753C27.7811 19.4993 27.9616 19.1927 28.0943 18.8279C28.227 18.4684 28.2907 18.0719 28.2907 17.649C28.2907 17.2208 28.227 16.8296 28.0943 16.4701C27.9616 16.1106 27.7811 15.7987 27.5422 15.5449C27.3033 15.2912 27.0114 15.0903 26.6663 14.9423C26.3213 14.7942 25.9338 14.7202 25.5091 14.7202Z" fill="#010101"/>
<path d="M11.2828 1.92695C8.703 -0.642318 4.51473 -0.642318 1.93488 1.92695C-0.644962 4.49623 -0.644962 8.66733 1.93488 11.2366L6.60621 15.3707L11.2775 11.2366C13.8627 8.66204 13.8627 4.49623 11.2828 1.92695Z" fill="#F5333F"/>
<path d="M10.9672 8.11873C11.9043 5.72191 10.7129 3.02239 8.30623 2.08917C5.89954 1.15596 3.18891 2.34245 2.25186 4.73927C1.31481 7.13609 2.50618 9.83562 4.91286 10.7688C7.31955 11.702 10.0302 10.5156 10.9672 8.11873Z" fill="white"/>
<path d="M9.02163 22.8935C8.97917 22.8248 8.92077 22.7719 8.84646 22.7402C8.77214 22.7085 8.69783 22.6926 8.6182 22.6926C8.55981 22.6926 8.50142 22.6979 8.44303 22.7138C8.38463 22.7296 8.33686 22.7508 8.28908 22.7772C8.24131 22.8037 8.20946 22.8459 8.17761 22.8935C8.15107 22.9411 8.13514 22.9993 8.13514 23.0627C8.13514 23.1156 8.14045 23.1579 8.15638 23.1949C8.1723 23.2319 8.19884 23.2689 8.236 23.3006C8.27316 23.3323 8.32093 23.364 8.37933 23.3905C8.44303 23.4169 8.51734 23.4433 8.60228 23.4698C8.68721 23.4962 8.77214 23.5279 8.85177 23.5596C8.93139 23.5914 9.00571 23.6284 9.0641 23.6812C9.1278 23.7288 9.17558 23.7922 9.21273 23.861C9.24989 23.935 9.26582 24.0249 9.26582 24.1306C9.26582 24.2416 9.24458 24.3368 9.20212 24.4213C9.15965 24.5006 9.10126 24.5694 9.02694 24.6222C8.95263 24.6751 8.873 24.7174 8.77745 24.7438C8.6819 24.7703 8.58635 24.7808 8.48549 24.7808C8.42179 24.7808 8.35278 24.7755 8.28908 24.765C8.22538 24.7544 8.16168 24.7333 8.10329 24.7121C8.0449 24.6857 7.98651 24.6592 7.93343 24.6169C7.88034 24.5799 7.83788 24.5324 7.79541 24.4742L8.02367 24.2892C8.07144 24.3685 8.14045 24.4319 8.22538 24.4742C8.31032 24.5165 8.40587 24.5376 8.50142 24.5376C8.55981 24.5376 8.6182 24.5271 8.67128 24.5112C8.72968 24.4954 8.78276 24.4689 8.82522 24.4372C8.873 24.4055 8.91016 24.3632 8.9367 24.3156C8.96855 24.268 8.97917 24.2099 8.97917 24.1464C8.97917 24.0777 8.96855 24.0196 8.94201 23.9773C8.92078 23.935 8.88362 23.898 8.83584 23.8663C8.78807 23.8345 8.72437 23.8081 8.65005 23.7817C8.57573 23.7552 8.4908 23.7288 8.38994 23.6918C8.31032 23.6654 8.236 23.6389 8.16699 23.6072C8.09798 23.5755 8.03959 23.5332 7.99182 23.4856C7.94404 23.438 7.90158 23.3799 7.87504 23.3165C7.84849 23.253 7.83257 23.1737 7.83257 23.0786C7.83257 22.9728 7.8538 22.8777 7.89627 22.7984C7.93873 22.7191 7.99713 22.6503 8.06614 22.5975C8.13514 22.5446 8.22008 22.5023 8.31032 22.4759C8.40056 22.4495 8.49611 22.4336 8.59697 22.4336C8.72437 22.4336 8.84115 22.4547 8.94201 22.4917C9.04818 22.5288 9.13842 22.5975 9.22335 22.6926L9.02163 22.8935Z" fill="#ED2224"/>
<path d="M9.47803 22.6768C9.47803 22.6292 9.49395 22.5869 9.53111 22.5499C9.56827 22.5129 9.61074 22.4971 9.65851 22.4971C9.71159 22.4971 9.75406 22.5129 9.78591 22.5499C9.82307 22.5869 9.83899 22.6292 9.83899 22.6768C9.83899 22.7297 9.82307 22.772 9.78591 22.8037C9.75406 22.8354 9.71159 22.8566 9.65851 22.8566C9.60543 22.8566 9.56296 22.8407 9.53111 22.8037C9.49926 22.7667 9.47803 22.7297 9.47803 22.6768ZM9.53642 23.253H9.7806V24.7227H9.53642V23.253Z" fill="#ED2224"/>
<path d="M10.1097 23.6017C10.1097 23.533 10.1097 23.4696 10.1044 23.4114C10.0991 23.3533 10.0991 23.3004 10.0991 23.2528H10.3327C10.3327 23.2951 10.3327 23.3321 10.338 23.3744C10.338 23.4167 10.3433 23.4537 10.3433 23.496H10.3486C10.3645 23.459 10.3911 23.4273 10.4176 23.3903C10.4495 23.3586 10.4866 23.3268 10.5291 23.3004C10.5716 23.274 10.6193 23.2528 10.6724 23.237C10.7255 23.2211 10.7839 23.2158 10.8423 23.2158C10.9378 23.2158 11.0228 23.2317 11.0918 23.2581C11.1608 23.2845 11.2192 23.3268 11.267 23.3797C11.3147 23.4326 11.3466 23.496 11.3678 23.57C11.389 23.644 11.3997 23.7233 11.3997 23.8132V24.7225H11.1555V23.8396C11.1555 23.718 11.1289 23.6176 11.0759 23.5489C11.0228 23.4801 10.9378 23.4431 10.8211 23.4431C10.7414 23.4431 10.6724 23.459 10.614 23.4854C10.5556 23.5119 10.5079 23.5489 10.4707 23.6017C10.4335 23.6546 10.407 23.7128 10.3911 23.7815C10.3752 23.8502 10.3645 23.9295 10.3645 24.0088V24.7278H10.1204V23.6017H10.1097Z" fill="#ED2224"/>
<path d="M13.1832 24.6591C13.1832 24.9287 13.1142 25.1296 12.9762 25.2723C12.8382 25.4097 12.6364 25.4838 12.3763 25.4838C12.233 25.4838 12.1003 25.4626 11.9835 25.4203C11.8667 25.378 11.7553 25.304 11.6491 25.2036L11.8243 25.0027C11.9039 25.0873 11.9835 25.1507 12.0738 25.193C12.1587 25.2353 12.2596 25.2564 12.3763 25.2564C12.4878 25.2564 12.5781 25.2406 12.6471 25.2089C12.7214 25.1771 12.7745 25.1348 12.8169 25.0767C12.8594 25.0185 12.8859 24.9551 12.9072 24.8864C12.9231 24.8177 12.9337 24.7384 12.9337 24.6643V24.474H12.9284C12.87 24.5692 12.7904 24.6379 12.7001 24.6802C12.6046 24.7225 12.509 24.7436 12.4082 24.7436C12.2914 24.7436 12.1852 24.7225 12.0897 24.6855C11.9941 24.6485 11.9092 24.5956 11.8402 24.5269C11.7712 24.4582 11.7181 24.3789 11.681 24.289C11.6438 24.1991 11.6226 24.0987 11.6226 23.9877C11.6226 23.8661 11.6438 23.7603 11.681 23.6652C11.7181 23.57 11.7712 23.4854 11.8402 23.422C11.9092 23.3586 11.9888 23.3057 12.0897 23.2687C12.1852 23.2317 12.2914 23.2158 12.4135 23.2158C12.4666 23.2158 12.5144 23.2211 12.5674 23.2317C12.6205 23.2423 12.6683 23.2634 12.7161 23.2845C12.7638 23.311 12.8063 23.3374 12.8435 23.3744C12.8806 23.4114 12.9125 23.4537 12.939 23.5013H12.9443V23.2475H13.1885V24.6591H13.1832ZM11.888 23.9877C11.888 24.0617 11.9039 24.1304 11.9304 24.1991C11.957 24.2626 11.9941 24.3207 12.0419 24.3683C12.0897 24.4159 12.1428 24.4529 12.2065 24.4793C12.2702 24.5057 12.3392 24.5216 12.4082 24.5216C12.4931 24.5216 12.5674 24.5057 12.6311 24.4793C12.6948 24.4476 12.7532 24.4106 12.7957 24.363C12.8435 24.3154 12.8753 24.2573 12.8966 24.1938C12.9178 24.1304 12.9337 24.0617 12.9337 23.9929C12.9337 23.9136 12.9231 23.8396 12.8966 23.7762C12.87 23.7128 12.8329 23.6546 12.7904 23.607C12.7426 23.5594 12.6895 23.5224 12.6205 23.496C12.5568 23.4696 12.4825 23.459 12.4082 23.459C12.3286 23.459 12.2596 23.4749 12.1959 23.5013C12.1322 23.5277 12.0791 23.57 12.0313 23.6176C11.9835 23.6652 11.9517 23.7233 11.9251 23.7921C11.9039 23.8396 11.888 23.9136 11.888 23.9877Z" fill="#ED2224"/>
<path d="M13.4645 23.4432C13.5388 23.3639 13.6291 23.3111 13.7352 23.2741C13.8414 23.2371 13.9476 23.2212 14.0537 23.2212C14.2714 23.2212 14.4306 23.2741 14.5262 23.3745C14.6217 23.4749 14.6695 23.6335 14.6695 23.845V24.4794C14.6695 24.5217 14.6695 24.564 14.6748 24.6116C14.6801 24.6591 14.6854 24.6961 14.6907 24.7384H14.4519C14.4412 24.7067 14.4412 24.6697 14.4359 24.6274C14.4359 24.5851 14.4359 24.5481 14.4359 24.5164H14.4306C14.3829 24.5904 14.3192 24.6539 14.2342 24.7014C14.1546 24.749 14.0537 24.7754 13.9423 24.7754C13.8679 24.7754 13.7936 24.7649 13.7299 24.749C13.6662 24.7279 13.6078 24.7014 13.5548 24.6644C13.507 24.6274 13.4645 24.5798 13.438 24.527C13.4061 24.4741 13.3955 24.4107 13.3955 24.3367C13.3955 24.2151 13.4274 24.1199 13.4911 24.0512C13.5548 23.9825 13.6344 23.9296 13.7246 23.8979C13.8202 23.8662 13.921 23.845 14.0272 23.8344C14.1334 23.8239 14.2342 23.8239 14.3245 23.8239H14.42V23.7816C14.42 23.6758 14.3882 23.5965 14.3245 23.5384C14.2608 23.4855 14.1705 23.4591 14.0537 23.4591C13.9741 23.4591 13.8945 23.4697 13.8202 23.4961C13.7459 23.5225 13.6768 23.5648 13.6185 23.6177L13.4645 23.4432ZM14.1758 24.0195C14.0166 24.0195 13.8945 24.0406 13.7989 24.0829C13.7087 24.1252 13.6609 24.1992 13.6609 24.2997C13.6609 24.3895 13.6928 24.4582 13.7565 24.4953C13.8202 24.5323 13.8945 24.5534 13.99 24.5534C14.059 24.5534 14.1227 24.5428 14.1758 24.5164C14.2289 24.49 14.2767 24.4582 14.3085 24.4212C14.3457 24.3789 14.3722 24.3367 14.3882 24.2838C14.4094 24.2309 14.42 24.1728 14.42 24.1146V24.0195H14.1758Z" fill="#ED2224"/>
<path d="M14.9512 23.2528H15.1954V23.4643H15.2007C15.2697 23.385 15.344 23.3216 15.4342 23.2793C15.5245 23.237 15.62 23.2158 15.7315 23.2158C15.8483 23.2158 15.9544 23.237 16.05 23.274C16.1455 23.311 16.2252 23.3691 16.2942 23.4379C16.3632 23.5066 16.4163 23.5912 16.4534 23.681C16.4906 23.7762 16.5118 23.8766 16.5118 23.9877C16.5118 24.0987 16.4906 24.1991 16.4534 24.2943C16.4163 24.3894 16.3632 24.4687 16.2995 24.5375C16.2358 24.6062 16.1562 24.6591 16.0659 24.7013C15.9757 24.7384 15.8801 24.7595 15.774 24.7595C15.6413 24.7595 15.5245 24.7331 15.4236 24.6749C15.3228 24.6168 15.2484 24.548 15.206 24.4635H15.2007V25.4415H14.9565V23.2528H14.9512ZM15.1954 23.9877C15.1954 24.067 15.206 24.1357 15.2325 24.2044C15.2591 24.2678 15.2909 24.326 15.3387 24.3789C15.3865 24.4264 15.4395 24.4687 15.5032 24.4952C15.5669 24.5216 15.6413 24.5375 15.7209 24.5375C15.8005 24.5375 15.8748 24.5216 15.9385 24.4952C16.0022 24.4687 16.0606 24.4264 16.1031 24.3789C16.1509 24.3313 16.1827 24.2731 16.2092 24.2044C16.2358 24.141 16.2464 24.067 16.2464 23.9877C16.2464 23.9084 16.2358 23.8396 16.2092 23.7709C16.1827 23.7075 16.1509 23.6493 16.1031 23.5965C16.0553 23.5489 16.0022 23.5066 15.9385 23.4801C15.8748 23.4537 15.8005 23.4379 15.7209 23.4379C15.6413 23.4379 15.5669 23.4537 15.5032 23.4801C15.4395 23.5066 15.3811 23.5489 15.3387 23.5965C15.2909 23.644 15.2591 23.7022 15.2325 23.7709C15.2113 23.8396 15.1954 23.9136 15.1954 23.9877Z" fill="#ED2224"/>
<path d="M16.6499 23.9876C16.6499 23.8713 16.6711 23.7655 16.7083 23.6704C16.7508 23.5752 16.8038 23.4959 16.8729 23.4272C16.9419 23.3585 17.0268 23.3056 17.1223 23.2686C17.2179 23.2316 17.3241 23.2104 17.4408 23.2104C17.5523 23.2104 17.6585 23.2316 17.754 23.2686C17.8496 23.3056 17.9345 23.3585 18.0035 23.4272C18.0725 23.4959 18.1256 23.5752 18.1681 23.6704C18.2106 23.7655 18.2265 23.8713 18.2265 23.9876C18.2265 24.1039 18.2052 24.2096 18.1681 24.2995C18.1256 24.3946 18.0725 24.4739 18.0035 24.5427C17.9345 24.6114 17.8496 24.6643 17.754 24.7013C17.6585 24.7383 17.5523 24.7594 17.4408 24.7594C17.3294 24.7594 17.2232 24.7383 17.1223 24.7013C17.0268 24.6643 16.9419 24.6114 16.8729 24.5427C16.8038 24.4739 16.7508 24.3946 16.7083 24.2995C16.6711 24.2096 16.6499 24.1039 16.6499 23.9876ZM16.9153 23.9876C16.9153 24.0669 16.9259 24.1356 16.9525 24.2043C16.979 24.2678 17.0109 24.3259 17.0586 24.3788C17.1064 24.4264 17.1595 24.4687 17.2232 24.4951C17.2869 24.5215 17.3612 24.5374 17.4408 24.5374C17.5205 24.5374 17.5948 24.5215 17.6585 24.4951C17.7222 24.4687 17.7806 24.4264 17.823 24.3788C17.8708 24.3312 17.9027 24.273 17.9292 24.2043C17.9558 24.1409 17.9664 24.0669 17.9664 23.9876C17.9664 23.9083 17.9558 23.8396 17.9292 23.7708C17.9027 23.7074 17.8708 23.6492 17.823 23.5964C17.7753 23.5488 17.7222 23.5065 17.6585 23.4801C17.5948 23.4536 17.5205 23.4378 17.4408 23.4378C17.3612 23.4378 17.2869 23.4536 17.2232 23.4801C17.1595 23.5065 17.1011 23.5488 17.0586 23.5964C17.0109 23.6439 16.979 23.7021 16.9525 23.7708C16.9259 23.8396 16.9153 23.9136 16.9153 23.9876Z" fill="#ED2224"/>
<path d="M18.4545 23.6017C18.4545 23.533 18.4545 23.4696 18.4492 23.4114C18.4438 23.3533 18.4438 23.3004 18.4438 23.2528H18.6774C18.6774 23.2951 18.6774 23.3321 18.6827 23.3744C18.6827 23.4167 18.688 23.4537 18.688 23.496H18.6933C18.7093 23.459 18.7358 23.4273 18.7623 23.3903C18.7942 23.3586 18.8314 23.3268 18.8738 23.3004C18.9163 23.274 18.9641 23.2528 19.0171 23.237C19.0702 23.2211 19.1286 23.2158 19.187 23.2158C19.2029 23.2158 19.2189 23.2158 19.2401 23.2211C19.256 23.2211 19.2719 23.2264 19.2932 23.2317L19.2773 23.4801C19.2348 23.4696 19.1923 23.459 19.1445 23.459C18.9906 23.459 18.8844 23.5066 18.8154 23.607C18.7464 23.7075 18.7146 23.8396 18.7146 24.0088V24.7278H18.4704V23.6017H18.4545Z" fill="#ED2224"/>
<path d="M20.6679 24.4582C20.5777 24.5693 20.4821 24.6486 20.376 24.6961C20.2698 24.7437 20.1477 24.7649 20.0097 24.7649C19.8929 24.7649 19.7921 24.7437 19.6965 24.7014C19.6063 24.6591 19.5266 24.6063 19.4629 24.5375C19.3992 24.4688 19.3515 24.3842 19.3143 24.2944C19.2772 24.1992 19.2612 24.0988 19.2612 23.993C19.2612 23.882 19.2825 23.7763 19.3196 23.6811C19.3568 23.586 19.4099 23.5014 19.4789 23.4379C19.5479 23.3692 19.6275 23.3163 19.7177 23.2793C19.808 23.2423 19.9088 23.2212 20.0203 23.2212C20.1212 23.2212 20.2167 23.2371 20.307 23.2741C20.3919 23.3111 20.4662 23.3586 20.5299 23.4274C20.5936 23.4908 20.6414 23.5754 20.6732 23.6705C20.7051 23.7657 20.7263 23.8767 20.7263 23.9983V24.0776H19.532C19.5373 24.1411 19.5532 24.1992 19.5797 24.2574C19.6063 24.3155 19.6381 24.3631 19.6806 24.4107C19.7231 24.453 19.7708 24.49 19.8292 24.5111C19.8876 24.5375 19.946 24.5481 20.015 24.5481C20.1212 24.5481 20.2114 24.527 20.2857 24.49C20.3601 24.453 20.4238 24.3948 20.4821 24.3208L20.6679 24.4582ZM20.4609 23.8556C20.4556 23.7287 20.4131 23.6283 20.3388 23.5542C20.2592 23.4802 20.153 23.4432 20.015 23.4432C19.877 23.4432 19.7655 23.4802 19.6859 23.5542C19.601 23.6283 19.5532 23.7287 19.532 23.8556H20.4609Z" fill="#ED2224"/>
<path d="M13.4434 4.30073H15.0465V5.59594H15.0836C15.2853 5.14659 15.6357 4.78181 16.1347 4.50162C16.6337 4.22144 17.2123 4.08398 17.8652 4.08398C18.2686 4.08398 18.6614 4.14742 19.033 4.26901C19.4099 4.39589 19.7337 4.58621 20.0151 4.84525C20.2964 5.10429 20.5194 5.44263 20.6839 5.8497C20.8485 6.25677 20.9334 6.74313 20.9334 7.29822V12.717H19.3303V7.74229C19.3303 7.35108 19.2772 7.01803 19.171 6.73784C19.0649 6.45765 18.9216 6.23562 18.7411 6.06116C18.5606 5.89199 18.3589 5.76511 18.1253 5.68582C17.8917 5.60652 17.6529 5.56951 17.4034 5.56951C17.0689 5.56951 16.7611 5.62238 16.4744 5.72811C16.1878 5.83384 15.9383 6.00301 15.7259 6.23562C15.5136 6.46823 15.3437 6.75899 15.227 7.11319C15.1102 7.46739 15.0465 7.89031 15.0465 8.37668V12.7117H13.4434V4.30073Z" fill="#F5333F"/>
<path d="M23.237 9.09582C23.237 9.4606 23.3166 9.79894 23.4759 10.1003C23.6351 10.4016 23.8474 10.6606 24.1076 10.8721C24.3677 11.0836 24.6702 11.2527 25.0153 11.369C25.3603 11.4854 25.716 11.5488 26.0876 11.5488C26.5865 11.5488 27.0218 11.4325 27.3881 11.1999C27.7544 10.9673 28.0941 10.6659 28.4073 10.2853L29.6176 11.2105C28.7258 12.3576 27.4783 12.9339 25.8699 12.9339C25.2064 12.9339 24.6012 12.8229 24.0598 12.5955C23.5183 12.3682 23.0618 12.0616 22.6849 11.6651C22.308 11.2686 22.0214 10.8034 21.8197 10.2642C21.6179 9.72492 21.5171 9.1434 21.5171 8.5143C21.5171 7.8852 21.6286 7.30367 21.8462 6.76444C22.0638 6.22521 22.3717 5.76 22.7539 5.3635C23.1414 4.96701 23.6033 4.6551 24.1341 4.43307C24.6702 4.20574 25.2542 4.09473 25.8805 4.09473C26.629 4.09473 27.2607 4.22689 27.7809 4.48593C28.2958 4.74497 28.7258 5.0886 29.0549 5.50624C29.3893 5.92917 29.6282 6.39967 29.7768 6.92833C29.9255 7.45699 29.9998 7.99093 29.9998 8.53545V9.09582H23.237ZM28.3011 7.81647C28.2905 7.46227 28.2321 7.1345 28.1313 6.83846C28.0304 6.54241 27.8765 6.28337 27.6747 6.06662C27.473 5.84987 27.2182 5.67541 26.9157 5.55382C26.6131 5.42694 26.2574 5.36879 25.854 5.36879C25.4612 5.36879 25.1002 5.4428 24.7764 5.59083C24.4473 5.73885 24.1713 5.92917 23.9483 6.16706C23.72 6.40496 23.5449 6.66929 23.4228 6.96005C23.2954 7.25081 23.237 7.53628 23.237 7.82176H28.3011V7.81647Z" fill="#F5333F"/>
</svg>
