<?xml version="1.0" encoding="utf-8"?>
<!-- Generator: Adobe Illustrator 16.0.0, SVG Export Plug-In . SVG Version: 6.00 Build 0)  -->
<!DOCTYPE svg PUBLIC "-//W3C//DTD SVG 1.1//EN" "http://www.w3.org/Graphics/SVG/1.1/DTD/svg11.dtd">
<svg version="1.1" id="Layer_1" xmlns="http://www.w3.org/2000/svg" xmlns:xlink="http://www.w3.org/1999/xlink" x="0px" y="0px"
	 width="312.611px" height="96.28px" viewBox="0 0 312.611 96.28" enable-background="new 0 0 312.611 96.28" xml:space="preserve">
<g>
	<g>
		<path fill="#0083C7" d="M175.54,18.635c1.146,0.958,1.721,2.435,1.721,4.43s-0.586,3.456-1.756,4.383
			c-1.171,0.927-2.966,1.39-5.384,1.39h-2.923v4.831h-2.78V17.198h5.655C172.571,17.198,174.393,17.677,175.54,18.635z
			 M173.572,25.434c0.558-0.589,0.837-1.453,0.837-2.592c0-1.139-0.354-1.944-1.061-2.416c-0.707-0.471-1.814-0.707-3.322-0.707
			h-2.828v6.598h3.229C171.966,26.317,173.014,26.022,173.572,25.434z"/>
		<path fill="#0083C7" d="M184.235,29.899c0.754,0.88,1.774,1.319,3.063,1.319c1.287,0,2.309-0.439,3.063-1.319
			c0.754-0.88,1.131-2.074,1.131-3.582v-9.119h2.78v9.237c0,2.372-0.652,4.198-1.955,5.479c-1.305,1.281-2.978,1.92-5.02,1.92
			c-2.043,0-3.716-0.64-5.02-1.92c-1.304-1.28-1.955-3.106-1.955-5.479v-9.237h2.78v9.119
			C183.104,27.825,183.481,29.019,184.235,29.899z"/>
		<path fill="#0083C7" d="M205.843,33.669h-7.211V17.198h6.409c1.115,0,2.077,0.134,2.887,0.401
			c0.809,0.267,1.409,0.628,1.803,1.083c0.754,0.849,1.131,1.807,1.131,2.875c0,1.289-0.409,2.247-1.226,2.875
			c-0.299,0.221-0.503,0.358-0.612,0.413c-0.11,0.055-0.307,0.146-0.589,0.271c1.021,0.22,1.834,0.68,2.438,1.378
			c0.604,0.699,0.907,1.567,0.907,2.604c0,1.147-0.393,2.16-1.178,3.04C209.675,33.159,208.089,33.669,205.843,33.669z
			 M201.413,24.031h3.534c2.012,0,3.017-0.683,3.017-2.05c0-0.786-0.243-1.351-0.73-1.697c-0.487-0.345-1.241-0.519-2.262-0.519
			h-3.559V24.031z M201.413,31.101h4.359c1.021,0,1.803-0.161,2.345-0.483s0.813-0.931,0.813-1.827c0-1.461-1.17-2.191-3.511-2.191
			h-4.006V31.101z"/>
		<path fill="#0083C7" d="M215.268,33.669V17.198h2.78V31.03h7.518v2.639H215.268z"/>
		<path fill="#0083C7" d="M228.605,17.198h2.781v16.471h-2.781V17.198z"/>
		<path fill="#0083C7" d="M243.474,31.147c0.958,0,1.783-0.161,2.475-0.483c0.691-0.322,1.414-0.836,2.168-1.543l1.791,1.838
			c-1.744,1.933-3.861,2.898-6.351,2.898c-2.49,0-4.557-0.801-6.198-2.403c-1.641-1.603-2.462-3.629-2.462-6.08
			s0.837-4.493,2.51-6.126s3.785-2.451,6.339-2.451c2.553,0,4.685,0.943,6.397,2.828l-1.768,1.932
			c-0.786-0.754-1.528-1.28-2.227-1.579c-0.699-0.298-1.521-0.448-2.463-0.448c-1.665,0-3.063,0.538-4.194,1.614
			c-1.131,1.076-1.696,2.451-1.696,4.124s0.562,3.071,1.685,4.194S241.935,31.147,243.474,31.147z"/>
		<path fill="#0083C7" d="M170.638,45.542v13.926h-2.78V45.542h-4.995v-2.545h12.771v2.545H170.638z"/>
		<path fill="#0083C7" d="M191.798,48.346c0,2.718-1.186,4.43-3.558,5.137l4.312,5.985h-3.534l-3.935-5.538h-3.653v5.538h-2.78
			V42.997h6.127c2.513,0,4.313,0.424,5.396,1.272C191.257,45.118,191.798,46.477,191.798,48.346z M188.099,50.679
			c0.565-0.487,0.849-1.269,0.849-2.345c0-1.076-0.291-1.814-0.872-2.215c-0.582-0.4-1.618-0.601-3.11-0.601h-3.535v5.891h3.464
			C186.465,51.409,187.534,51.166,188.099,50.679z"/>
		<path fill="#0083C7" d="M198.137,55.722l-1.649,3.747h-2.969l7.258-16.471h2.969l7.258,16.471h-2.969l-1.65-3.747H198.137z
			 M205.253,53.153l-2.992-6.787l-2.992,6.787H205.253z"/>
		<path fill="#0083C7" d="M225.636,42.997h2.781v16.471h-3.017L216.07,47.45v12.018h-2.781V42.997h2.781l9.566,12.3V42.997z"/>
		<path fill="#0083C7" d="M237.972,45.165c-0.81,0-1.473,0.165-1.991,0.495c-0.519,0.33-0.777,0.829-0.777,1.496
			c0,0.668,0.259,1.178,0.777,1.532s1.622,0.734,3.311,1.143s2.961,0.982,3.817,1.72s1.284,1.826,1.284,3.264
			c0,1.437-0.542,2.604-1.626,3.499s-2.506,1.343-4.265,1.343c-2.577,0-4.862-0.887-6.857-2.663l1.744-2.098
			c1.665,1.446,3.394,2.168,5.184,2.168c0.896,0,1.606-0.192,2.133-0.577c0.526-0.385,0.789-0.896,0.789-1.532
			s-0.247-1.131-0.742-1.484s-1.347-0.675-2.557-0.966c-1.21-0.291-2.129-0.558-2.757-0.801c-0.629-0.243-1.187-0.561-1.673-0.954
			c-0.975-0.738-1.461-1.87-1.461-3.393c0-1.524,0.554-2.698,1.661-3.523s2.478-1.237,4.111-1.237c1.053,0,2.098,0.173,3.135,0.519
			c1.037,0.346,1.932,0.833,2.686,1.461l-1.484,2.097c-0.486-0.439-1.146-0.801-1.979-1.084
			C239.602,45.306,238.781,45.165,237.972,45.165z"/>
		<path fill="#0083C7" d="M258.956,44.434c1.146,0.958,1.721,2.436,1.721,4.43c0,1.995-0.586,3.456-1.756,4.383
			c-1.171,0.927-2.966,1.391-5.384,1.391h-2.923v4.831h-2.78V42.997h5.655C255.987,42.997,257.809,43.476,258.956,44.434z
			 M256.988,51.232c0.558-0.589,0.837-1.453,0.837-2.592s-0.354-1.944-1.061-2.416s-1.814-0.707-3.322-0.707h-2.828v6.598h3.229
			C255.382,52.116,256.43,51.821,256.988,51.232z"/>
		<path fill="#0083C7" d="M277.736,57.194c-1.665,1.626-3.723,2.438-6.174,2.438c-2.45,0-4.509-0.813-6.174-2.438
			s-2.498-3.652-2.498-6.08s0.833-4.454,2.498-6.08s3.724-2.439,6.174-2.439c2.451,0,4.509,0.813,6.174,2.439
			s2.498,3.652,2.498,6.08S279.401,55.568,277.736,57.194z M275.698,46.885c-1.123-1.162-2.502-1.744-4.136-1.744
			s-3.013,0.582-4.135,1.744c-1.124,1.163-1.686,2.573-1.686,4.23c0,1.658,0.562,3.067,1.686,4.23
			c1.122,1.163,2.501,1.743,4.135,1.743s3.013-0.581,4.136-1.743s1.685-2.572,1.685-4.23
			C277.382,49.458,276.821,48.048,275.698,46.885z"/>
		<path fill="#0083C7" d="M296.894,48.346c0,2.718-1.187,4.43-3.559,5.137l4.313,5.985h-3.535l-3.935-5.538h-3.653v5.538h-2.78
			V42.997h6.127c2.513,0,4.313,0.424,5.396,1.272C296.352,45.118,296.894,46.477,296.894,48.346z M293.194,50.679
			c0.565-0.487,0.849-1.269,0.849-2.345c0-1.076-0.291-1.814-0.872-2.215s-1.618-0.601-3.11-0.601h-3.535v5.891h3.465
			C291.56,51.409,292.628,51.166,293.194,50.679z"/>
		<path fill="#0083C7" d="M306.884,45.542v13.926h-2.78V45.542h-4.995v-2.545h12.771v2.545H306.884z"/>
		<path fill="#0083C7" d="M171.935,82.746c0.957,0,1.782-0.161,2.474-0.483c0.691-0.321,1.414-0.836,2.168-1.543l1.791,1.838
			c-1.744,1.932-3.861,2.898-6.351,2.898c-2.49,0-4.557-0.802-6.197-2.403c-1.642-1.603-2.463-3.629-2.463-6.08
			c0-2.45,0.837-4.492,2.51-6.127c1.673-1.634,3.785-2.45,6.339-2.45c2.553,0,4.685,0.942,6.397,2.828l-1.768,1.932
			c-0.785-0.754-1.527-1.28-2.227-1.579c-0.699-0.298-1.52-0.447-2.463-0.447c-1.665,0-3.063,0.538-4.193,1.614
			c-1.132,1.076-1.697,2.45-1.697,4.123c0,1.674,0.562,3.072,1.686,4.195C169.064,82.185,170.395,82.746,171.935,82.746z"/>
		<path fill="#0083C7" d="M195.192,82.993c-1.665,1.626-3.723,2.439-6.174,2.439c-2.45,0-4.509-0.813-6.174-2.439
			s-2.497-3.652-2.497-6.079s0.832-4.454,2.497-6.08s3.724-2.438,6.174-2.438c2.451,0,4.509,0.813,6.174,2.438
			s2.498,3.653,2.498,6.08S196.857,81.367,195.192,82.993z M193.154,72.685c-1.123-1.163-2.502-1.744-4.136-1.744
			s-3.013,0.581-4.136,1.744c-1.123,1.162-1.685,2.572-1.685,4.229s0.562,3.067,1.685,4.229c1.123,1.163,2.502,1.744,4.136,1.744
			s3.013-0.581,4.136-1.744c1.123-1.162,1.685-2.572,1.685-4.229S194.277,73.847,193.154,72.685z"/>
		<path fill="#0083C7" d="M204.9,81.497c0.754,0.88,1.775,1.319,3.063,1.319s2.31-0.439,3.063-1.319s1.131-2.073,1.131-3.582v-9.119
			h2.781v9.237c0,2.372-0.652,4.198-1.956,5.479s-2.978,1.921-5.02,1.921s-3.715-0.641-5.019-1.921
			c-1.305-1.28-1.956-3.106-1.956-5.479v-9.237h2.78v9.119C203.769,79.424,204.146,80.617,204.9,81.497z"/>
		<path fill="#0083C7" d="M231.646,68.796h2.78v16.472h-3.017l-9.331-12.018v12.018h-2.78V68.796h2.78l9.567,12.301V68.796z"/>
		<path fill="#0083C7" d="M246.514,82.746c0.958,0,1.783-0.161,2.475-0.483c0.69-0.321,1.413-0.836,2.168-1.543l1.79,1.838
			c-1.743,1.932-3.86,2.898-6.35,2.898c-2.49,0-4.557-0.802-6.197-2.403c-1.643-1.603-2.463-3.629-2.463-6.08
			c0-2.45,0.836-4.492,2.51-6.127c1.673-1.634,3.785-2.45,6.339-2.45c2.552,0,4.685,0.942,6.397,2.828l-1.768,1.932
			c-0.785-0.754-1.527-1.28-2.227-1.579c-0.699-0.298-1.52-0.447-2.463-0.447c-1.665,0-3.063,0.538-4.194,1.614
			c-1.131,1.076-1.696,2.45-1.696,4.123c0,1.674,0.562,3.072,1.685,4.195S244.974,82.746,246.514,82.746z"/>
		<path fill="#0083C7" d="M256.34,68.796h2.78v16.472h-2.78V68.796z"/>
		<path fill="#0083C7" d="M263.692,85.268V68.796h2.78v13.832h7.518v2.64H263.692z"/>
	</g>
	<g>
		<g>
			<g>
				<g>
					<path fill="#7DC142" d="M78.52,27.31v48.229h-9.533V27.31H49.74v-8.566h47.767v8.566H78.52z"/>
					<path fill="#0083C7" d="M146.329,27.504l-5.6,6.976c-4.133-4.461-10.06-7.219-15.816-7.219
						c-11.357,0-20.277,8.757-20.277,19.954c0,11.188,8.92,20.031,20.277,20.031c5.677,0,11.519-2.592,15.816-6.731l5.683,6.328
						c-5.766,5.681-13.956,9.329-21.983,9.329c-16.63,0-29.527-12.57-29.527-28.875c0-16.142,13.061-28.553,29.847-28.553
						C132.78,18.743,140.811,22.069,146.329,27.504z"/>
					<path fill="#7DC142" d="M26.847,18.743H4.387v8.534h9.497h3.565h8.992c8.692,0,13.605,3.542,13.605,10.946
						c0,7.648-4.913,11.351-13.605,11.351h-8.992v0.025H4.387v24.248l9.497,1.691V58.106h12.963
						c14.165,0,22.294-7.405,22.294-20.123C49.141,25.748,41.012,18.743,26.847,18.743z"/>
					<path fill="#7DC142" d="M28.709,5.779c0,3.188-2.585,5.776-5.777,5.776c-3.19,0-5.778-2.588-5.778-5.776
						C17.153,2.584,19.741,0,22.932,0C26.124,0,28.709,2.584,28.709,5.779z"/>
					<path fill="#7DC142" d="M79.428,5.779c0,3.188-2.588,5.776-5.776,5.776c-3.192,0-5.78-2.588-5.78-5.776
						c0-3.195,2.588-5.779,5.78-5.779C76.84,0,79.428,2.584,79.428,5.779z"/>
					<path fill="#0083C7" d="M130.274,5.779c0,3.188-2.585,5.776-5.778,5.776c-3.192,0-5.78-2.588-5.78-5.776
						c0-3.195,2.588-5.779,5.78-5.779C127.689,0,130.274,2.584,130.274,5.779z"/>
				</g>
				<path fill="#4F4C4D" d="M0,76.979c1.154,1.205,2.467,2.559,3.925,4.01c26.647,5.699,80.831,13.734,146.602-0.111
					C150.526,80.878,79.567,95.188,0,76.979z"/>
			</g>
			<g>
				<path fill="#A7A6A6" d="M13.974,90.318c1.412,1.209,2.861,2.405,4.334,3.573c23.291,1.885,76.263,8.308,132.08-12.959
					c-0.749,0.273-4.384,1.191-11.098,2.864C120.548,88.462,78.532,96.175,13.974,90.318z"/>
			</g>
		</g>
		<path fill="#7B7979" d="M6.729,83.73c1.384,1.323,2.849,2.692,4.379,4.069c21.432,3.074,80.083,11.036,139.419-6.922
			C150.526,80.878,76.04,95.996,6.729,83.73z"/>
	</g>
</g>
<g>
</g>
<g>
</g>
<g>
</g>
<g>
</g>
<g>
</g>
<g>
</g>
</svg>
