<?xml version="1.0" encoding="UTF-8"?>
<svg id="Layer_1" data-name="Layer 1" xmlns="http://www.w3.org/2000/svg" viewBox="0 0 1080 1080">
  <defs>
    <style>
      .cls-1 {
        fill: #f59200;
      }

      .cls-2 {
        fill: #fff;
      }
    </style>
  </defs>
  <circle class="cls-2" cx="540" cy="540" r="540"/>
  <g>
    <path class="cls-1" d="m686.98,786.73c9.14-13.18,6.08-41.62-22.85-43.55-8.63-.58-127.8,17.45-252.35,26.2-91.95,6.46-186.78,9.13-242.27,10.21,16.39,24.82,35.61,48.37,57.81,70.57,29.75,29.75,61.91,54.17,96.37,73.49,0-.03-.02-.06-.02-.09-9.95-49.23,39.89-74.61,77.72-81.76,31.14-5.88,226.13-35.33,247.12-38.68,12.43-1.98,30.64-5.11,38.46-16.38Z"/>
    <path class="cls-1" d="m851.85,226.46c-85.4-84.82-189.61-127.23-312.68-127.23s-227.02,42.41-311.84,127.23c-84.82,84.82-127.24,188.77-127.24,311.85,0,38.6,4.18,75.31,12.53,110.15,116.12,21.18,264.9,38.44,427.39,38.44s311.22-17.61,427.33-38.52c8.38-34.81,12.59-71.51,12.59-110.08,0-123.08-42.7-227.03-128.06-311.85Zm-165.8-25.54c27.7,0,50.15,22.45,50.15,50.15s-22.45,50.15-50.15,50.15-50.15-22.45-50.15-50.15,22.45-50.15,50.15-50.15Zm-292.1,0c27.7,0,50.15,22.45,50.15,50.15s-22.45,50.15-50.15,50.15-50.15-22.45-50.15-50.15,22.45-50.15,50.15-50.15Zm-149.04,290.93c-18.61,18.61-48.77,18.61-67.38,0-18.61-18.61-18.61-48.77,0-67.38,18.61-18.6,48.77-18.6,67.38,0,18.6,18.61,18.6,48.77,0,67.38Zm295.09,128.03c-129.22,0-258.45-21.75-258.45-21.75,0-151.98,115.71-275.19,258.45-275.19s258.45,123.21,258.45,275.19c0,0-129.23,21.75-258.45,21.75Zm362.47-128.03c-18.61,18.61-48.77,18.61-67.38,0-18.61-18.61-18.61-48.77,0-67.38,18.6-18.6,48.77-18.6,67.38,0,18.61,18.61,18.61,48.77,0,67.38Z"/>
    <path class="cls-1" d="m504.87,947.22c19.53,29.72,62.64,42.15,129.3,27.23,62.74-14.05,180.07-59.65,275.32-194.02-239.11,68.34-338.83,90.81-377.73,98.24-34.44,6.58-43.89,42.7-26.89,68.55Z"/>
  </g>
</svg>