<svg width="75" height="30" viewBox="0 0 75 30" fill="none" xmlns="http://www.w3.org/2000/svg">
<path d="M62.7345 26.0547C62.7345 26.9824 61.9824 27.7345 61.0547 27.7345C60.127 27.7345 59.375 26.9824 59.375 26.0547C59.375 25.127 60.127 24.375 61.0547 24.375C61.9824 24.375 62.7345 25.127 62.7345 26.0547Z" fill="#ED1A3B"/>
<path d="M8.56293 7.77502V7.74529C8.56293 7.2894 8.4886 6.89792 8.33994 6.57086C8.20119 6.24381 7.98811 5.96135 7.70069 5.72349C7.42319 5.47572 7.07631 5.26759 6.66006 5.09911C6.25372 4.92071 5.78791 4.76214 5.26264 4.62339C4.81665 4.50446 4.44499 4.4004 4.14767 4.3112C3.86026 4.222 3.63231 4.12785 3.46383 4.02874C3.29534 3.92963 3.17641 3.82061 3.10704 3.70168C3.04757 3.57284 3.01784 3.42418 3.01784 3.2557V3.22597C3.01784 2.96829 3.12686 2.7552 3.3449 2.58672C3.57284 2.40832 3.90981 2.31913 4.3558 2.31913C4.80178 2.31913 5.24777 2.41328 5.69376 2.60159C6.13974 2.77998 6.59564 3.02775 7.06145 3.3449L8.25074 1.62042C7.71556 1.19425 7.12587 0.867195 6.48167 0.639246C5.84737 0.411298 5.14866 0.297324 4.38553 0.297324C3.85035 0.297324 3.35976 0.371655 2.91378 0.520317C2.46779 0.668979 2.08127 0.882062 1.75421 1.15956C1.43707 1.43707 1.1893 1.76908 1.0109 2.1556C0.832507 2.53221 0.74331 2.95837 0.74331 3.43409V3.46383C0.74331 3.97919 0.822597 4.41031 0.98117 4.75718C1.14965 5.10406 1.38256 5.39643 1.67988 5.63429C1.97721 5.86224 2.33895 6.0555 2.76511 6.21407C3.19128 6.37265 3.667 6.51635 4.19227 6.64519C4.62834 6.75421 4.98018 6.85827 5.24777 6.95738C5.52527 7.05649 5.73835 7.1556 5.88702 7.25471C6.04559 7.35382 6.14965 7.46283 6.19921 7.58176C6.25867 7.69078 6.2884 7.81962 6.2884 7.96829V7.99802C6.2884 8.30525 6.15461 8.54807 5.88702 8.72646C5.62934 8.89495 5.26264 8.97919 4.78692 8.97919C4.19227 8.97919 3.64222 8.86521 3.13677 8.63726C2.64123 8.40932 2.1556 8.10208 1.67988 7.71556L0.327056 9.33598C0.951437 9.90089 1.64519 10.3221 2.40833 10.5996C3.17146 10.8672 3.94946 11.001 4.74232 11.001C5.30723 11.001 5.8226 10.9316 6.2884 10.7929C6.75421 10.6442 7.1556 10.4361 7.49257 10.1685C7.82953 9.89098 8.09217 9.55401 8.28048 9.15758C8.46878 8.75124 8.56293 8.29039 8.56293 7.77502Z" fill="#333333"/>
<path d="M12.4378 2.00694V0H10.0592V2.00694H12.4378ZM12.3783 10.8523V2.88404H10.1187V10.8523H12.3783Z" fill="#333333"/>
<path d="M21.5026 10.8523V5.69376C21.5026 4.77205 21.2647 4.04856 20.789 3.52329C20.3232 2.99802 19.6592 2.73538 18.7969 2.73538C18.5095 2.73538 18.2518 2.77007 18.0239 2.83944C17.7959 2.90882 17.5878 3.00297 17.3995 3.1219C17.2112 3.24083 17.0378 3.37958 16.8792 3.53816C16.7305 3.68682 16.5918 3.84539 16.4629 4.01387V2.88404H14.2033V10.8523H16.4629V6.40733C16.4629 5.87215 16.5868 5.47076 16.8346 5.20317C17.0923 4.92567 17.4391 4.78692 17.8752 4.78692C18.3113 4.78692 18.6483 4.92567 18.8861 5.20317C19.124 5.47076 19.2429 5.87215 19.2429 6.40733V10.8523H21.5026Z" fill="#333333"/>
<path d="M31.1812 9.05352V2.88404H28.9215V3.92468C28.6143 3.58771 28.2624 3.30525 27.866 3.0773C27.4696 2.84936 26.9641 2.73538 26.3496 2.73538C25.8938 2.73538 25.4527 2.81962 25.0266 2.98811C24.6004 3.14668 24.2238 3.38454 23.8967 3.70168C23.5697 4.01883 23.307 4.41031 23.1088 4.87611C22.9106 5.33201 22.8115 5.85728 22.8115 6.45193V6.48166C22.8115 7.07631 22.9056 7.60654 23.094 8.07235C23.2922 8.52824 23.5548 8.91477 23.8819 9.23191C24.2089 9.54906 24.5855 9.79187 25.0117 9.96036C25.4379 10.1189 25.8838 10.1982 26.3496 10.1982C26.9542 10.1982 27.4547 10.0842 27.8511 9.85629C28.2476 9.62834 28.6143 9.3112 28.9512 8.90486V9.29138C28.9512 10.005 28.7629 10.5451 28.3863 10.9118C28.0196 11.2785 27.4497 11.4618 26.6767 11.4618C26.1415 11.4618 25.6608 11.3974 25.2347 11.2686C24.8184 11.1397 24.4022 10.9613 23.9859 10.7334L23.2129 12.4281C23.7183 12.6957 24.2684 12.8989 24.863 13.0377C25.4577 13.1863 26.0821 13.2607 26.7362 13.2607C27.4795 13.2607 28.1286 13.1814 28.6836 13.0228C29.2386 12.8642 29.6995 12.6165 30.0662 12.2795C30.4428 11.9425 30.7203 11.5064 30.8987 10.9713C31.087 10.446 31.1812 9.80674 31.1812 9.05352ZM28.9512 6.48166C28.9512 6.74926 28.9017 6.99703 28.8026 7.22497C28.7035 7.45292 28.5647 7.65114 28.3863 7.81962C28.2178 7.9782 28.0147 8.10208 27.7768 8.19128C27.5389 8.28048 27.2813 8.32507 27.0038 8.32507C26.4488 8.32507 25.9879 8.15659 25.6212 7.81962C25.2545 7.48266 25.0712 7.03667 25.0712 6.48166V6.45193C25.0712 6.18434 25.1207 5.93657 25.2198 5.70862C25.3189 5.48067 25.4527 5.28741 25.6212 5.12884C25.7996 4.96036 26.0028 4.83152 26.2307 4.74232C26.4686 4.65312 26.7263 4.60852 27.0038 4.60852C27.2813 4.60852 27.5389 4.65312 27.7768 4.74232C28.0147 4.83152 28.2178 4.96036 28.3863 5.12884C28.5647 5.28741 28.7035 5.48067 28.8026 5.70862C28.9017 5.93657 28.9512 6.18434 28.9512 6.45193V6.48166Z" fill="#333333"/>
<path d="M39.7561 10.8523V6.22894C39.7561 5.14866 39.4736 4.30624 38.9087 3.70168C38.3438 3.09712 37.4419 2.79485 36.203 2.79485C35.5291 2.79485 34.9543 2.85431 34.4786 2.97324C34.0028 3.09217 33.5469 3.24579 33.1109 3.43409L33.6758 5.15857C34.0425 5.01982 34.3894 4.91576 34.7164 4.84638C35.0534 4.7671 35.4399 4.72745 35.876 4.72745C36.4409 4.72745 36.8671 4.85134 37.1545 5.09911C37.4419 5.34688 37.5856 5.70862 37.5856 6.18434V6.31814C37.2982 6.21903 37.0009 6.13974 36.6936 6.08028C36.3963 6.02081 36.0445 5.99108 35.6381 5.99108C35.1624 5.99108 34.7263 6.04559 34.3299 6.15461C33.9434 6.25372 33.6064 6.40733 33.319 6.61546C33.0415 6.82359 32.8235 7.08622 32.6649 7.40337C32.5063 7.72052 32.427 8.09713 32.427 8.5332V8.56293C32.427 8.95936 32.4964 9.3112 32.6352 9.61843C32.7838 9.91576 32.982 10.1685 33.2298 10.3766C33.4776 10.5847 33.765 10.7433 34.092 10.8523C34.429 10.9514 34.7858 11.001 35.1624 11.001C35.7174 11.001 36.1882 10.9118 36.5747 10.7334C36.9612 10.5451 37.2932 10.2973 37.5707 9.99009V10.8523H39.7561ZM37.6153 8.04262C37.6153 8.45887 37.4518 8.79584 37.1247 9.05352C36.8076 9.3112 36.3814 9.44004 35.8463 9.44004C35.4796 9.44004 35.1822 9.3558 34.9543 9.18731C34.7263 9.01883 34.6124 8.78097 34.6124 8.47374V8.444C34.6124 8.08721 34.7511 7.81467 35.0286 7.62636C35.3061 7.43806 35.6877 7.3439 36.1733 7.3439C36.4508 7.3439 36.7085 7.37364 36.9464 7.4331C37.1941 7.48266 37.4171 7.55203 37.6153 7.64123V8.04262Z" fill="#333333"/>
<path d="M49.7729 6.88305V6.85332C49.7729 6.1893 49.6688 5.60456 49.4607 5.09911C49.2625 4.58375 48.9949 4.15263 48.6579 3.80575C48.3209 3.44896 47.9344 3.18137 47.4983 3.00297C47.0623 2.82458 46.6113 2.73538 46.1455 2.73538C45.5509 2.73538 45.0553 2.85927 44.6589 3.10704C44.2724 3.3449 43.9404 3.65213 43.6629 4.02874V2.88404H41.4032V13.2309H43.6629V9.81169C43.9304 10.1288 44.2575 10.4063 44.644 10.6442C45.0405 10.8821 45.541 11.001 46.1455 11.001C46.6212 11.001 47.0771 10.9118 47.5132 10.7334C47.9493 10.555 48.3308 10.2924 48.6579 9.94549C48.9949 9.5887 49.2625 9.15758 49.4607 8.65213C49.6688 8.13677 49.7729 7.54708 49.7729 6.88305ZM47.5132 6.88305C47.5132 7.22002 47.4587 7.5223 47.3497 7.78989C47.2506 8.05748 47.1118 8.29039 46.9334 8.4886C46.755 8.67691 46.5469 8.82557 46.309 8.93459C46.0811 9.0337 45.8333 9.08325 45.5657 9.08325C45.2981 9.08325 45.0454 9.0337 44.8076 8.93459C44.5796 8.82557 44.3764 8.67691 44.198 8.4886C44.0296 8.29039 43.8908 8.05748 43.7818 7.78989C43.6827 7.51239 43.6331 7.21011 43.6331 6.88305V6.85332C43.6331 6.52626 43.6827 6.22894 43.7818 5.96135C43.8908 5.68385 44.0296 5.45094 44.198 5.26264C44.3764 5.06442 44.5796 4.91576 44.8076 4.81665C45.0454 4.70763 45.2981 4.65312 45.5657 4.65312C45.8333 4.65312 46.0811 4.70763 46.309 4.81665C46.5469 4.91576 46.755 5.06442 46.9334 5.26264C47.1118 5.45094 47.2506 5.68385 47.3497 5.96135C47.4587 6.22894 47.5132 6.52626 47.5132 6.85332V6.88305Z" fill="#333333"/>
<path d="M59.3735 6.88305V6.85332C59.3735 6.27849 59.2645 5.74331 59.0465 5.24777C58.8284 4.74232 58.5262 4.30624 58.1396 3.93954C57.763 3.56293 57.3121 3.27056 56.7868 3.06244C56.2615 2.8444 55.6917 2.73538 55.0772 2.73538C54.4528 2.73538 53.878 2.8444 53.3527 3.06244C52.8274 3.28048 52.3715 3.5778 51.985 3.95441C51.5985 4.33102 51.2962 4.77205 51.0782 5.2775C50.8601 5.77304 50.7511 6.30823 50.7511 6.88305V6.91279C50.7511 7.48761 50.8601 8.02775 51.0782 8.5332C51.2962 9.02874 51.5935 9.46482 51.9702 9.84143C52.3567 10.2081 52.8126 10.5005 53.3379 10.7185C53.8631 10.9267 54.433 11.0307 55.0475 11.0307C55.6718 11.0307 56.2467 10.9217 56.7719 10.7037C57.2972 10.4856 57.7531 10.1883 58.1396 9.81169C58.5262 9.43508 58.8284 8.99901 59.0465 8.50347C59.2645 7.99802 59.3735 7.45788 59.3735 6.88305ZM57.1436 6.91279C57.1436 7.21011 57.094 7.49257 56.9949 7.76016C56.9057 8.01784 56.7719 8.24579 56.5935 8.444C56.4152 8.64222 56.1971 8.80079 55.9394 8.91972C55.6917 9.02874 55.4043 9.08325 55.0772 9.08325C54.76 9.08325 54.4726 9.02379 54.215 8.90486C53.9672 8.78593 53.7491 8.62735 53.5608 8.42914C53.3725 8.22101 53.2288 7.98811 53.1297 7.73043C53.0306 7.46283 52.9811 7.18038 52.9811 6.88305V6.85332C52.9811 6.55599 53.0257 6.27849 53.1149 6.02081C53.214 5.75322 53.3527 5.52032 53.5311 5.3221C53.7095 5.12389 53.9226 4.97027 54.1704 4.86125C54.428 4.74232 54.7204 4.68285 55.0475 4.68285C55.3547 4.68285 55.6372 4.74232 55.8948 4.86125C56.1525 4.98018 56.3755 5.14371 56.5638 5.35183C56.7521 5.55005 56.8958 5.78295 56.9949 6.05054C57.094 6.30823 57.1436 6.58573 57.1436 6.88305V6.91279Z" fill="#333333"/>
<path d="M65.5142 5.09911V2.73538C64.8403 2.70565 64.3051 2.85431 63.9086 3.18137C63.5122 3.50842 63.2 3.9445 62.9721 4.48959V2.88404H60.7124V10.8523H62.9721V7.90882C62.9721 6.94747 63.1852 6.23885 63.6113 5.78295C64.0474 5.32706 64.642 5.09911 65.3953 5.09911H65.5142Z" fill="#333333"/>
<path d="M74.0618 7.09118V7.06145C74.0618 6.49653 73.9825 5.95639 73.8239 5.44103C73.6753 4.91576 73.4374 4.45491 73.1104 4.05847C72.7932 3.65213 72.3918 3.33003 71.9062 3.09217C71.4206 2.85431 70.8457 2.73538 70.1817 2.73538C69.597 2.73538 69.0618 2.8444 68.5762 3.06244C68.1005 3.28048 67.6892 3.5778 67.3423 3.95441C66.9954 4.33102 66.7229 4.77205 66.5246 5.2775C66.3363 5.78295 66.2422 6.31814 66.2422 6.88305V6.91279C66.2422 7.52725 66.3462 8.08721 66.5544 8.59267C66.7625 9.08821 67.0499 9.51933 67.4166 9.88603C67.7932 10.2527 68.2343 10.5352 68.7397 10.7334C69.2551 10.9316 69.8101 11.0307 70.4047 11.0307C71.1282 11.0307 71.7575 10.9019 72.2927 10.6442C72.8279 10.3766 73.2838 10.0099 73.6604 9.5441L72.3671 8.3994C72.0499 8.68682 71.7427 8.89495 71.4454 9.02379C71.148 9.15263 70.8111 9.21705 70.4344 9.21705C69.929 9.21705 69.5028 9.08821 69.156 8.83052C68.819 8.56293 68.596 8.17146 68.487 7.65609H74.0321C74.042 7.54708 74.0469 7.45292 74.0469 7.37364C74.0568 7.29435 74.0618 7.2002 74.0618 7.09118ZM71.8616 6.24381H68.4572C68.5464 5.72844 68.7347 5.31715 69.0222 5.00991C69.3195 4.70268 69.706 4.54906 70.1817 4.54906C70.6574 4.54906 71.039 4.70763 71.3264 5.02478C71.6138 5.33201 71.7922 5.73835 71.8616 6.24381Z" fill="#333333"/>
<path d="M7.09118 23.9792V17.1705H4.74232V23.8751C4.74232 24.4797 4.61843 24.9207 4.37066 25.1982C4.12289 25.4658 3.78097 25.5996 3.3449 25.5996C2.9782 25.5996 2.64123 25.5104 2.33399 25.332C2.03667 25.1437 1.73935 24.886 1.44202 24.559L0 26.1645C0.356789 26.5907 0.80773 26.9574 1.35282 27.2646C1.90783 27.5719 2.59168 27.7255 3.40436 27.7255C3.94945 27.7255 4.44995 27.6511 4.90585 27.5025C5.36174 27.3439 5.74827 27.111 6.06541 26.8038C6.39247 26.4866 6.64519 26.0951 6.82359 25.6293C7.00198 25.1635 7.09118 24.6135 7.09118 23.9792Z" fill="#333333"/>
<path d="M17.1326 23.6075V23.5778C17.1326 23.003 17.0236 22.4678 16.8055 21.9722C16.5875 21.4668 16.2852 21.0307 15.8987 20.664C15.5221 20.2874 15.0712 19.995 14.5459 19.7869C14.0206 19.5689 13.4507 19.4599 12.8363 19.4599C12.2119 19.4599 11.6371 19.5689 11.1118 19.7869C10.5865 20.005 10.1306 20.3023 9.7441 20.6789C9.35758 21.0555 9.0553 21.4965 8.83726 22.002C8.61922 22.4975 8.5102 23.0327 8.5102 23.6075V23.6373C8.5102 24.2121 8.61922 24.7522 8.83726 25.2577C9.0553 25.7532 9.35262 26.1893 9.72923 26.5659C10.1158 26.9326 10.5717 27.225 11.0969 27.443C11.6222 27.6511 12.1921 27.7552 12.8065 27.7552C13.4309 27.7552 14.0057 27.6462 14.531 27.4281C15.0563 27.2101 15.5122 26.9128 15.8987 26.5362C16.2852 26.1596 16.5875 25.7235 16.8055 25.2279C17.0236 24.7225 17.1326 24.1824 17.1326 23.6075ZM14.9027 23.6373C14.9027 23.9346 14.8531 24.217 14.754 24.4846C14.6648 24.7423 14.531 24.9703 14.3526 25.1685C14.1742 25.3667 13.9562 25.5253 13.6985 25.6442C13.4507 25.7532 13.1633 25.8077 12.8363 25.8077C12.5191 25.8077 12.2317 25.7483 11.974 25.6293C11.7263 25.5104 11.5082 25.3518 11.3199 25.1536C11.1316 24.9455 10.9879 24.7126 10.8888 24.4549C10.7897 24.1873 10.7401 23.9049 10.7401 23.6075V23.5778C10.7401 23.2805 10.7847 23.003 10.8739 22.7453C10.973 22.4777 11.1118 22.2448 11.2902 22.0466C11.4686 21.8484 11.6817 21.6947 11.9294 21.5857C12.1871 21.4668 12.4795 21.4073 12.8065 21.4073C13.1138 21.4073 13.3962 21.4668 13.6539 21.5857C13.9116 21.7047 14.1346 21.8682 14.3229 22.0763C14.5112 22.2745 14.6549 22.5074 14.754 22.775C14.8531 23.0327 14.9027 23.3102 14.9027 23.6075V23.6373Z" fill="#333333"/>
<path d="M25.7113 27.5768V19.6085H23.4517V24.0535C23.4517 24.5887 23.3228 24.995 23.0651 25.2725C22.8174 25.5401 22.4755 25.6739 22.0394 25.6739C21.6033 25.6739 21.2663 25.5401 21.0285 25.2725C20.7906 24.995 20.6717 24.5887 20.6717 24.0535V19.6085H18.412V24.7671C18.412 25.6888 18.6449 26.4123 19.1107 26.9376C19.5865 27.4628 20.2554 27.7255 21.1177 27.7255C21.4051 27.7255 21.6628 27.6908 21.8907 27.6214C22.1187 27.552 22.3268 27.4579 22.5151 27.3389C22.7034 27.22 22.8719 27.0862 23.0205 26.9376C23.1791 26.779 23.3228 26.6155 23.4517 26.447V27.5768H25.7113Z" fill="#333333"/>
<path d="M32.2383 21.8236V19.4599C31.5644 19.4301 31.0292 19.5788 30.6327 19.9058C30.2363 20.2329 29.9241 20.669 29.6962 21.2141V19.6085H27.4365V27.5768H29.6962V24.6333C29.6962 23.672 29.9093 22.9633 30.3354 22.5074C30.7715 22.0515 31.3661 21.8236 32.1194 21.8236H32.2383Z" fill="#333333"/>
<path d="M40.6521 27.5768V22.4182C40.6521 21.4965 40.4142 20.773 39.9385 20.2478C39.4727 19.7225 38.8087 19.4599 37.9465 19.4599C37.659 19.4599 37.4014 19.4945 37.1734 19.5639C36.9455 19.6333 36.7373 19.7275 36.549 19.8464C36.3607 19.9653 36.1873 20.1041 36.0287 20.2626C35.88 20.4113 35.7413 20.5699 35.6125 20.7384V19.6085H33.3528V27.5768H35.6125V23.1318C35.6125 22.5966 35.7363 22.1952 35.9841 21.9276C36.2418 21.6501 36.5887 21.5114 37.0247 21.5114C37.4608 21.5114 37.7978 21.6501 38.0356 21.9276C38.2735 22.1952 38.3924 22.5966 38.3924 23.1318V27.5768H40.6521Z" fill="#333333"/>
<path d="M49.7509 23.8157V23.7859C49.7509 23.221 49.6716 22.6809 49.5131 22.1655C49.3644 21.6402 49.1265 21.1794 48.7995 20.783C48.4823 20.3766 48.0809 20.0545 47.5953 19.8166C47.1097 19.5788 46.5349 19.4599 45.8708 19.4599C45.2861 19.4599 44.7509 19.5689 44.2653 19.7869C43.7896 20.005 43.3783 20.3023 43.0314 20.6789C42.6845 21.0555 42.412 21.4965 42.2137 22.002C42.0254 22.5074 41.9313 23.0426 41.9313 23.6075V23.6373C41.9313 24.2517 42.0354 24.8117 42.2435 25.3171C42.4516 25.8127 42.739 26.2438 43.1057 26.6105C43.4823 26.9772 43.9234 27.2597 44.4288 27.4579C44.9442 27.6561 45.4992 27.7552 46.0938 27.7552C46.8173 27.7552 47.4467 27.6264 47.9818 27.3687C48.517 27.1011 48.9729 26.7344 49.3495 26.2686L48.0562 25.1239C47.739 25.4113 47.4318 25.6194 47.1345 25.7483C46.8371 25.8771 46.5002 25.9415 46.1236 25.9415C45.6181 25.9415 45.1919 25.8127 44.8451 25.555C44.5081 25.2874 44.2851 24.8959 44.1761 24.3806H49.7212C49.7311 24.2716 49.736 24.1774 49.736 24.0981C49.746 24.0188 49.7509 23.9247 49.7509 23.8157ZM47.5507 22.9683H44.1464C44.2355 22.4529 44.4239 22.0416 44.7113 21.7344C45.0086 21.4272 45.3951 21.2735 45.8708 21.2735C46.3465 21.2735 46.7281 21.4321 47.0155 21.7493C47.3029 22.0565 47.4813 22.4628 47.5507 22.9683Z" fill="#333333"/>
<path d="M58.7194 19.6085H56.3706L54.6312 25.0347L52.8175 19.6085H50.4241L53.546 27.6065C53.4469 27.8048 53.3378 27.9386 53.2189 28.0079C53.1099 28.0872 52.9563 28.1269 52.7581 28.1269C52.6094 28.1269 52.4459 28.0971 52.2675 28.0377C52.099 27.9782 51.9404 27.9039 51.7918 27.8147L51.0336 29.4499C51.321 29.6184 51.6233 29.7522 51.9404 29.8513C52.2576 29.9504 52.6243 30 53.0405 30C53.3775 30 53.6748 29.9604 53.9325 29.8811C54.1902 29.8018 54.4181 29.6729 54.6163 29.4945C54.8245 29.3162 55.0128 29.0833 55.1813 28.7958C55.3497 28.5183 55.5083 28.1764 55.657 27.7701L58.7194 19.6085Z" fill="#333333"/>
</svg>
