<svg xmlns="http://www.w3.org/2000/svg" fill="none" viewBox="0 15.96 153.94 44.09">
<g clip-path="url(#clip0_3570_3177)">
<path d="M28.2196 42.464C27.9399 44.429 27.5804 46.3138 27.1809 47.9981C27.101 48.3189 26.9013 48.5996 26.6216 48.8001C22.9065 51.2063 20.15 54.9759 20.4297 57.8632C20.5895 59.4673 21.5882 60.149 22.9464 60.0287C25.1835 59.8282 27.7002 55.6175 29.418 49.4418C29.418 49.4017 29.4979 49.3215 29.5379 49.3215C31.2556 48.5996 33.253 48.0382 35.57 47.7976C37.4476 47.5971 39.9643 47.7575 40.7233 47.8377C41.4823 47.9179 41.722 47.6773 41.6421 47.0357C41.5223 45.7123 38.8058 45.0306 35.8497 45.3113C34.1319 45.4717 32.2543 45.993 30.4167 46.795C30.217 46.8752 30.0971 46.795 30.1371 46.5544C30.4567 45.0306 30.7363 43.3864 30.976 41.7422M22.467 58.5048C20.7892 58.6652 21.748 54.5748 25.9026 51.3667C26.1822 51.1662 26.342 51.2464 26.2222 51.6073C24.9438 55.818 23.5057 58.4246 22.467 58.5048Z" fill="#E78A2B"/>
<path d="M26.8221 51.7278C26.902 49.4019 27.3015 47.076 27.661 44.7902C27.7809 44.1485 27.9007 43.4668 28.0205 42.8252C28.1404 42.1033 28.3002 41.3815 28.46 40.6597C28.5399 40.2587 28.6198 39.8576 28.6997 39.4566C28.7396 39.2561 28.7796 39.0556 28.8195 38.8551C28.8594 38.7348 28.9793 38.414 28.8595 38.3739C28.6997 38.2536 28.3801 38.7749 28.3401 38.8952C28.2203 39.0957 28.1004 39.2962 27.9406 39.4566C27.661 39.8576 27.3414 40.2185 27.0618 40.6196C26.4626 41.3815 25.8633 42.1434 25.2641 42.9054C24.9046 43.3465 24.5451 43.7876 24.1855 44.1887C24.0257 44.3491 23.786 44.5496 23.3866 44.8303C22.9871 45.0709 22.7074 45.2313 22.5077 45.2714C21.2294 45.4719 20.6301 43.9881 20.5103 43.1059C20.3505 42.0632 20.8698 40.8602 21.1894 39.8977C21.6688 38.3739 22.268 36.8901 22.9072 35.4063C23.1069 34.9251 23.4265 34.3637 23.9858 34.2433C24.4652 34.123 24.9046 34.484 25.0644 34.9251C25.1443 35.2058 25.1842 35.4464 25.1443 35.7271C25.0644 36.2885 24.8247 36.85 24.585 37.3312C24.2654 38.0129 23.9458 38.7348 23.6662 39.4165C23.3466 40.1784 22.9871 40.9404 22.6275 41.6622C22.5876 41.7424 22.5876 41.9429 22.6675 41.983C22.7474 42.0231 22.8273 41.983 22.9471 41.8627L24.7048 39.7774C25.344 38.9754 25.9832 38.1733 26.6224 37.3312C27.1417 36.6495 27.6211 35.9276 28.1004 35.2058C28.46 34.7246 28.8994 33.8824 29.5386 33.722C30.2177 33.5616 31.1764 34.2834 31.5759 34.7647C32.0952 35.3662 32.1352 36.1682 32.0553 36.9302C32.0154 37.2109 32.0153 37.4916 31.9754 37.7322C31.8156 38.7348 31.5759 39.7373 31.4161 40.7399C30.9367 43.5069 30.1378 46.2339 29.6984 49.041" fill="#E78A2B"/>
<path d="M10.7617 37.5321C10.7617 37.5722 10.7617 37.5722 10.8017 37.6123C11.0014 37.2915 11.2811 36.9707 11.361 36.6098C11.361 36.69 11.4009 36.7702 11.4009 36.8103C11.5208 36.69 11.6006 36.4895 11.6006 36.289L11.4808 36.4093C11.6805 36.0885 11.8803 35.8478 12.0001 35.5671C12.08 35.3666 12.3197 35.0859 12.12 34.9656C12.3197 34.8453 12.4396 34.5245 12.5994 34.324C13.0388 33.6823 13.5182 32.9605 13.9176 32.2788C14.2372 31.6371 14.6367 30.9153 14.9163 30.2336C14.9563 30.1534 15.0761 30.1935 15.156 30.0331C15.3957 29.632 15.6754 29.3112 15.915 28.8701C16.1947 28.3488 16.3545 27.8274 16.7939 27.4264C16.9537 27.266 17.2733 27.0254 17.0735 26.7447C17.0735 26.7447 17.5929 26.3036 17.5929 26.1432C17.5929 25.9025 17.3132 25.7822 17.2333 26.063C17.4331 25.5416 17.8326 25.0203 18.3918 24.9802C19.031 24.9401 19.7501 25.4614 20.0297 26.063C20.589 27.1858 20.3493 28.5493 20.1096 29.7122C20.1096 29.7523 20.1096 29.7523 20.1096 29.7924C19.6702 31.8777 18.991 33.7224 18.5916 35.8478C18.4717 36.6098 18.1921 37.4118 17.9923 38.1738C17.5929 39.6976 17.7127 41.422 18.0323 42.986C18.1122 43.4271 18.3119 43.9485 18.1921 44.4297C18.0323 45.1515 17.473 44.951 17.0735 44.5901C16.5942 44.149 16.2346 43.5474 16.0748 42.9058C15.6754 41.4621 15.915 39.8179 15.9949 38.3342C16.0748 37.2113 17.0336 33.3615 17.0336 33.3615C17.1534 32.8001 17.3132 31.9178 17.3132 31.9178C17.1934 31.2361 16.8339 31.4366 16.3545 32.1585C16.0349 32.6798 15.5555 33.4417 15.2759 34.0032C14.4769 35.6473 13.8377 37.2915 12.9589 38.8555C12.4795 39.7377 12.0401 40.62 11.6805 41.5423C11.321 42.4647 11.0813 43.4672 10.6419 44.3495C10.1226 45.4723 8.88418 45.3921 8.24501 44.4297C7.48599 43.3469 7.72568 41.9033 7.84553 40.6601C7.96537 39.1362 8.00532 37.6123 7.92542 36.0885C7.88547 35.2463 7.84552 34.3641 7.76563 33.5219C7.72568 32.9605 7.72568 32.4392 7.72568 31.8777C7.72568 31.4366 7.84552 30.6747 7.56589 30.3138C7.16641 30.4341 6.84682 31.0356 6.72698 31.4366C6.72698 31.4366 3.33139 38.6149 2.37263 44.4297C2.25279 45.0713 2.17289 45.7932 1.85331 46.3145C1.17419 47.3972 0.255383 45.9937 0.0955902 45.3119C-0.184047 44.0688 0.215435 42.7454 0.455123 41.5824C0.73476 40.219 1.41388 39.0159 1.85331 37.6925C2.0131 37.2113 2.093 36.289 2.77211 36.3291C2.65227 36.6499 2.37263 36.9707 2.49248 37.3316C2.97185 37.2113 2.89196 36.4895 3.05175 36.1286C3.25149 35.6473 3.81077 35.2463 3.57108 34.6849C3.33139 34.8052 3.33139 35.1661 3.25149 35.4067C3.13165 35.6874 2.93191 36.0083 2.65227 36.0885C3.33139 35.0458 2.77211 34.4844 3.69092 33.4016C3.57108 33.6823 3.49118 34.0834 3.33139 34.4042C3.21154 34.6849 2.97185 35.0057 3.05175 35.3666C3.37134 35.126 3.33139 34.5646 3.57108 34.2438C3.61102 34.2438 3.61102 34.2839 3.65097 34.2839C3.69092 34.324 3.69092 33.8026 3.73087 33.7224C3.77082 33.4818 3.93061 33.2412 4.01051 33.0407C4.40999 32.1585 4.96926 31.3163 5.36874 30.4341C5.60843 29.8726 5.84812 29.3112 6.1677 28.83C6.36744 28.4691 6.80687 28.028 6.68703 27.5467C6.60713 27.5868 6.52724 27.5868 6.48729 27.6269C6.64708 27.3863 7.00661 27.2259 7.00661 26.9051C6.44734 27.1056 6.12776 27.7873 5.84812 28.3488C5.68833 28.6696 5.68833 29.0305 5.52853 29.3513C5.2489 29.8325 5.04916 30.4341 4.72957 30.8351C4.96926 30.2737 5.12905 29.632 5.36874 29.0706C5.60843 28.5092 5.88807 28.028 6.1677 27.5066C6.3275 27.2259 6.48729 26.9051 6.64708 26.6244C6.76693 26.3838 6.92672 25.9426 7.12646 25.7822C8.04527 25.1005 8.84423 26.063 9.24371 26.7848C9.72309 27.667 9.80298 28.7097 9.88288 29.6721C9.96277 30.4742 10.0027 31.3163 10.0427 32.1184C10.0826 32.9605 10.0427 33.7625 10.0427 34.6047C10.0427 35.3666 9.96278 36.1286 9.92283 36.8504C9.92283 37.2113 9.84293 37.6123 9.84293 37.9733C9.84293 38.3743 10.0427 38.3743 10.1625 38.0134C10.2424 38.1337 10.3223 38.0535 10.4022 37.9332C10.3623 38.0535 10.4022 38.0535 10.4422 38.1738C10.4821 38.0936 10.8017 37.7326 10.6419 37.6123M2.33268 37.9332H2.21284L2.093 38.4144H2.21284L2.33268 37.9332ZM2.37263 37.2113L2.25279 37.1712L2.21284 37.2915L2.29274 37.3717L2.37263 37.2113ZM2.53243 36.7301L2.41258 36.69L2.53243 36.4494H2.65227L2.53243 36.7301ZM2.81206 35.6072V35.4067H2.69222V35.6072H2.81206ZM4.21025 32.1585C4.1703 32.2387 4.13035 32.3189 4.05045 32.4793C4.0904 32.359 4.13035 32.1986 4.13035 32.0783L4.21025 32.1585ZM4.37004 32.3189C4.44993 32.1986 4.33009 31.9981 4.40999 31.8777C4.33009 31.7975 4.21025 31.9178 4.13035 31.9981C4.1703 31.8777 4.21025 31.7173 4.29014 31.6371L4.40999 31.5168C4.40999 31.4366 4.37004 31.3965 4.29014 31.3965C4.29014 31.3564 4.33009 31.3564 4.33009 31.3564C4.37004 31.3163 4.37004 31.2762 4.37004 31.2361C4.37004 31.3965 4.33009 31.5569 4.40999 31.6772C4.52983 31.6371 4.64968 31.4767 4.80947 31.2361L4.37004 32.3189ZM4.64968 31.1559L4.52983 31.3564L4.44993 31.2762L4.56978 31.1158L4.64968 31.1559ZM10.0427 38.9357H9.92283V39.0961H10.0427V38.9357ZM10.2025 38.4545L10.1226 38.6149L10.2025 38.655L10.3223 38.4946L10.2025 38.4545Z" fill="#E78A2B"/>
<path d="M17.673 25.3009C17.2336 25.7019 16.6344 26.6644 15.9552 27.7872C15.9552 27.7872 10.5622 37.4117 10.2427 38.0132C10.2427 38.0132 9.84317 38.8955 9.96301 37.131L9.00426 36.5696C9.00426 36.5696 9.08416 37.6523 9.00426 37.8127C8.92436 37.9731 9.00426 39.0158 9.00426 39.0158L9.48364 39.4569C9.48364 39.4569 10.4823 39.7777 10.6421 39.7376C10.8019 39.6975 14.6769 33.0005 14.6769 33.0005L16.9539 28.87C16.9539 28.9502 18.472 24.539 17.673 25.3009Z" fill="#E78A2B"/>
<path d="M18.512 24.94C18.512 24.94 17.9527 24.8197 17.3535 25.6217C17.3535 25.6217 17.4334 25.9827 17.4334 26.0228C17.4334 26.0629 17.8728 26.2233 17.9927 26.1431C18.1125 26.0629 18.3123 25.9827 18.3922 25.9426C18.4721 25.9024 18.4721 25.7019 18.4721 25.6618C18.552 25.6217 18.512 24.94 18.512 24.94Z" fill="#E78A2B"/>
<path d="M20.389 27.4665C20.389 27.4665 17.9921 38.3342 17.9122 39.3768C17.9122 39.3768 17.5926 41.3418 18.112 43.1464C18.112 43.1464 18.5913 44.55 17.7924 44.8307C17.0334 45.1114 16.6738 41.4221 16.6738 41.4221L16.7937 38.6149L17.8723 35.0859L18.5114 29.2711V26.5442L19.1506 25.1406C19.1906 25.1406 20.3491 25.6218 20.389 27.4665Z" fill="#E78A2B"/>
<path d="M8.20485 25.662C8.20485 25.662 7.00641 24.6595 5.68812 28.0281C5.68812 28.0281 2.0129 35.848 0.814453 40.2993L1.37373 42.3445L3.77061 36.6099L5.36854 32.9606L7.52574 27.5067L8.20485 25.662Z" fill="#E78A2B"/>
<path d="M7.68602 30.9151C7.68602 30.9151 7.68602 40.5797 7.76591 43.026L8.64477 42.3442L8.32519 40.4995L8.92441 33.4817L7.9257 29.8725C7.9257 29.8725 6.12804 29.0705 6.08809 29.1507C6.0082 29.271 5.52882 30.3136 5.56877 30.474C5.60871 30.6344 6.48757 31.3162 6.48757 31.3964L6.28783 31.9979L6.72726 31.3563C6.72726 31.3563 7.12674 30.3136 7.48628 30.4339C7.48628 30.4339 7.68602 30.474 7.68602 30.9151Z" fill="#E78A2B"/>
<path d="M17.4727 33.2013C17.4727 33.2013 17.6725 33.081 17.7124 33.0008C17.7524 32.9205 18.1519 32.5195 18.1519 32.5195L18.3516 31.7977C18.3516 31.7977 18.3915 31.517 18.3516 31.2363C18.3116 30.9555 17.9921 30.5144 17.9921 30.5144L17.5526 30.1936C17.5526 30.1936 16.8735 30.0332 16.7137 30.0332C16.5539 30.0332 16.0745 30.3941 16.0745 30.3941C16.0745 30.3941 14.7563 33.2414 14.8362 33.1612C14.9161 33.1211 13.5978 36.0084 13.5978 36.0084L12.3594 38.1739L12.9186 38.4947L13.3581 38.214C14.1171 36.5297 16.5939 31.918 16.5939 31.918C16.9135 31.3566 17.1931 31.5972 17.1931 31.5972C17.3529 31.7175 17.273 32.1185 17.273 32.1185C17.273 32.1185 14.5166 41.7029 16.3542 43.8283C16.3542 43.8283 17.8323 45.6329 18.1918 44.3897L16.1944 42.3445L16.6738 39.1364L17.4727 33.2013Z" fill="#E78A2B"/>
<path d="M35.0909 41.7024C34.8512 41.542 34.6914 41.2612 34.6914 40.9003C34.6914 40.3389 35.1308 39.9379 35.6901 39.9379C35.9697 39.9379 36.1695 40.0181 36.2893 40.1384C37.288 40.9404 38.3267 41.3815 39.605 41.3815C40.8834 41.3815 41.7223 40.78 41.7223 39.8978V39.8577C41.7223 39.0155 41.2429 38.5343 39.0458 38.0531C36.529 37.4515 35.0909 36.6896 35.0909 34.484V34.4439C35.0909 32.3987 36.7687 30.9951 39.1256 30.9951C40.6037 30.9951 41.8022 31.3961 42.8808 32.118C43.1205 32.2383 43.3202 32.5591 43.3202 32.9601C43.3202 33.5215 42.8808 33.9226 42.3215 33.9226C42.1218 33.9226 41.962 33.8825 41.7622 33.7622C40.8434 33.1606 39.9646 32.8799 39.0458 32.8799C37.8074 32.8799 37.1282 33.5215 37.1282 34.2835V34.3236C37.1282 35.2459 37.6875 35.647 39.9646 36.2084C42.4813 36.8099 43.7596 37.7323 43.7596 39.6973V39.7374C43.7596 41.9831 42.0019 43.3064 39.5251 43.3064C37.9272 43.2262 36.4092 42.7049 35.0909 41.7024Z" fill="#31006F"/>
<path d="M57.2617 32.0778C57.2617 31.5164 57.7012 31.0352 58.3004 31.0352C58.8596 31.0352 59.339 31.4763 59.339 32.0778V42.1033C59.339 42.6647 58.8996 43.146 58.3004 43.146C57.7012 43.146 57.2617 42.7048 57.2617 42.1033V32.0778Z" fill="#31006F"/>
<path d="M70.4043 32.0778C70.4043 31.5164 70.8437 31.0352 71.4429 31.0352C72.0022 31.0352 72.4816 31.4763 72.4816 32.0778V41.1409H76.5563C77.0756 41.1409 77.5151 41.582 77.5151 42.1033C77.5151 42.6246 77.0756 43.0658 76.5563 43.0658H71.4829C70.8837 43.0658 70.4442 42.6246 70.4442 42.0231V32.0778H70.4043Z" fill="#31006F"/>
<path d="M61.8164 32.0778C61.8164 31.5164 62.2558 31.0352 62.8551 31.0352C63.4143 31.0352 63.8937 31.4763 63.8937 32.0778V41.1409H67.9684C68.4877 41.1409 68.9272 41.582 68.9272 42.1033C68.9272 42.6246 68.4877 43.0658 67.9684 43.0658H62.8551C62.2558 43.0658 61.8164 42.6246 61.8164 42.0231V32.0778Z" fill="#31006F"/>
<path d="M79.1143 41.7024C78.8746 41.542 78.7148 41.2612 78.7148 40.9003C78.7148 40.3389 79.1543 39.9379 79.7135 39.9379C79.9932 39.9379 80.1929 40.0181 80.3128 40.1384C81.3115 40.9404 82.3501 41.3815 83.6285 41.3815C84.9068 41.3815 85.7457 40.78 85.7457 39.8978V39.8577C85.7457 39.0155 85.2663 38.5343 83.0692 38.0531C80.5525 37.4515 79.1143 36.6896 79.1143 34.484V34.4439C79.1143 32.3987 80.7921 30.9951 83.1491 30.9951C84.6272 30.9951 85.8256 31.3961 86.9042 32.118C87.1439 32.2383 87.3436 32.5591 87.3436 32.9601C87.3436 33.5215 86.9042 33.9226 86.3449 33.9226C86.1452 33.9226 85.9854 33.8825 85.7857 33.7622C84.8669 33.1606 83.988 32.8799 83.0692 32.8799C81.8308 32.8799 81.1517 33.5215 81.1517 34.2835V34.3236C81.1517 35.2459 81.711 35.647 83.988 36.2084C86.5047 36.8099 87.7831 37.7323 87.7831 39.6973V39.7374C87.7831 41.9831 86.0253 43.3064 83.5486 43.3064C81.9506 43.2262 80.4326 42.7049 79.1143 41.7024Z" fill="#31006F"/>
<path d="M54.825 41.3815L50.8302 36.4088L54.5453 32.8397C54.785 32.6392 54.9049 32.3986 54.9049 32.0377C54.9049 31.5164 54.5054 31.0753 53.9461 31.0753C53.5866 31.0753 53.3069 31.1956 53.0672 31.4763L47.7941 36.7697V32.0778C47.7941 31.5164 47.3547 31.0352 46.7554 31.0352C46.1562 31.0352 45.7168 31.4763 45.7168 32.0778V42.1033C45.7168 42.6647 46.1562 43.146 46.7554 43.146C47.3147 43.146 47.7941 42.7048 47.7941 42.1033V39.617V39.2561L49.3521 37.7322L53.1472 42.6246C53.3868 42.9054 53.6265 43.1059 54.026 43.1059C54.6252 43.1059 55.0647 42.6647 55.0647 42.1033C55.1046 41.7825 54.9848 41.582 54.825 41.3815Z" fill="#31006F"/>
<path d="M146.905 33.1608C147.544 31.9978 146.905 30.5943 145.188 30.5943C143.709 30.5943 141.792 32.2385 140.194 35.1258C139.834 35.7674 139.675 35.6872 139.795 35.0055C139.954 34.1233 140.074 33.4014 140.194 32.8801C140.394 31.677 139.355 31.0354 138.636 31.0354C138.117 31.0354 137.557 33.5618 137.198 36.1685C136.958 37.8126 136.239 39.2964 135.081 40.4594C134.481 41.0609 133.962 41.3817 133.523 41.3817C132.164 41.3817 133.483 35.4065 134.082 32.7598C134.202 32.3187 133.523 30.9953 132.364 30.9953C132.204 30.9953 131.925 31.4765 131.685 32.2385C129.688 36.5695 127.411 41.502 125.373 41.502C124.095 41.502 125.733 34.7649 127.491 31.5166C127.97 30.6344 127.65 29.0704 126.771 29.0704C126.652 29.0704 126.492 29.1506 126.332 29.2709C124.654 30.6745 122.257 31.6369 119.82 32.1583C119.621 32.1984 119.501 32.078 119.581 31.8775C121.099 28.6694 121.978 25.7018 121.978 24.579C121.978 23.7769 121.378 22.9348 120.899 22.9348C119.98 22.9348 117.983 27.4262 116.824 32.078C116.744 32.3588 116.545 32.5192 116.265 32.5192C116.225 32.5192 116.225 32.5192 116.185 32.5192C115.346 32.5192 114.428 32.3989 114.108 32.3588C113.708 32.3187 113.229 32.4791 113.229 33.0806C113.229 33.6019 113.269 34.5644 115.946 34.7248C116.105 34.7248 116.225 34.8852 116.185 35.0456C116.145 35.4466 116.065 35.8075 115.866 36.1685C114.108 39.0959 112.35 41.3416 111.232 41.3416C109.873 41.3416 111.112 35.3664 111.751 32.7197C111.871 32.2786 111.192 30.9552 109.993 30.9552C109.833 30.9552 109.634 31.3161 109.434 31.9577C107.397 36.369 104.6 41.502 103.282 41.502C102.004 41.502 103.482 35.1659 105.679 31.5968C106.158 30.8349 105.599 29.311 104.72 29.311C104.56 29.311 104.401 29.3912 104.201 29.5917C102.483 30.9953 99.6866 32.3588 96.8903 33.0806C96.6905 33.1207 96.6106 33.0004 96.6506 32.84C97.13 30.9151 97.6493 29.1105 98.2086 27.4663C98.3284 27.1455 98.5281 26.9049 98.8477 26.7445C102.763 24.6993 105.879 21.2505 105.879 18.3231C105.879 16.719 104.96 15.957 103.602 15.957C101.444 16.0372 98.5281 19.9672 96.2511 25.9424C96.2511 25.9825 96.1712 26.0627 96.1313 26.0627C94.3735 26.6242 92.2962 26.9851 89.9793 26.9851C88.1017 26.9851 85.585 26.5841 84.8659 26.4638C84.1468 26.3435 83.8672 26.544 83.8672 27.1856C83.8672 28.4288 86.5038 29.3912 89.4599 29.3912C91.1777 29.3912 93.0952 29.0704 95.0127 28.4689C95.2125 28.3887 95.3323 28.509 95.2524 28.7095C94.773 30.1933 94.3336 31.7973 93.9741 33.4415C93.9341 33.6019 93.7743 33.7222 93.6145 33.7623C93.4947 33.7623 93.3748 33.7623 93.255 33.7623C92.4161 33.7623 91.4973 33.642 91.1777 33.6019C90.7782 33.5618 90.2988 33.6821 90.2988 34.2436C90.2988 34.9253 91.0578 35.8877 93.0153 36.0883C93.255 36.1284 93.3748 36.3289 93.3349 36.5294C92.8156 39.6172 92.496 42.8655 92.496 46.194C92.496 46.8757 92.9754 47.6777 93.8942 47.8381C94.2138 47.8782 94.5333 47.6777 94.5333 47.3168C94.773 43.3467 95.2923 39.537 96.0114 36.0482C96.0514 35.9278 96.1712 35.8075 96.2911 35.7674C98.2485 35.2461 100.246 34.1634 101.764 33.0806C102.084 32.84 102.243 32.9603 102.084 33.3212C101.285 35.2461 100.645 37.6522 100.645 39.9781C100.645 41.8228 101.644 43.3868 103.242 43.3868C104.48 43.3868 106.238 41.4619 108.036 38.2939C108.236 37.8928 108.435 37.973 108.435 38.4142C108.395 40.9406 108.995 43.1462 110.872 43.1462C112.27 43.1462 113.988 41.4619 115.626 39.0959C115.826 38.8152 115.985 38.8954 115.985 39.2162C116.145 41.9832 117.104 43.1863 118.223 43.1863C119.741 43.1863 120.979 41.6223 121.458 40.1787C121.618 39.6974 121.378 39.2964 121.059 39.136C120.899 39.0558 120.659 39.136 120.58 39.3365C120.02 40.6599 119.461 41.4218 118.662 41.4218C118.063 41.4218 117.743 38.9756 118.382 35.0857C118.422 34.9253 118.542 34.7649 118.702 34.7248C120.619 34.3639 122.617 33.4415 124.055 32.5192C124.335 32.3187 124.494 32.439 124.335 32.7598C123.536 34.7649 122.697 37.5319 122.697 39.9781C122.697 41.8228 123.536 43.3868 125.134 43.3868C126.652 43.3868 128.369 41.5822 130.127 38.5746C130.327 38.2137 130.527 38.2538 130.487 38.6949C130.487 41.101 131.086 43.1462 133.003 43.1462C134.042 43.1462 135.32 42.2239 136.519 40.7401C136.639 40.6198 136.719 40.6599 136.719 40.8203C136.719 42.5447 137.238 43.1863 137.917 43.1863C138.596 43.1863 138.556 42.3442 138.596 42.1437C139.075 38.5345 142.231 33.1608 144.748 33.1608C145.148 33.1608 145.547 33.2811 145.827 33.4415C146.306 33.6019 146.706 33.5217 146.905 33.1608ZM104.001 17.5611C105.679 17.5611 104.361 21.5312 99.8864 24.3384C99.6067 24.5389 99.447 24.4186 99.6067 24.0977C101.285 19.9672 103.002 17.5611 104.001 17.5611Z" fill="#CF3339"/>
<path d="M153.177 38.9758C151.659 40.7804 150.141 41.7829 148.743 41.7829C147.664 41.7829 147.265 40.8606 147.265 39.6976C147.265 39.6174 147.265 39.5372 147.265 39.457C147.265 39.3768 147.345 39.2966 147.425 39.2565C150.181 38.7753 153.936 35.8478 153.936 33.2412C153.936 31.8777 152.818 30.7549 151.579 30.7549C148.463 30.7549 145.268 35.6874 145.268 39.4169C145.268 41.8631 146.506 43.2667 148.104 43.2667C151.14 43.2667 154.216 40.7403 153.457 39.0159C153.457 38.8956 153.297 38.8555 153.177 38.9758ZM151.939 32.5595C153.497 32.5595 151.499 36.5296 148.144 37.3717C147.944 37.4118 147.824 37.2915 147.904 37.091C148.783 34.7651 150.501 32.5595 151.939 32.5595Z" fill="#CF3339"/>
</g>
<defs>
<clipPath id="clip0_3570_3177">
<rect width="153.936" height="44.0856" fill="white" transform="translate(0 15.957)"/>
</clipPath>
</defs>
</svg>
